<svg width="45" height="45" viewBox="0 0 45 45" fill="none" xmlns="http://www.w3.org/2000/svg">
<g clip-path="url(#clip0_240_973)">
<path d="M39.2621 38.7774C38.36 39.7292 37.5065 40.3431 36.832 40.8281C28.9046 46.5292 19.5243 44.8673 17.5308 44.4615C14.587 43.8623 8.89646 42.7038 4.78249 37.8547C-1.44181 30.5182 -0.472543 18.9601 4.35547 11.3302C5.2386 9.9346 9.90349 2.18863 19.3847 0.946362C25.1227 0.19459 31.8113 1.71086 36.6549 5.77819C46.8223 14.3159 46.0984 31.5638 39.2621 38.7772V38.7774Z" fill="url(#paint0_linear_240_973)"/>
<path d="M7.85156 3.34344C7.73649 3.06783 7.53399 2.88274 7.30401 2.84199C7.07402 2.80124 6.84227 2.90965 6.6769 3.13564C0.609452 11.422 3.88706 20.4865 5.33493 23.6037C5.46431 23.8821 5.68417 24.0564 5.9254 24.0715C6.16647 24.0867 6.39918 23.9411 6.5501 23.6804C11.7386 14.7188 9.07106 6.26596 7.85156 3.34344Z" fill="#BDD0FB"/>
<g opacity="0.56">
<path d="M6.98249 4.0672C6.7165 5.63663 6.51111 7.21814 6.33963 8.80142C6.1704 10.3853 6.03829 11.9733 5.95343 13.5637L5.89943 14.7568C5.88368 15.1545 5.8787 15.5525 5.86777 15.9504L5.85395 16.5472V17.144L5.85427 17.7408C5.85572 17.9398 5.85074 18.1387 5.85909 18.3375C5.88481 19.9287 5.98815 21.5169 6.16429 23.0954L6.16477 23.0996C6.17329 23.1755 6.11881 23.2437 6.04311 23.2521C5.96741 23.2607 5.89927 23.2061 5.89091 23.1302C5.89091 23.1292 5.89059 23.1276 5.89059 23.1266L5.78774 21.9314L5.76202 21.6326L5.74965 21.4833L5.74241 21.3336L5.71349 20.7349L5.68424 20.1363L5.66945 19.837L5.66415 19.5376L5.64309 18.3398C5.63699 18.1402 5.64406 17.9406 5.6447 17.7408L5.65081 17.1421L5.65691 16.5434L5.677 15.9451C5.69211 15.5463 5.70143 15.1473 5.72152 14.7487L5.78838 13.5537C5.89252 11.9614 6.02945 10.3715 6.21154 8.78676C6.30315 7.99439 6.40231 7.20299 6.514 6.41337L6.59741 5.82107L6.68645 5.22957C6.74672 4.83524 6.81004 4.44172 6.87866 4.04819C6.88365 4.01936 6.91097 4.00019 6.93974 4.00519C6.96834 4.01018 6.98747 4.0374 6.98265 4.06607V4.06688L6.98249 4.0672Z" fill="white"/>
<path d="M6.19712 8.83817C6.18603 8.83011 6.17768 8.81819 6.1743 8.80385C6.16723 8.7726 6.18668 8.74136 6.21802 8.73411C7.05437 8.54258 8.25909 6.89906 8.27114 6.88246C8.28995 6.85669 8.32595 6.85089 8.35182 6.86942C8.35182 6.86942 8.35214 6.86958 8.3523 6.86974C8.37818 6.88875 8.3838 6.92515 8.365 6.95092C8.3147 7.02003 7.1222 8.64632 6.24389 8.84751C6.22702 8.85137 6.21014 8.84751 6.19712 8.838V8.83817Z" fill="white"/>
<path d="M6.19708 8.83817C6.19451 8.8364 6.1921 8.8343 6.18985 8.83205C6.15128 8.79355 5.24132 7.87699 4.87762 6.88843C4.86653 6.8583 4.88196 6.8248 4.91201 6.81385C4.94207 6.80273 4.97549 6.81819 4.98642 6.84832C5.34112 7.8124 6.26249 8.74039 6.27182 8.74973C6.29448 8.77245 6.29448 8.80933 6.27182 8.83205C6.2514 8.8525 6.21974 8.8546 6.19708 8.83833V8.83817Z" fill="white"/>
<path d="M5.86205 13.1509C5.85353 13.1448 5.84646 13.1363 5.84228 13.1258C5.83007 13.0962 5.84421 13.0622 5.87378 13.0499C7.17766 12.5113 8.15255 10.97 8.16235 10.9546C8.17939 10.9274 8.21507 10.9191 8.24239 10.9362C8.26923 10.9538 8.27775 10.9892 8.26071 11.0164C8.25075 11.0322 7.25673 12.6047 5.91798 13.1575C5.89885 13.1654 5.8778 13.1624 5.86205 13.1511V13.1509Z" fill="white"/>
<path d="M5.46455 12.9464C5.04123 12.6426 4.34679 12.0041 3.8677 10.8496C3.85548 10.8199 3.86947 10.786 3.89904 10.7736C3.92861 10.7613 3.96252 10.7752 3.97489 10.805C4.6748 12.4913 5.87197 13.0622 5.88402 13.0678C5.91311 13.0815 5.9258 13.116 5.9123 13.145C5.89897 13.1742 5.86441 13.1869 5.83532 13.1734C5.81861 13.1656 5.67509 13.0972 5.46472 12.9462L5.46455 12.9464Z" fill="white"/>
<path d="M5.72621 19.0437C5.72621 19.0437 5.72524 19.0429 5.72476 19.0426C5.71142 19.0323 4.38248 18.0047 3.63323 16.5261C3.61876 16.4975 3.63017 16.4625 3.65862 16.4478C3.68723 16.4333 3.7221 16.4446 3.73673 16.4733C4.47376 17.9275 5.78214 18.94 5.79531 18.9501C5.82071 18.9696 5.82569 19.0062 5.80608 19.0316C5.78696 19.0566 5.7516 19.0617 5.72621 19.0437Z" fill="white"/>
<path d="M5.72638 19.0435C5.71931 19.0385 5.71336 19.0318 5.70902 19.0237C5.69392 18.9954 5.70452 18.9602 5.73281 18.9451C5.74743 18.9374 7.19836 18.1469 8.10624 16.5616C8.12215 16.5337 8.15767 16.5242 8.18547 16.5401C8.21279 16.5564 8.22276 16.5917 8.20685 16.6196C7.28177 18.2347 5.80224 19.0397 5.78745 19.0477C5.76736 19.0585 5.74374 19.0561 5.72638 19.0437V19.0435Z" fill="white"/>
</g>
<path d="M1.88905 6.92238C1.73075 6.73294 1.52552 6.6363 1.33379 6.66062C1.14205 6.68494 0.985518 6.8275 0.910143 7.04657C-1.85736 15.0841 2.9488 21.4407 4.85504 23.548C5.02523 23.7362 5.24172 23.8198 5.43586 23.7726C5.63 23.7254 5.77834 23.5532 5.83379 23.3101C7.74179 14.9549 3.56723 8.93172 1.88905 6.92222V6.92238Z" fill="#91B3FA"/>
<g opacity="0.56">
<path d="M1.38615 7.70736C1.55988 9.01228 1.7852 10.3121 2.03784 11.6049C2.29241 12.8976 2.57688 14.1843 2.90024 15.4611L3.15031 16.4164C3.23549 16.7344 3.32918 17.05 3.41806 17.3668L3.55354 17.8415L3.70011 18.3129L3.84668 18.784C3.89666 18.9408 3.9415 19.0991 3.99679 19.2539C4.40725 20.5039 4.87895 21.732 5.40545 22.9343L5.40722 22.9382C5.43775 23.0081 5.40609 23.0894 5.3365 23.1202C5.26675 23.1508 5.18559 23.1191 5.1549 23.0493C5.15441 23.0484 5.15377 23.0468 5.15345 23.0458L4.78091 22.1255L4.68786 21.8955L4.64174 21.7803L4.59963 21.6637L4.43104 21.1972L4.26213 20.731L4.17743 20.4981L4.10029 20.2626L3.79172 19.3206C3.7382 19.1643 3.69513 19.0047 3.64691 18.8467L3.50581 18.3718L3.3647 17.8969L3.23484 17.419C3.14966 17.1001 3.05983 16.7823 2.9785 16.4623L2.74 15.5012C2.43449 14.2169 2.1542 12.9267 1.91152 11.6296C1.79066 10.9809 1.67591 10.3311 1.57145 9.67949C1.46441 9.02823 1.3667 8.37601 1.28168 7.72073C1.27799 7.69173 1.2984 7.66515 1.32716 7.66145C1.35609 7.65774 1.38261 7.67804 1.38631 7.70703V7.70768L1.38615 7.70736Z" fill="white"/>
<path d="M1.90201 11.6711C1.89639 11.6668 1.89157 11.6612 1.88771 11.6547C1.87164 11.6268 1.88112 11.5912 1.90876 11.5751C2.51948 11.2203 3.06832 9.62926 3.07378 9.61315C3.08423 9.5827 3.11718 9.5666 3.14739 9.57691C3.17776 9.58721 3.19384 9.6204 3.18355 9.65068C3.16073 9.71785 2.61494 11.299 1.96694 11.6756C1.94573 11.6879 1.92001 11.6853 1.90185 11.671L1.90201 11.6711Z" fill="white"/>
<path d="M1.06269 11.1175C0.827565 10.9319 0.585208 10.7086 0.395726 10.4609C0.376279 10.4354 0.381101 10.3989 0.406493 10.3794C0.431886 10.3597 0.468368 10.3644 0.487815 10.3902C1.0029 11.0635 1.9553 11.5688 1.96494 11.574C1.99274 11.5891 2.00415 11.6241 1.98937 11.6526C1.97442 11.6809 1.93939 11.6919 1.91094 11.6771C1.88523 11.6635 1.48569 11.4515 1.06269 11.1176V11.1175Z" fill="white"/>
<path d="M2.69209 15.161C2.68888 15.1586 2.68599 15.1557 2.68325 15.1524C2.66284 15.1276 2.66622 15.0911 2.69097 15.0706C3.58759 14.3262 3.97958 12.8726 3.98343 12.858C3.99163 12.8269 4.02345 12.8084 4.05431 12.8166C4.08549 12.825 4.10381 12.8567 4.09561 12.8876C4.07938 12.9487 3.68997 14.3921 2.7649 15.16C2.74352 15.1777 2.71299 15.1776 2.69209 15.161Z" fill="white"/>
<path d="M1.23656 14.4949C1.01703 14.3216 0.789618 14.1062 0.56719 13.8388C0.546618 13.8142 0.549993 13.7774 0.574583 13.7568C0.599172 13.7362 0.636136 13.7399 0.656386 13.7642C1.15846 14.3676 1.69042 14.6932 2.04817 14.8601C2.43614 15.041 2.70903 15.0795 2.71176 15.0798C2.74358 15.0843 2.76576 15.1135 2.76158 15.1452C2.7574 15.1771 2.72815 15.1993 2.69649 15.1951C2.66081 15.1903 1.99594 15.0941 1.23673 14.4949H1.23656Z" fill="white"/>
<path d="M2.29681 18.8561C2.11617 18.7135 1.93746 18.5555 1.76935 18.3822C1.74701 18.3591 1.74749 18.3224 1.77063 18.2998C1.79362 18.2775 1.8301 18.2778 1.85276 18.3011C2.78892 19.2675 4.06837 19.7451 4.08106 19.7499C4.11144 19.761 4.12655 19.7944 4.11562 19.8245C4.10453 19.8546 4.07126 19.8701 4.04121 19.8591C4.03044 19.8553 3.1433 19.5242 2.29697 18.8562L2.29681 18.8561Z" fill="white"/>
<path d="M4.02505 19.8501C4.02328 19.8488 4.02167 19.8473 4.02023 19.8457C3.99741 19.8232 3.99709 19.7863 4.01975 19.7634C4.02923 19.7537 4.9805 18.7745 5.30948 17.3021C5.31655 17.2708 5.34757 17.251 5.37875 17.2581C5.40992 17.265 5.42969 17.2963 5.42262 17.3275C5.08609 18.8336 4.112 19.8352 4.10219 19.8451C4.0813 19.8663 4.04787 19.8679 4.02505 19.8499V19.8501Z" fill="white"/>
</g>
<path d="M21.271 33.579V35.137H21.2688C21.1735 36.0774 17.2495 37.8043 11.5501 37.8364C3.16994 37.8833 0.339917 36.0078 0.208132 35.0472H0.205078V33.6117L21.271 33.579Z" fill="url(#paint1_linear_240_973)"/>
<path d="M0.205078 33.6175C0.205078 34.5859 5.04033 35.3507 10.9085 35.3259C16.6727 35.3016 21.2712 34.5221 21.2712 33.5846C21.2712 32.6471 16.6727 31.8818 10.9085 31.8755C5.04033 31.8691 0.205078 32.6489 0.205078 33.6175Z" fill="url(#paint2_linear_240_973)"/>
<path d="M0.287109 33.4996C0.287109 34.4607 5.0854 35.2214 10.9102 35.1988C16.6334 35.1766 21.2001 34.4042 21.2001 33.4731C21.2001 32.5421 16.6332 31.7811 10.9102 31.7736C5.0854 31.7657 0.287109 32.5385 0.287109 33.4997V33.4996Z" fill="url(#paint3_linear_240_973)"/>
<path d="M0.205078 35.0472V33.6117L21.271 33.579V35.137L0.205078 35.0472Z" fill="url(#paint4_linear_240_973)"/>
<path d="M0.205078 33.6175C0.205078 34.5859 5.04033 35.3507 10.9085 35.3259C16.6727 35.3016 21.2712 34.5221 21.2712 33.5846C21.2712 32.6471 16.6727 31.8818 10.9085 31.8755C5.04033 31.8691 0.205078 32.6489 0.205078 33.6175Z" fill="#7D97F4"/>
<path d="M21.271 30.6262V32.1841H21.2688C21.1735 33.1245 17.2495 34.7697 11.5501 34.7404C2.5184 34.6938 0.339917 33.0548 0.208132 32.0944H0.205078V30.6589L21.271 30.6262Z" fill="url(#paint5_linear_240_973)"/>
<path d="M0.205078 30.6647C0.205078 31.6331 5.04033 32.3979 10.9085 32.3731C16.6727 32.3488 21.2712 31.5693 21.2712 30.6318C21.2712 29.6943 16.6727 28.929 10.9085 28.9227C5.04033 28.9163 0.205078 29.6961 0.205078 30.6647Z" fill="url(#paint6_linear_240_973)"/>
<path d="M0.287109 30.5467C0.287109 31.5079 5.0854 32.2685 10.9102 32.246C16.6334 32.2238 21.2001 31.4514 21.2001 30.5203C21.2001 29.5893 16.6332 28.8283 10.9102 28.8207C5.0854 28.8128 0.287109 29.5857 0.287109 30.5469V30.5467Z" fill="url(#paint7_linear_240_973)"/>
<path d="M0.205078 32.0944V30.6589L21.271 30.6262V32.1841L0.205078 32.0944Z" fill="url(#paint8_linear_240_973)"/>
<path d="M0.205078 30.6647C0.205078 31.6331 5.04033 32.3979 10.9085 32.3731C16.6727 32.3488 21.2712 31.5693 21.2712 30.6318C21.2712 29.6943 16.6727 28.929 10.9085 28.9227C5.04033 28.9163 0.205078 29.6961 0.205078 30.6647Z" fill="#7D97F4"/>
<path d="M21.271 27.6661V29.2241H21.2688C21.1735 30.1645 17.2495 31.8097 11.5501 31.7803C2.5184 31.7338 0.339917 30.0948 0.208132 29.1344H0.205078V27.6988L21.271 27.6661Z" fill="url(#paint9_linear_240_973)"/>
<path d="M0.205078 27.7046C0.205078 28.6731 5.04033 29.4379 10.9085 29.4131C16.6727 29.3887 21.2712 28.6093 21.2712 27.6718C21.2712 26.7343 16.6727 25.969 10.9085 25.9627C5.04033 25.9562 0.205078 26.736 0.205078 27.7046Z" fill="url(#paint10_linear_240_973)"/>
<path d="M0.287109 27.5867C0.287109 28.5479 5.0854 29.3085 10.9102 29.286C16.6334 29.2637 21.2001 28.4914 21.2001 27.5603C21.2001 26.6292 16.6332 25.8683 10.9102 25.8607C5.0854 25.8528 0.287109 26.6257 0.287109 27.5869V27.5867Z" fill="url(#paint11_linear_240_973)"/>
<path d="M0.205078 29.1344V27.6988L21.271 27.6661V29.2241L0.205078 29.1344Z" fill="url(#paint12_linear_240_973)"/>
<path d="M0.205078 27.7046C0.205078 28.6731 5.04033 29.4379 10.9085 29.4131C16.6727 29.3887 21.2712 28.6093 21.2712 27.6718C21.2712 26.7343 16.6727 25.969 10.9085 25.9627C5.04033 25.9562 0.205078 26.736 0.205078 27.7046Z" fill="#7D97F4"/>
<path d="M21.271 24.7061V26.264H21.2688C21.1735 27.2044 17.2495 28.8496 11.5501 28.8203C2.5184 28.7737 0.339917 27.1347 0.208132 26.1743H0.205078V24.7388L21.271 24.7061Z" fill="url(#paint13_linear_240_973)"/>
<path d="M0.205078 24.7444C0.205078 25.7128 5.04033 26.4776 10.9085 26.4528C16.6727 26.4285 21.2712 25.649 21.2712 24.7115C21.2712 23.774 16.6727 23.0087 10.9085 23.0024C5.04033 22.996 0.205078 23.7759 0.205078 24.7444Z" fill="url(#paint14_linear_240_973)"/>
<path d="M0.287109 24.6266C0.287109 25.5878 5.0854 26.3484 10.9102 26.3259C16.6334 26.3037 21.2001 25.5313 21.2001 24.6002C21.2001 23.6692 16.6332 22.9082 10.9102 22.9006C5.0854 22.8927 0.287109 23.6656 0.287109 24.6268V24.6266Z" fill="url(#paint15_linear_240_973)"/>
<path d="M0.205078 26.1743V24.7388L21.271 24.7061V26.264L0.205078 26.1743Z" fill="url(#paint16_linear_240_973)"/>
<path d="M0.205078 24.7444C0.205078 25.7128 5.04033 26.4776 10.9085 26.4528C16.6727 26.4285 21.2712 25.649 21.2712 24.7115C21.2712 23.774 16.6727 23.0087 10.9085 23.0024C5.04033 22.996 0.205078 23.7759 0.205078 24.7444Z" fill="#7D97F4"/>
<path d="M21.271 21.746V23.304H21.2688C21.1735 24.2444 17.2495 25.8896 11.5501 25.8602C2.5184 25.8137 0.339917 24.1747 0.208132 23.2143H0.205078V21.7787L21.271 21.746Z" fill="url(#paint17_linear_240_973)"/>
<path d="M0.205078 21.7843C0.205078 22.7528 5.04033 23.5176 10.9085 23.4928C16.6727 23.4685 21.2712 22.689 21.2712 21.7515C21.2712 20.814 16.6727 20.0487 10.9085 20.0424C5.04033 20.036 0.205078 20.8158 0.205078 21.7843Z" fill="url(#paint18_linear_240_973)"/>
<path d="M0.287109 21.6666C0.287109 22.6278 5.0854 23.3884 10.9102 23.3659C16.6334 23.3436 21.2001 22.5712 21.2001 21.6402C21.2001 20.7091 16.6332 19.9482 10.9102 19.9406C5.0854 19.9327 0.287109 20.7056 0.287109 21.6668V21.6666Z" fill="url(#paint19_linear_240_973)"/>
<path d="M0.205078 23.2143V21.7786L21.271 21.746V23.3039L0.205078 23.2143Z" fill="url(#paint20_linear_240_973)"/>
<path d="M0.205078 21.7843C0.205078 22.7528 5.04033 23.5176 10.9085 23.4928C16.6727 23.4685 21.2712 22.689 21.2712 21.7515C21.2712 20.814 16.6727 20.0487 10.9085 20.0424C5.04033 20.036 0.205078 20.8158 0.205078 21.7843Z" fill="#7D97F4"/>
<path d="M21.271 18.7858V20.3438H21.2688C21.1735 21.2842 17.2495 22.9293 11.5501 22.9C2.5184 22.8534 0.339917 21.2144 0.208132 20.254H0.205078V18.8185L21.271 18.7858Z" fill="url(#paint21_linear_240_973)"/>
<path d="M0.205078 18.8243C0.205078 19.7927 5.04033 20.5575 10.9085 20.5327C16.6727 20.5084 21.2712 19.7289 21.2712 18.7914C21.2712 17.8539 16.6727 17.0886 10.9085 17.0823C5.04033 17.0759 0.205078 17.8557 0.205078 18.8243Z" fill="url(#paint22_linear_240_973)"/>
<path d="M0.287109 18.7063C0.287109 19.6675 5.0854 20.4282 10.9102 20.4056C16.6334 20.3834 21.2001 19.611 21.2001 18.6799C21.2001 17.7489 16.6332 16.9879 10.9102 16.9803C5.0854 16.9725 0.287109 17.7453 0.287109 18.7065V18.7063Z" fill="url(#paint23_linear_240_973)"/>
<path d="M0.205078 20.254V18.8185L21.271 18.7858V20.3438L0.205078 20.254Z" fill="url(#paint24_linear_240_973)"/>
<path d="M0.205078 18.8243C0.205078 19.7927 5.04033 20.5575 10.9085 20.5327C16.6727 20.5084 21.2712 19.7289 21.2712 18.7914C21.2712 17.8539 16.6727 17.0886 10.9085 17.0823C5.04033 17.0759 0.205078 17.8557 0.205078 18.8243Z" fill="#7D97F4"/>
<path d="M21.271 15.8257V17.3837H21.2688C21.1735 18.3241 17.2495 19.9693 11.5501 19.94C2.5184 19.8934 0.339917 18.2544 0.208132 17.294H0.205078V15.8584L21.271 15.8257Z" fill="url(#paint25_linear_240_973)"/>
<path d="M0.205078 15.8642C0.205078 16.8327 5.04033 17.5975 10.9085 17.5727C16.6727 17.5484 21.2712 16.7689 21.2712 15.8314C21.2712 14.8939 16.6727 14.1286 10.9085 14.1223C5.04033 14.1158 0.205078 14.8956 0.205078 15.8642Z" fill="url(#paint26_linear_240_973)"/>
<path d="M0.287109 15.7463C0.287109 16.7075 5.0854 17.4681 10.9102 17.4456C16.6334 17.4234 21.2001 16.651 21.2001 15.7199C21.2001 14.7888 16.6332 14.0279 10.9102 14.0203C5.0854 14.0124 0.287109 14.7853 0.287109 15.7465V15.7463Z" fill="url(#paint27_linear_240_973)"/>
<path d="M0.205078 17.294V15.8584L21.271 15.8257V17.3837L0.205078 17.294Z" fill="url(#paint28_linear_240_973)"/>
<path d="M0.205078 15.8642C0.205078 16.8327 5.04033 17.5975 10.9085 17.5727C16.6727 17.5484 21.2712 16.7689 21.2712 15.8314C21.2712 14.8939 16.6727 14.1286 10.9085 14.1223C5.04033 14.1158 0.205078 14.8956 0.205078 15.8642Z" fill="#7D97F4"/>
<path d="M39.5428 6.02597C39.4631 6.02403 39.3989 5.9596 39.3975 5.8797C39.3825 5.0606 39.1277 0.993267 35.5538 0.143234C31.575 -0.802964 29.7543 3.25245 29.7543 3.25245C29.7543 3.25245 24.8315 1.35989 23.8874 6.42916C20.8008 7.17158 19.9988 11.212 22.0064 13.1862C22.3255 13.4999 22.753 13.6772 23.1999 13.6812L42.5308 13.8559C43.0981 13.861 43.6013 13.4888 43.7623 12.9435C44.3661 10.9008 45.1577 6.15773 39.5428 6.02597Z" fill="#7D97F4"/>
<path d="M39.1005 6.1128C39.021 6.11087 38.9568 6.04659 38.9552 5.96686C38.9393 5.18126 38.687 1.40967 35.321 0.619082C31.5588 -0.264617 29.8371 3.52259 29.8371 3.52259C29.8371 3.52259 25.1822 1.7552 24.2896 6.48925C21.3988 7.17594 20.6274 10.8836 22.4571 12.7459C22.7779 13.0724 23.2147 13.2579 23.6718 13.262L41.8691 13.4242C42.4377 13.4292 42.9416 13.0553 43.1017 12.5084C43.6691 10.5685 44.3427 6.2386 39.1003 6.11296L39.1005 6.1128Z" fill="#91B3FA"/>
<path d="M37.9975 17.2416C38.128 17.0408 38.3144 16.924 38.5018 16.9251C38.6892 16.9262 38.8563 17.0453 38.9543 17.2476C42.5486 24.6645 38.6567 31.3431 37.065 33.5934C36.9228 33.7945 36.7241 33.9 36.5317 33.8771C36.3394 33.8542 36.1767 33.7056 36.0951 33.4781C33.2916 25.6556 36.614 19.3713 37.9973 17.2416H37.9975Z" fill="#BDD0FB"/>
<g opacity="0.56">
<path d="M38.6751 17.9393C38.6691 18.5802 38.6505 19.2194 38.6227 19.8589C38.5974 20.4984 38.5621 21.1373 38.5208 21.7759C38.4372 23.0532 38.3165 24.3278 38.1709 25.5997L38.0525 26.5527C38.0111 26.8702 37.9613 27.1865 37.9162 27.5036L37.8463 27.9787L37.7654 28.4523L37.6846 28.9259C37.6565 29.0836 37.6335 29.2423 37.6 29.3989L37.4118 30.3417L37.3648 30.5773L37.3101 30.8115L37.2013 31.28L37.0928 31.7486L37.0657 31.8657L37.0345 31.9818L36.9715 32.2141L36.7192 33.1434C36.7 33.2141 36.6272 33.2558 36.5567 33.2366C36.4861 33.2175 36.4445 33.1445 36.4636 33.0738C36.464 33.0728 36.4641 33.0719 36.4644 33.0707L36.4657 33.0662C36.8336 31.8475 37.1455 30.6102 37.3959 29.3589C37.4313 29.2033 37.456 29.0456 37.4861 28.889L37.5727 28.4183L37.6593 27.9477L37.7349 27.4749C37.7839 27.1595 37.8376 26.8447 37.8827 26.5287L38.0129 25.5797C38.1764 24.313 38.3014 23.0411 38.3969 21.7669C38.4906 20.4929 38.5569 19.2152 38.5733 17.9386V17.9378C38.5736 17.9098 38.5966 17.8873 38.6248 17.8876C38.6527 17.8879 38.6752 17.9108 38.6749 17.939L38.6751 17.9393Z" fill="white"/>
<path d="M38.5388 21.8093C38.5237 21.8292 38.4965 21.8371 38.4724 21.8267C37.8053 21.5395 37.097 20.0807 37.0671 20.0187C37.0536 19.9908 37.0654 19.9575 37.093 19.9441C37.1208 19.9307 37.1541 19.9423 37.1674 19.97C37.1745 19.9848 37.8873 21.4531 38.5163 21.7239C38.5446 21.736 38.5576 21.7688 38.5455 21.7973C38.5438 21.8017 38.5414 21.8056 38.5386 21.8093H38.5388Z" fill="white"/>
<path d="M39.6537 20.7566C39.2023 21.3512 38.5574 21.7998 38.526 21.8215C38.5006 21.8391 38.4659 21.8327 38.4484 21.8072C38.4309 21.7818 38.4371 21.7471 38.4627 21.7294C38.4712 21.7234 39.3306 21.1254 39.7481 20.4179C39.764 20.3902 39.7981 20.3824 39.8244 20.3982C39.8509 20.414 39.8598 20.4482 39.844 20.4747C39.787 20.5714 39.7225 20.6658 39.6534 20.7566H39.6537Z" fill="white"/>
<path d="M38.1819 25.2611C38.1644 25.2842 38.1321 25.2901 38.1074 25.2742C37.1281 24.6424 36.586 23.2982 36.5635 23.2411C36.5521 23.2125 36.5661 23.1799 36.5947 23.1687C36.6233 23.1572 36.6558 23.1712 36.6672 23.1999C36.6725 23.2136 37.2189 24.5681 38.1678 25.1803C38.1937 25.197 38.2011 25.2315 38.1845 25.2576C38.1837 25.2589 38.1829 25.26 38.1819 25.2611Z" fill="white"/>
<path d="M39.8726 24.0296C39.0962 25.0524 38.218 25.2895 38.178 25.2999C38.1483 25.3077 38.1179 25.2896 38.1102 25.2598C38.1025 25.2299 38.1205 25.1994 38.15 25.1917C38.1603 25.189 39.185 24.9108 39.9772 23.6861C39.9939 23.6608 40.0285 23.6527 40.0543 23.6696C40.0802 23.6864 40.0876 23.721 40.0707 23.7469C40.006 23.8471 39.9396 23.9415 39.8726 24.0296Z" fill="white"/>
<path d="M39.438 28.2608C38.6325 29.3209 37.4339 29.9404 37.4218 29.9465C37.3943 29.9605 37.3609 29.9496 37.3469 29.922C37.3329 29.8945 37.3439 29.8608 37.3712 29.8468C37.3831 29.8408 38.5595 29.2319 39.3492 28.193C39.3679 28.1683 39.4029 28.1637 39.4274 28.1823C39.4518 28.201 39.4566 28.2361 39.438 28.2606V28.2608Z" fill="white"/>
<path d="M37.4406 29.9306C37.4406 29.9306 37.4402 29.9312 37.4398 29.9316C37.4207 29.9557 37.3857 29.9597 37.3614 29.9406C37.3508 29.9322 36.2973 29.0812 35.7991 27.6703C35.7888 27.6413 35.8041 27.6092 35.833 27.5989C35.8621 27.5886 35.8939 27.6039 35.9042 27.6329C36.3915 29.0124 37.4206 29.8447 37.4308 29.8529C37.4546 29.872 37.4588 29.9064 37.4405 29.9306H37.4406Z" fill="white"/>
</g>
<path d="M43.6294 21.3549C43.8703 21.1594 44.147 21.0899 44.3778 21.1663C44.6086 21.2428 44.7674 21.4566 44.8077 21.7452C46.2869 32.3357 38.8232 39.0184 35.9625 41.1581C35.707 41.3491 35.4198 41.4 35.1914 41.2947C34.963 41.1893 34.8216 40.9409 34.8116 40.6275C34.4696 29.853 41.0737 23.429 43.6292 21.3547L43.6294 21.3549Z" fill="#91B3FA"/>
<g opacity="0.56">
<path d="M44.1739 22.4815C44.043 22.876 43.9074 23.2678 43.7685 23.6587L43.5588 24.2446L43.3438 24.8283C43.0574 25.6068 42.7586 26.3808 42.4526 27.1519C41.8393 28.6937 41.1822 30.2177 40.4938 31.7276L39.9668 32.8554C39.7889 33.2302 39.6011 33.6004 39.4188 33.9731L39.1427 34.5311L38.8537 35.0825L38.5646 35.6341C38.4669 35.8172 38.3751 36.0036 38.2713 36.1833L37.6625 37.2702L37.5103 37.5419L37.3494 37.8087L37.028 38.3425L36.7069 38.8766L36.6266 39.0102L36.5417 39.1408L36.3712 39.4018L35.6886 40.4457C35.6456 40.5115 35.5575 40.5298 35.4919 40.4868C35.4263 40.4437 35.408 40.3554 35.4509 40.2897C35.4514 40.2889 35.4521 40.288 35.4525 40.2872L35.4554 40.2831C36.3937 38.924 37.2701 37.5203 38.0767 36.0754C38.1821 35.8974 38.2755 35.7127 38.3746 35.5311L38.6686 34.9844L38.9625 34.4377L39.2436 33.8842C39.4294 33.5144 39.6207 33.1473 39.8021 32.775L40.3399 31.6553C41.0448 30.1566 41.7054 28.6366 42.3298 27.102C42.9519 25.5667 43.5422 24.0165 44.071 22.4474L44.0713 22.4466C44.081 22.418 44.1118 22.4027 44.1403 22.4122C44.1687 22.4219 44.1841 22.4525 44.1745 22.4812L44.1739 22.4815Z" fill="white"/>
<path d="M42.4484 27.2041C42.4298 27.2091 42.4092 27.2049 42.3936 27.1914C41.6883 26.573 41.3964 24.4939 41.3843 24.4056C41.3798 24.3728 41.403 24.343 41.4355 24.3381C41.4682 24.3336 41.4983 24.3567 41.5028 24.3894C41.5057 24.4105 41.8006 26.5121 42.4724 27.101C42.4973 27.1229 42.4997 27.1608 42.478 27.1856C42.47 27.1949 42.4595 27.2011 42.4484 27.2041Z" fill="white"/>
<path d="M42.4492 27.2041C42.4182 27.2125 42.3859 27.1944 42.3765 27.1633C42.3671 27.1316 42.3852 27.0983 42.4167 27.0888C42.4297 27.0849 43.7306 26.6904 44.5301 25.9825C44.555 25.9604 44.5926 25.963 44.6145 25.9878C44.6363 26.0126 44.6341 26.0504 44.6092 26.0723C43.7897 26.798 42.4641 27.1998 42.4508 27.2038C42.4501 27.2038 42.4497 27.2041 42.449 27.2043L42.4492 27.2041Z" fill="white"/>
<path d="M40.6334 31.3204C40.6114 31.3264 40.5869 31.3193 40.5717 31.3005C39.6177 30.1321 39.4809 28.2004 39.4796 28.1811C39.4775 28.1481 39.5023 28.1197 39.5354 28.1173C39.5683 28.1152 39.5969 28.1402 39.599 28.1732C39.6003 28.1922 39.7347 30.0862 40.6642 31.2246C40.6851 31.2502 40.6814 31.2881 40.6559 31.309C40.6491 31.3146 40.6414 31.3183 40.6335 31.3204H40.6334Z" fill="white"/>
<path d="M41.6295 31.221C41.6 31.2289 41.5712 31.2363 41.5432 31.2431C41.0029 31.376 40.6529 31.3565 40.6382 31.3557C40.6053 31.3536 40.5801 31.3253 40.5822 31.2922C40.5841 31.2592 40.6125 31.2342 40.6455 31.236C40.6593 31.2368 42.0394 31.3037 43.5086 30.107C43.5342 30.0861 43.5719 30.0899 43.5927 30.1157C43.6135 30.1413 43.6097 30.1792 43.584 30.1999C42.8413 30.805 42.1252 31.0885 41.6295 31.221Z" fill="white"/>
<path d="M38.4705 36.6465C38.0983 36.746 37.8579 36.7857 37.8514 36.7868C37.8188 36.7919 37.7881 36.7697 37.783 36.737C37.7778 36.7043 37.8003 36.6739 37.8326 36.6684C37.8495 36.6657 39.5466 36.385 40.9376 35.4176C40.9646 35.3986 41.0021 35.4053 41.0209 35.4327C41.0397 35.46 41.0329 35.4973 41.0058 35.5162C40.1156 36.1355 39.1029 36.4777 38.4705 36.6468V36.6465Z" fill="white"/>
<path d="M37.8568 36.7855C37.8327 36.7919 37.8062 36.7827 37.7915 36.7607C37.7819 36.7462 36.8229 35.2774 36.7705 33.3406C36.7697 33.3074 36.7961 33.2798 36.8287 33.279C36.8617 33.2781 36.8893 33.3041 36.8901 33.3373C36.9417 35.24 37.8817 36.68 37.8912 36.6944C37.9095 36.722 37.902 36.7592 37.8745 36.7776C37.869 36.7813 37.8629 36.7838 37.8568 36.7856V36.7855Z" fill="white"/>
</g>
<path d="M23.0597 35.533L22.4795 40.7473H29.2094L28.3329 35.533H23.0597Z" fill="url(#paint29_linear_240_973)"/>
<path d="M11.3486 22.3133V34.602C11.3486 35.6129 12.1524 36.4396 13.1607 36.4655C17.6388 36.5812 33.3012 36.862 37.564 36.799C38.2967 36.7882 38.8902 36.2006 38.9115 35.4663C38.9936 32.6115 39.1271 25.7466 38.6331 22.5596C38.5291 21.8884 37.9639 21.3866 37.2865 21.3649C33.5344 21.2445 16.9312 20.8626 12.6703 20.9584C11.9356 20.975 11.3486 21.5767 11.3486 22.3133Z" fill="url(#paint30_linear_240_973)"/>
<path d="M12.1182 22.2536V33.9285C12.1182 34.5187 12.5908 34.9997 13.1797 35.0084L36.9509 35.3027C37.5346 35.3114 38.0133 34.8407 38.0153 34.2555L38.055 22.6848C38.0566 22.2664 37.724 21.9235 37.3068 21.9134L12.9695 21.4206C12.5028 21.4092 12.1182 21.7853 12.1182 22.2532V22.2536Z" fill="url(#paint31_linear_240_973)"/>
<path d="M38.1945 35.7866H38.1939L12.1177 35.3413C12.0966 35.341 12.0798 35.3234 12.0801 35.3023C12.0804 35.2812 12.0976 35.2645 12.119 35.2646L38.1952 35.7099C38.2162 35.7102 38.2331 35.7278 38.2328 35.7489C38.2325 35.7698 38.2154 35.7866 38.1945 35.7866Z" fill="#BDD0FB"/>
<path d="M30.6584 41.8141H20.8087C20.5411 41.8141 20.3402 41.6232 20.392 41.4181L20.5183 40.9172C20.5562 40.7666 20.7216 40.6559 20.9181 40.6498L30.4136 40.3527C30.6188 40.3463 30.8005 40.4555 30.8453 40.6121L31.0732 41.4101C31.1323 41.6174 30.9305 41.8142 30.6585 41.8142L30.6584 41.8141Z" fill="url(#paint32_linear_240_973)"/>
<path opacity="0.32" d="M26.732 32.0741C28.8746 32.0741 30.6115 30.3332 30.6115 28.1857C30.6115 26.0382 28.8746 24.2974 26.732 24.2974C24.5894 24.2974 22.8525 26.0382 22.8525 28.1857C22.8525 30.3332 24.5894 32.0741 26.732 32.0741Z" fill="white"/>
<path d="M26.696 30.49C26.5262 30.49 26.3682 30.3997 26.2803 30.2511L24.8057 27.7597C24.6677 27.5264 24.7421 27.2239 24.9717 27.0839C25.2014 26.944 25.4994 27.0193 25.6374 27.2524L26.661 28.982L28.014 26.284C28.1355 26.0416 28.4279 25.9451 28.6665 26.0686C28.9054 26.192 29.0004 26.4886 28.8789 26.731L27.1284 30.221C27.0483 30.3806 26.8892 30.4836 26.7129 30.4897C26.7073 30.4899 26.7015 30.49 26.6959 30.49H26.696Z" fill="url(#paint33_linear_240_973)"/>
<path d="M20.545 18.503C20.5394 18.5009 17.5532 13.2591 17.1496 12.7659C17.0818 12.6829 16.9767 12.6407 16.8703 12.6533L16.0368 12.7529L15.0576 14.8761L16.689 13.9238C16.5277 15.0428 18.6232 16.7057 19.3421 17.3125C19.4151 17.374 19.421 17.4843 19.3551 17.5534L19.0682 17.8545C19.5393 18.3331 20.083 18.6404 20.6964 18.7825L20.5452 18.5029L20.545 18.503Z" fill="url(#paint34_linear_240_973)"/>
<path d="M19.2338 17.6921C19.2338 17.6921 19.0505 17.7514 18.9887 17.9149C18.9589 17.9932 18.9909 18.0818 19.0589 18.1304C19.3604 18.3469 20.3551 19.046 20.8142 19.183C20.8518 19.1942 20.8877 19.1601 20.8792 19.1216C20.8555 19.0148 20.7793 18.8014 20.5339 18.4889L20.556 18.5335C20.5838 18.59 20.5224 18.6488 20.4677 18.6179C20.1608 18.4442 19.5354 18.0639 19.2339 17.6921H19.2338Z" fill="url(#paint35_linear_240_973)"/>
<path d="M19.3817 19.7894C19.3767 19.7862 18.9286 18.7042 18.9236 18.701C18.5128 16.1941 17.5105 14.0472 17.2149 13.4822C17.1653 13.3872 17.0708 13.3245 16.9642 13.3154L16.1278 13.2438L14.7402 15.1245L16.5301 14.5228C16.1462 15.586 17.8626 17.6395 18.4441 18.3795C18.503 18.4545 18.4866 18.5637 18.4082 18.6182L18.0664 18.8548C18.431 19.4191 18.9013 19.8303 19.4734 20.0939L19.3818 19.7893L19.3817 19.7894Z" fill="url(#paint36_linear_240_973)"/>
<path d="M18.2621 18.7295C18.2621 18.7295 18.0708 18.7504 17.977 18.898C17.9321 18.9685 17.9456 19.0618 18.0022 19.1233C18.2537 19.3965 19.0867 20.283 19.5086 20.5101C19.5431 20.5288 19.5851 20.5025 19.5846 20.4632C19.5832 20.3538 19.5517 20.1293 19.3742 19.7736L19.3868 19.8218C19.4027 19.8828 19.3307 19.9279 19.2833 19.8865C19.0178 19.6541 18.4821 19.1549 18.2619 18.7297L18.2621 18.7295Z" fill="url(#paint37_linear_240_973)"/>
<path d="M12.2129 12.8479C12.2129 12.8479 11.4563 13.9758 11.3943 14.4903C11.3322 15.0048 11.6035 15.1828 12.3953 15.2484C14.7521 15.4436 15.9137 14.7356 15.9137 14.7356C16.0749 13.7053 16.1896 13.4433 17.536 12.8832C17.536 12.8832 15.833 13.0186 15.4902 12.8854C15.1474 12.7521 12.2128 12.8477 12.2128 12.8477L12.2129 12.8479Z" fill="url(#paint38_linear_240_973)"/>
<path d="M14.8372 6.45038C14.8372 6.45038 14.4392 6.52303 14.3199 6.70118C14.2243 6.84423 13.8312 6.75579 13.7065 7.05476C13.642 7.20908 13.4884 7.30412 13.3227 7.28398C12.91 7.23388 12.2427 7.26884 11.9529 7.93024C11.7318 8.43508 11.9434 8.70924 12.2049 8.85695C12.3968 8.96536 12.4778 9.20473 12.3778 9.40157C12.282 9.59036 12.2772 9.83826 12.5718 10.1181C13.2322 10.745 14.3911 9.58134 14.3911 9.58134L15.2222 7.21552L14.8372 6.45054V6.45038Z" fill="url(#paint39_linear_240_973)"/>
<path d="M14.2588 12.6986C14.2588 12.6986 15.1398 11.8578 15.5736 11.3007C15.8081 10.9997 15.8817 10.6033 15.7732 10.2373C15.5752 9.56863 15.2232 8.87614 15.1913 8.76837C15.1421 8.6031 14.1542 8.61003 14.1542 8.61003C14.1542 8.61003 12.2102 9.87469 11.4463 12.0168L12.3042 12.2845C12.3042 12.2845 12.8117 11.4309 13.3133 10.8882C13.3133 10.8882 12.4455 12.0372 12.4149 12.5077L14.2589 12.6988L14.2588 12.6986Z" fill="url(#paint40_linear_240_973)"/>
<path d="M15.938 13.0304L15.276 12.3084L14.5115 12.5148C14.5115 12.5148 13.6201 12.6532 13.1099 12.5148L12.5998 12.3764L11.4468 12.0167L11.2657 12.5296C11.2197 12.6598 11.2658 12.8044 11.3782 12.8845C11.478 12.9555 11.5948 13.0336 11.6694 13.0663C11.8213 13.1329 15.1669 13.0874 15.1669 13.0874L15.938 13.0307V13.0304Z" fill="url(#paint41_linear_240_973)"/>
<path d="M14.648 7.35712L14.1699 8.6569C14.2138 8.92703 14.8927 8.9346 14.9974 8.77336C15.008 8.75693 15.0142 8.73792 15.0183 8.71875L15.2332 7.70232C15.2502 7.62162 15.212 7.53947 15.1394 7.50081L14.8755 7.36002C14.7739 7.30574 14.6831 7.2471 14.648 7.35712Z" fill="url(#paint42_linear_240_973)"/>
<path d="M15.9788 6.69359C15.9788 6.69359 16.1414 7.08583 15.9349 7.67555C15.7284 8.26527 15.4044 8.31199 15.2017 8.1625C14.9992 8.01302 14.7376 7.74723 14.7123 7.21002C14.6873 6.67265 15.7539 6.1973 15.9786 6.69375L15.9788 6.69359Z" fill="url(#paint43_linear_240_973)"/>
<path d="M15.1123 7.18088C15.1123 7.18088 15.4813 6.38416 16.0098 6.89157L16.048 7.09856C16.048 7.09856 16.5604 6.96036 16.3995 6.49451C16.2386 6.02865 15.7444 5.79492 15.1941 6.08729C14.644 6.37965 14.3424 6.64109 14.3655 7.06345C14.3886 7.48581 14.7062 7.34599 14.7062 7.34599C14.7062 7.34599 14.7715 7.03671 14.9204 6.98371C15.0694 6.93072 15.0628 7.16557 15.0628 7.16557L15.112 7.18088H15.1123Z" fill="url(#paint44_linear_240_973)"/>
<path d="M14.989 7.18891C14.989 7.18891 15.181 6.78041 14.9207 6.76172C14.6603 6.74304 14.7603 7.15589 14.8099 7.30666L14.989 7.18891Z" fill="url(#paint45_linear_240_973)"/>
<path d="M13.7464 13.3162C13.7487 13.3162 13.7511 13.3164 13.7535 13.3162L16.7987 13.3128C16.8739 13.3128 16.935 13.2515 16.9348 13.1761C16.9348 13.1005 16.8734 13.0382 16.7984 13.0396L13.7533 13.043C13.6781 13.043 13.617 13.1044 13.6172 13.1798C13.6172 13.2529 13.6746 13.3125 13.7466 13.3161L13.7464 13.3162Z" fill="url(#paint46_linear_240_973)"/>
<path d="M19.5362 10.5449H17.0002C16.8131 10.5449 16.6427 10.6532 16.563 10.8228L15.3906 13.3144H18.5422C18.6628 13.3144 18.7711 13.2406 18.8154 13.1282L19.7246 10.8225C19.7772 10.6893 19.6791 10.5449 19.5362 10.5449Z" fill="url(#paint47_linear_240_973)"/>
<path d="M17.7491 11.8226C17.6941 11.9937 17.7348 12.1599 17.8397 12.1937C17.9449 12.2276 18.0746 12.1164 18.1294 11.9452C18.1843 11.7741 18.1437 11.6079 18.0387 11.5741C17.9336 11.5402 17.8039 11.6514 17.7489 11.8226H17.7491Z" fill="url(#paint48_linear_240_973)"/>
<path d="M1.65084 43.3844C1.65084 43.5915 1.82007 43.7611 2.02707 43.7611H22.3704C22.5773 43.7611 22.7467 43.5917 22.7467 43.3844L22.9159 31.6668C22.9159 31.4596 22.6724 31.0551 22.226 31.0854L2.34416 30.5698C2.08461 30.563 1.83357 30.6632 1.64971 30.8468C1.46586 31.0305 1.36525 31.2816 1.37136 31.5416L1.65068 43.3842L1.65084 43.3844Z" fill="url(#paint49_linear_240_973)"/>
<path d="M0.0911427 44.7338H23.8936C23.9437 44.7338 23.9844 44.693 23.9844 44.6428V43.7953C23.9844 43.745 23.9437 43.7043 23.8936 43.7043H0.0911427C0.0409927 43.7043 0.000337601 43.745 0.000337601 43.7953V44.6428C0.000337601 44.693 0.0409927 44.7338 0.0911427 44.7338Z" fill="url(#paint50_linear_240_973)"/>
<path d="M2.02168 43.0231C2.02168 43.2193 2.18191 43.3799 2.37766 43.3799H21.8794C22.0751 43.3799 22.2354 43.2193 22.2354 43.0231L22.3951 32.3858C22.3763 31.7457 21.8164 31.5156 21.4769 31.5292L2.42201 31.0168C2.2396 31.0119 2.0633 31.0823 1.93409 31.2115C1.80487 31.3407 1.73384 31.5174 1.7385 31.7002L2.02184 43.0232L2.02168 43.0231Z" fill="url(#paint51_linear_240_973)"/>
<path opacity="0.32" d="M13.7218 40.934C15.0738 39.5789 15.0738 37.3819 13.7218 36.0268C12.3699 34.6718 10.1779 34.6718 8.8259 36.0268C7.47392 37.3819 7.47392 39.5789 8.8259 40.934C10.1779 42.2891 12.3699 42.2891 13.7218 40.934Z" fill="white"/>
<path d="M11.2419 40.5366C11.0903 40.5366 10.9492 40.4561 10.8708 40.3235L9.55502 38.1001C9.43192 37.892 9.49829 37.622 9.7032 37.497C9.90811 37.372 10.1741 37.4393 10.2972 37.6474L11.2105 39.1908L12.418 36.7832C12.5265 36.5669 12.7871 36.4809 13.0003 36.5909C13.2134 36.7011 13.2982 36.9657 13.1897 37.1819L11.6278 40.2963C11.5564 40.4387 11.4143 40.5305 11.2571 40.5361C11.252 40.5363 11.247 40.5365 11.2419 40.5365V40.5366Z" fill="url(#paint52_linear_240_973)"/>
<path d="M31.1404 30.8451C30.7748 30.877 30.4945 31.1838 30.4934 31.5517C30.4869 33.8014 30.4765 41.5611 30.6227 44.3075C30.6382 44.5984 30.8762 44.827 31.1669 44.8302C32.6047 44.8457 36.7405 44.8742 39.0884 44.7238C39.5774 44.6924 39.958 44.2864 39.9573 43.7953C39.9544 41.4341 39.9168 34.794 39.5941 31.7589C39.5554 31.3952 39.2639 31.1113 38.9 31.083C37.3319 30.9606 33.1676 30.6685 31.1402 30.8452L31.1404 30.8451Z" fill="url(#paint53_linear_240_973)"/>
<path d="M31.0711 32.1413C31.0428 34.0657 30.9624 40.4673 31.1027 42.8299C31.1233 43.1753 31.3909 43.4478 31.7213 43.4594C33.0819 43.5069 36.5712 43.5989 38.5594 43.3797C38.9175 43.3402 39.191 43.0292 39.2005 42.6526C39.2502 40.6888 39.3845 34.7263 39.2482 32.3902C39.2265 32.0174 38.9424 31.7201 38.5862 31.6961C37.113 31.5965 33.3298 31.3671 31.639 31.5082C31.3216 31.5347 31.0759 31.8082 31.0709 32.1413H31.0711Z" fill="url(#paint54_linear_240_973)"/>
<path d="M34.3583 31.1797C34.3594 31.2328 34.4017 31.2758 34.4547 31.2774C34.7165 31.2855 35.4541 31.308 35.7837 31.32C35.8486 31.3224 35.8983 31.2628 35.8846 31.199C35.8835 31.1971 35.875 31.1152 35.7917 31.1094C35.5686 31.094 34.8959 31.0519 34.4514 31.0777C34.3601 31.083 34.3551 31.1871 34.358 31.1797H34.3583Z" fill="url(#paint55_linear_240_973)"/>
<path opacity="0.32" d="M36.8448 39.1218C37.7151 38.2495 37.7151 36.8352 36.8448 35.9629C35.9745 35.0905 34.5634 35.0905 33.6931 35.9629C32.8227 36.8352 32.8227 38.2495 33.6931 39.1218C34.5634 39.9942 35.9745 39.9942 36.8448 39.1218Z" fill="white"/>
<path d="M35.2479 38.866C35.1503 38.866 35.0595 38.8142 35.009 38.7288L34.1619 37.2976C34.0827 37.1635 34.1253 36.9897 34.2574 36.9094C34.3893 36.829 34.5605 36.8721 34.6399 37.0062L35.2279 37.9997L36.0053 36.4498C36.0752 36.3106 36.243 36.2552 36.3801 36.3261C36.5173 36.397 36.5718 36.5674 36.5021 36.7065L35.4965 38.7115C35.4505 38.8032 35.3591 38.8623 35.2578 38.8659C35.2546 38.8659 35.2512 38.866 35.248 38.866H35.2479Z" fill="url(#paint56_linear_240_973)"/>
<path d="M34.8197 29.812C34.8185 29.812 34.8174 29.812 34.8165 29.812C34.7265 29.8102 34.6549 29.7357 34.6569 29.6455C34.6586 29.5552 34.7343 29.4818 34.823 29.4828C34.913 29.4845 34.9846 29.5565 34.9828 29.6467V29.6521C34.9809 29.7411 34.9084 29.8122 34.8198 29.8122L34.8197 29.812ZM34.8303 29.3168C34.8291 29.3168 34.8279 29.3168 34.8267 29.3168C34.7367 29.3149 34.6654 29.2402 34.6673 29.1501L34.6778 28.6603C34.6797 28.5714 34.7522 28.5005 34.8406 28.5005C34.8417 28.5005 34.843 28.5005 34.8441 28.5005C34.9341 28.5024 35.0055 28.5772 35.0035 28.6674L34.9931 29.1572C34.9911 29.2461 34.9187 29.317 34.8303 29.317V29.3168ZM34.8513 28.3371C34.8502 28.3371 34.8489 28.3371 34.8478 28.3371C34.7578 28.3352 34.6864 28.2605 34.6884 28.1704L34.6988 27.6806C34.7007 27.5916 34.7732 27.5208 34.8616 27.5208C34.8627 27.5208 34.864 27.5208 34.8651 27.5208C34.9551 27.5227 35.0265 27.5974 35.0246 27.6875L35.0141 28.1773C35.0122 28.2663 34.9397 28.3371 34.8513 28.3371ZM34.8724 27.3574C34.8713 27.3574 34.87 27.3574 34.8688 27.3574C34.7788 27.3555 34.7075 27.2808 34.7094 27.1907L34.7199 26.7009C34.7218 26.6119 34.7943 26.5411 34.8827 26.5411C34.8838 26.5411 34.8851 26.5411 34.8862 26.5411C34.9762 26.543 35.0476 26.6177 35.0456 26.7078L35.0352 27.1976C35.0333 27.2866 34.9608 27.3574 34.8724 27.3574ZM34.8934 26.3777C34.8923 26.3777 34.891 26.3777 34.8899 26.3777C34.7999 26.3758 34.7285 26.3011 34.7305 26.2109L34.7409 25.721C34.7428 25.6321 34.8153 25.5612 34.9037 25.5612C34.9048 25.5612 34.9061 25.5612 34.9073 25.5612C34.9973 25.5631 35.0686 25.6379 35.0667 25.7279L35.0562 26.2178C35.0543 26.3067 34.9818 26.3776 34.8934 26.3776V26.3777ZM34.9145 25.398C34.9134 25.398 34.9121 25.398 34.911 25.398C34.821 25.3961 34.7496 25.3214 34.7515 25.2311L34.7621 24.7413C34.7641 24.6511 34.837 24.5792 34.9285 24.5815C35.0185 24.5834 35.0898 24.6582 35.0879 24.7484L35.0773 25.2382C35.0754 25.3272 35.0029 25.398 34.9145 25.398ZM34.9355 24.4183C34.9344 24.4183 34.9331 24.4183 34.932 24.4183C34.842 24.4164 34.7706 24.3416 34.7726 24.2516L34.783 23.7618C34.785 23.6728 34.8574 23.602 34.9458 23.602C34.9469 23.602 34.9482 23.602 34.9494 23.602C35.0394 23.6039 35.1107 23.6786 35.1088 23.7688L35.0983 24.2587C35.0964 24.3476 35.0239 24.4185 34.9355 24.4185V24.4183ZM34.9566 23.4386C34.9555 23.4386 34.9542 23.4386 34.9531 23.4386C34.8631 23.4367 34.7917 23.3619 34.7936 23.2719L34.8041 22.782C34.806 22.6931 34.8785 22.6223 34.9669 22.6223C34.968 22.6223 34.9693 22.6223 34.9704 22.6223C35.0604 22.6242 35.1318 22.6989 35.1298 22.789L35.1194 23.2788C35.1175 23.3677 35.045 23.4386 34.9566 23.4386ZM34.9776 22.4589C34.9765 22.4589 34.9752 22.4589 34.9741 22.4589C34.8841 22.457 34.8128 22.3822 34.8147 22.292L34.8253 21.8022C34.8272 21.712 34.9023 21.6401 34.9916 21.6424C35.0816 21.6443 35.153 21.7191 35.1511 21.8093L35.1405 22.2991C35.1385 22.388 35.066 22.4589 34.9776 22.4589ZM34.9987 21.4792C34.9976 21.4792 34.9963 21.4792 34.9952 21.4792C34.9052 21.4773 34.8338 21.4025 34.8357 21.3125L34.8462 20.8226C34.8481 20.7337 34.9206 20.6628 35.009 20.6628C35.0101 20.6628 35.0114 20.6628 35.0125 20.6628C35.1025 20.6648 35.1739 20.7395 35.172 20.8296L35.1615 21.3194C35.1596 21.4083 35.0871 21.4792 34.9987 21.4792ZM35.0198 20.4995C35.0186 20.4995 35.0173 20.4995 35.0162 20.4995C34.9262 20.4976 34.8549 20.4228 34.8568 20.3328L34.8672 19.8429C34.8692 19.754 34.9416 19.6831 35.03 19.6831C35.0312 19.6831 35.0325 19.6831 35.0336 19.6831C35.1236 19.6851 35.1949 19.7598 35.193 19.85L35.1826 20.3399C35.1806 20.4288 35.1081 20.4997 35.0198 20.4997V20.4995ZM34.8714 19.6804C34.8695 19.6804 34.8676 19.6804 34.8656 19.6804L34.3771 19.6635C34.2872 19.6604 34.2167 19.5849 34.2199 19.4947C34.2229 19.4045 34.3001 19.3339 34.3883 19.3371L34.8769 19.3541C34.9667 19.3571 35.0373 19.4327 35.0341 19.5229C35.031 19.6111 34.9587 19.6806 34.8713 19.6806L34.8714 19.6804ZM33.8943 19.6466C33.8923 19.6466 33.8904 19.6466 33.8885 19.6466L33.3999 19.6297C33.3101 19.6266 33.2395 19.5511 33.2427 19.4609C33.2458 19.3706 33.3223 19.3003 33.4112 19.3033L33.8997 19.3202C33.9896 19.3233 34.0601 19.3988 34.0569 19.489C34.0539 19.5773 33.9815 19.6467 33.8941 19.6467L33.8943 19.6466ZM32.9171 19.6128C32.9152 19.6128 32.9133 19.6128 32.9113 19.6128L32.4228 19.5958C32.3328 19.5928 32.2624 19.5171 32.2656 19.427C32.2686 19.3368 32.3447 19.2655 32.434 19.2695L32.9226 19.2864C33.0126 19.2895 33.083 19.3652 33.0798 19.4552C33.0767 19.5435 33.0044 19.6129 32.917 19.6129L32.9171 19.6128ZM31.94 19.5789C31.9381 19.5789 31.9361 19.5789 31.9342 19.5789L31.881 19.5772C31.792 19.5741 31.7219 19.4998 31.7237 19.4106L31.7325 18.9741C31.7343 18.885 31.8069 18.8141 31.8953 18.8141C31.8964 18.8141 31.8976 18.8141 31.8987 18.8141C31.9887 18.816 32.06 18.8906 32.0583 18.9808L32.0518 19.2974C32.0845 19.3284 32.1042 19.3727 32.1025 19.4214C32.0994 19.5097 32.0271 19.5791 31.9397 19.5791L31.94 19.5789ZM31.9056 18.6508C31.9045 18.6508 31.9033 18.6508 31.9022 18.6508C31.8122 18.649 31.7409 18.5743 31.7426 18.4842L31.7526 17.9944C31.7544 17.9053 31.827 17.8344 31.9154 17.8344C31.9165 17.8344 31.9176 17.8344 31.9188 17.8344C32.0088 17.8362 32.0801 17.9109 32.0784 18.001L32.0684 18.4908C32.0666 18.5799 31.994 18.6508 31.9056 18.6508ZM31.9255 17.6711C31.9244 17.6711 31.9233 17.6711 31.9221 17.6711C31.8321 17.6693 31.7608 17.5945 31.7626 17.5045L31.7725 17.0147C31.7743 16.9244 31.8463 16.8528 31.9387 16.8547C32.0287 16.8565 32.1001 16.9312 32.0983 17.0213L32.0883 17.5111C32.0866 17.6002 32.0139 17.6711 31.9255 17.6711ZM31.9455 16.6914C31.9443 16.6914 31.9432 16.6914 31.9421 16.6914C31.8521 16.6896 31.7807 16.6148 31.7825 16.5248L31.7924 16.0349C31.7942 15.9459 31.8669 15.875 31.9553 15.875C31.9564 15.875 31.9575 15.875 31.9586 15.875C32.0486 15.8768 32.12 15.9515 32.1182 16.0416L32.1083 16.5314C32.1065 16.6205 32.0338 16.6914 31.9455 16.6914ZM31.9654 15.7117C31.9643 15.7117 31.9631 15.7117 31.962 15.7117C31.872 15.7099 31.8006 15.6351 31.8024 15.5451L31.8124 15.0552C31.8141 14.9662 31.8868 14.8953 31.9752 14.8953C31.9763 14.8953 31.9774 14.8953 31.9786 14.8953C32.0686 14.8971 32.1399 14.9718 32.1381 15.0618L32.1282 15.5517C32.1264 15.6408 32.0538 15.7117 31.9654 15.7117ZM31.9853 14.732C31.9842 14.732 31.9831 14.732 31.9819 14.732C31.8919 14.7302 31.8206 14.6554 31.8223 14.5654L31.8323 14.0755C31.8341 13.9853 31.9059 13.9132 31.9985 13.9156C32.0885 13.9174 32.1598 13.9921 32.1581 14.0821L32.1481 14.572C32.1463 14.6611 32.0737 14.732 31.9853 14.732Z" fill="white"/>
<path d="M21.7187 30.0052C21.7177 30.0052 21.7169 30.0052 21.7159 30.0052C21.6259 30.0037 21.5542 29.9293 21.5557 29.8393L21.5637 29.3494C21.5652 29.2602 21.6378 29.1888 21.7267 29.1888C21.7277 29.1888 21.7285 29.1888 21.7294 29.1888C21.8194 29.1903 21.8911 29.2647 21.8897 29.3547L21.8816 29.8446C21.8802 29.9338 21.8075 30.0052 21.7187 30.0052ZM21.7347 29.0255C21.7338 29.0255 21.733 29.0255 21.732 29.0255C21.642 29.024 21.5703 28.9496 21.5718 28.8595L21.5798 28.3697C21.5812 28.2805 21.6539 28.2091 21.7428 28.2091C21.7437 28.2091 21.7445 28.2091 21.7455 28.2091C21.8355 28.2105 21.9072 28.285 21.9057 28.375L21.8977 28.8649C21.8962 28.9541 21.8236 29.0255 21.7347 29.0255ZM21.7508 28.0458C21.7498 28.0458 21.749 28.0458 21.7481 28.0458C21.6581 28.0443 21.5864 27.9701 21.5878 27.8798L21.5959 27.39C21.5975 27.2998 21.6728 27.2281 21.7614 27.2294C21.8514 27.2308 21.9231 27.3051 21.9216 27.3953L21.9136 27.8852C21.9122 27.9744 21.8395 28.0458 21.7506 28.0458H21.7508ZM21.7669 27.0659C21.7659 27.0659 21.7651 27.0659 21.7641 27.0659C21.6741 27.0644 21.6025 26.9902 21.6039 26.9L21.6119 26.4101C21.6135 26.3199 21.6886 26.2478 21.7775 26.2495C21.8675 26.251 21.9392 26.3252 21.9377 26.4154L21.9297 26.9053C21.9282 26.9945 21.8556 27.0659 21.7667 27.0659H21.7669ZM21.7829 26.0862C21.782 26.0862 21.7812 26.0862 21.7802 26.0862C21.6902 26.0847 21.6185 26.0105 21.62 25.9203L21.628 25.4304C21.6295 25.3402 21.7045 25.2674 21.7935 25.2698C21.8835 25.2713 21.9552 25.3455 21.9538 25.4357L21.9457 25.9256C21.9443 26.0148 21.8716 26.0862 21.7828 26.0862H21.7829ZM21.799 25.1065C21.798 25.1065 21.7972 25.1065 21.7963 25.1065C21.7063 25.105 21.6346 25.0308 21.636 24.9406L21.6441 24.4507C21.6455 24.3605 21.7203 24.2871 21.8096 24.2901C21.8996 24.2916 21.9713 24.3658 21.9698 24.456L21.9618 24.9459C21.9604 25.0351 21.8877 25.1065 21.7988 25.1065H21.799ZM21.8151 24.1268C21.8141 24.1268 21.8133 24.1268 21.8123 24.1268C21.7223 24.1253 21.6507 24.0511 21.6521 23.9609L21.6601 23.471C21.6616 23.3808 21.736 23.3067 21.8257 23.3104C21.9157 23.3119 21.9874 23.3861 21.9859 23.4763L21.9779 23.9662C21.9764 24.0554 21.9038 24.1268 21.8149 24.1268H21.8151ZM21.8312 23.1471C21.8302 23.1471 21.8294 23.1471 21.8284 23.1471C21.7384 23.1456 21.6667 23.0712 21.6682 22.9812L21.6762 22.4913C21.6777 22.4021 21.7503 22.3307 21.8392 22.3307C21.8402 22.3307 21.841 22.3307 21.8419 22.3307C21.9319 22.3322 22.0036 22.4066 22.0022 22.4966L21.9941 22.9865C21.9927 23.0757 21.92 23.1471 21.8312 23.1471ZM21.8472 22.1674C21.8463 22.1674 21.8455 22.1674 21.8445 22.1674C21.7545 22.1659 21.6828 22.0915 21.6843 22.0015L21.6923 21.5116C21.6937 21.4224 21.7664 21.351 21.8553 21.351C21.8562 21.351 21.857 21.351 21.858 21.351C21.948 21.3525 22.0197 21.4269 22.0182 21.5169L22.0102 22.0068C22.0087 22.096 21.9361 22.1674 21.8472 22.1674ZM21.8633 21.1877C21.8623 21.1877 21.8615 21.1877 21.8606 21.1877C21.7706 21.1862 21.6989 21.1118 21.7003 21.0218L21.7084 20.5319C21.7098 20.4427 21.7825 20.3713 21.8713 20.3713C21.8723 20.3713 21.8731 20.3713 21.8741 20.3713C21.9641 20.3728 22.0357 20.4472 22.0343 20.5372L22.0263 21.0271C22.0248 21.1163 21.9522 21.1877 21.8633 21.1877ZM21.8794 20.208C21.8784 20.208 21.8776 20.208 21.8766 20.208C21.7866 20.2065 21.715 20.1321 21.7164 20.0421L21.7244 19.5522C21.7259 19.463 21.7985 19.3916 21.8874 19.3916C21.8884 19.3916 21.8892 19.3916 21.8901 19.3916C21.9801 19.3931 22.0518 19.4675 22.0504 19.5575L22.0423 20.0474C22.0409 20.1366 21.9682 20.208 21.8794 20.208ZM22.0963 19.4304C22.0073 19.4304 21.9346 19.3586 21.9334 19.2692C21.9322 19.179 22.0042 19.105 22.0942 19.1037L22.583 19.0975C22.6712 19.0983 22.7467 19.1685 22.748 19.2587C22.7491 19.3489 22.6771 19.4229 22.5871 19.4241L22.0984 19.4303C22.0984 19.4303 22.097 19.4303 22.0963 19.4303V19.4304ZM23.074 19.418C22.9849 19.418 22.9123 19.3462 22.911 19.2568C22.9099 19.1666 22.9819 19.0925 23.0719 19.0913L23.5606 19.0852C23.6509 19.0846 23.7244 19.1563 23.7257 19.2465C23.7268 19.3367 23.6548 19.4108 23.5648 19.4119L23.076 19.418H23.074ZM24.0516 19.4056C23.9625 19.4056 23.8897 19.3338 23.8886 19.2444C23.8875 19.1542 23.9595 19.0802 24.0495 19.0791L24.1351 19.078L24.1364 18.9913C24.1379 18.9011 24.2107 18.8278 24.302 18.8306C24.392 18.832 24.4636 18.9063 24.4624 18.9965L24.4585 19.2418C24.4571 19.3302 24.3859 19.4014 24.2976 19.4026L24.0537 19.4056H24.0516ZM24.3073 18.6674C24.3063 18.6674 24.3055 18.6674 24.3045 18.6674C24.2145 18.6659 24.1429 18.5917 24.1441 18.5015L24.1519 18.0116C24.1533 17.9214 24.2264 17.847 24.3174 17.8509C24.4074 17.8523 24.4791 17.9266 24.4778 18.0168L24.4701 18.5066C24.4686 18.5959 24.396 18.6674 24.3071 18.6674H24.3073ZM24.3227 17.6877C24.3217 17.6877 24.3209 17.6877 24.32 17.6877C24.23 17.6862 24.1581 17.612 24.1596 17.5218L24.1673 17.0319C24.1687 16.9417 24.2422 16.8687 24.3328 16.8711C24.4228 16.8726 24.4945 16.9469 24.4932 17.0371L24.4855 17.5269C24.4841 17.6162 24.4114 17.6877 24.3225 17.6877H24.3227ZM24.3383 16.7078C24.3373 16.7078 24.3365 16.7078 24.3356 16.7078C24.2456 16.7064 24.1737 16.6321 24.1752 16.5419L24.1829 16.052C24.1843 15.9618 24.2581 15.8877 24.3484 15.8913C24.4384 15.8927 24.5101 15.967 24.5088 16.0572L24.5011 16.547C24.4997 16.6363 24.427 16.7078 24.3381 16.7078H24.3383ZM24.3537 15.7281C24.3528 15.7281 24.352 15.7281 24.3511 15.7281C24.2611 15.7267 24.1895 15.6524 24.1908 15.5622L24.1985 15.0723C24.1999 14.9821 24.274 14.9095 24.364 14.9116C24.454 14.913 24.5258 14.9873 24.5244 15.0775L24.5167 15.5673C24.5152 15.6566 24.4426 15.7281 24.3537 15.7281ZM24.3693 14.7484C24.3683 14.7484 24.3675 14.7484 24.3667 14.7484C24.2767 14.747 24.2051 14.6727 24.2063 14.5825L24.2141 14.0926C24.2155 14.0024 24.2899 13.9285 24.3796 13.9319C24.4696 13.9333 24.5414 14.0076 24.54 14.0978L24.5323 14.5876C24.5308 14.6769 24.4582 14.7484 24.3693 14.7484Z" fill="white"/>
<path d="M27.6864 24.0778H27.6858C27.5958 24.0775 27.5231 24.004 27.5234 23.9138L27.5239 23.7687C27.5242 23.6786 27.597 23.606 27.6869 23.606H27.6875C27.7775 23.6063 27.8502 23.6798 27.8498 23.77L27.8494 23.9151C27.849 24.0052 27.7762 24.0778 27.6864 24.0778ZM27.6888 23.4427H27.6882C27.5982 23.4423 27.5255 23.3689 27.5258 23.2787L27.5276 22.7887C27.5279 22.6986 27.6007 22.626 27.6906 22.626H27.6912C27.7812 22.6263 27.8539 22.6997 27.8535 22.79L27.8518 23.28C27.8515 23.37 27.7787 23.4427 27.6888 23.4427ZM27.6923 22.4628H27.6917C27.6017 22.4625 27.5291 22.389 27.5294 22.2988L27.5312 21.8088C27.5315 21.7188 27.6043 21.6461 27.6941 21.6461H27.6948C27.7848 21.6464 27.8574 21.7199 27.8571 21.8101L27.8553 22.3001C27.855 22.3901 27.7822 22.4628 27.6923 22.4628ZM27.6959 21.4829H27.6952C27.6052 21.4826 27.5326 21.4092 27.5329 21.3189L27.5347 20.8289C27.535 20.7389 27.608 20.6662 27.6977 20.6662H27.6983C27.7883 20.6666 27.8609 20.74 27.8606 20.8302L27.8588 21.3202C27.8585 21.4103 27.7856 21.4829 27.6959 21.4829ZM27.6994 20.5031H27.6988C27.6088 20.5027 27.5361 20.4293 27.5365 20.3391L27.5382 19.8492C27.5385 19.7592 27.6115 19.6865 27.7012 19.6865H27.7018C27.7918 19.6869 27.8645 19.7603 27.8642 19.8505L27.8624 20.3404C27.8621 20.4304 27.7891 20.5031 27.6994 20.5031ZM27.703 19.5232H27.7023C27.6123 19.5229 27.5397 19.4494 27.54 19.3592L27.5418 18.8692C27.5421 18.7792 27.615 18.7065 27.7047 18.7065H27.7054C27.7954 18.7068 27.868 18.7803 27.8677 18.8705L27.8659 19.3605C27.8656 19.4506 27.7926 19.5232 27.703 19.5232ZM27.7065 18.5433H27.7058C27.6158 18.543 27.5432 18.4696 27.5435 18.3794L27.5453 17.8893C27.5456 17.7993 27.6184 17.7266 27.7083 17.7266H27.7089C27.7989 17.727 27.8715 17.8004 27.8712 17.8906L27.8695 18.3806C27.8691 18.4707 27.7963 18.5433 27.7065 18.5433ZM27.71 17.5635H27.7094C27.6194 17.5631 27.5467 17.4897 27.5471 17.3995L27.5488 16.9095C27.5492 16.8193 27.6218 16.749 27.7124 16.7468C27.8024 16.7471 27.8751 16.8206 27.8748 16.9106L27.873 17.4006C27.8727 17.4907 27.7999 17.5633 27.71 17.5633V17.5635ZM27.7136 16.5836H27.7129C27.6229 16.5833 27.5503 16.5098 27.5506 16.4196L27.5524 15.9298C27.5527 15.8397 27.6257 15.7671 27.7153 15.7671H27.716C27.806 15.7674 27.8786 15.8409 27.8783 15.9311L27.8765 16.4209C27.8762 16.511 27.8032 16.5836 27.7136 16.5836ZM27.7171 15.6037H27.7165C27.6265 15.6034 27.5538 15.53 27.5541 15.4398L27.5559 14.9497C27.5562 14.8597 27.6292 14.7871 27.7189 14.7871H27.7195C27.8095 14.7874 27.8822 14.8608 27.8818 14.951L27.8801 15.441C27.8797 15.5311 27.8068 15.6037 27.7171 15.6037ZM27.7206 14.6239H27.72C27.63 14.6236 27.5573 14.5501 27.5577 14.4599L27.5594 13.9699C27.5598 13.8798 27.6327 13.8072 27.7224 13.8072H27.723C27.813 13.8075 27.8857 13.881 27.8854 13.9712L27.8836 14.4612C27.8833 14.5512 27.8103 14.6239 27.7206 14.6239Z" fill="white"/>
</g>
<defs>
<linearGradient id="paint0_linear_240_973" x1="50.0668" y1="58.0572" x2="10.6831" y2="9.25686" gradientUnits="userSpaceOnUse">
<stop stop-color="#DAE3FE"/>
<stop offset="1" stop-color="#E9EFFD"/>
</linearGradient>
<linearGradient id="paint1_linear_240_973" x1="10.8108" y1="0.582551" x2="10.7154" y2="44.6854" gradientUnits="userSpaceOnUse">
<stop stop-color="#4F52FF"/>
<stop offset="1" stop-color="#4042E2"/>
</linearGradient>
<linearGradient id="paint2_linear_240_973" x1="11.3241" y1="14.8417" x2="9.89203" y2="60.4688" gradientUnits="userSpaceOnUse">
<stop stop-color="#4F52FF"/>
<stop offset="1" stop-color="#4042E2"/>
</linearGradient>
<linearGradient id="paint3_linear_240_973" x1="11.4973" y1="34.9571" x2="11.4891" y2="31.2453" gradientUnits="userSpaceOnUse">
<stop stop-color="#4F52FF"/>
<stop offset="1" stop-color="#4042E2"/>
</linearGradient>
<linearGradient id="paint4_linear_240_973" x1="10.8108" y1="0.582372" x2="10.7154" y2="44.6855" gradientUnits="userSpaceOnUse">
<stop stop-color="#4F52FF"/>
<stop offset="1" stop-color="#4042E2"/>
</linearGradient>
<linearGradient id="paint5_linear_240_973" x1="10.8045" y1="0.582356" x2="10.7091" y2="44.6854" gradientUnits="userSpaceOnUse">
<stop stop-color="#4F52FF"/>
<stop offset="1" stop-color="#4042E2"/>
</linearGradient>
<linearGradient id="paint6_linear_240_973" x1="11.232" y1="14.8388" x2="9.79994" y2="60.4658" gradientUnits="userSpaceOnUse">
<stop stop-color="#4F52FF"/>
<stop offset="1" stop-color="#4042E2"/>
</linearGradient>
<linearGradient id="paint7_linear_240_973" x1="11.433" y1="32.005" x2="11.4249" y2="28.2932" gradientUnits="userSpaceOnUse">
<stop stop-color="#4F52FF"/>
<stop offset="1" stop-color="#4042E2"/>
</linearGradient>
<linearGradient id="paint8_linear_240_973" x1="10.8045" y1="0.582352" x2="10.7091" y2="44.6856" gradientUnits="userSpaceOnUse">
<stop stop-color="#4F52FF"/>
<stop offset="1" stop-color="#4042E2"/>
</linearGradient>
<linearGradient id="paint9_linear_240_973" x1="10.7981" y1="0.582371" x2="10.7027" y2="44.6855" gradientUnits="userSpaceOnUse">
<stop stop-color="#4F52FF"/>
<stop offset="1" stop-color="#4042E2"/>
</linearGradient>
<linearGradient id="paint10_linear_240_973" x1="11.1396" y1="14.8359" x2="9.70753" y2="60.463" gradientUnits="userSpaceOnUse">
<stop stop-color="#4F52FF"/>
<stop offset="1" stop-color="#4042E2"/>
</linearGradient>
<linearGradient id="paint11_linear_240_973" x1="11.3686" y1="29.0455" x2="11.3604" y2="25.3337" gradientUnits="userSpaceOnUse">
<stop stop-color="#4F52FF"/>
<stop offset="1" stop-color="#4042E2"/>
</linearGradient>
<linearGradient id="paint12_linear_240_973" x1="10.7981" y1="0.582382" x2="10.7027" y2="44.6855" gradientUnits="userSpaceOnUse">
<stop stop-color="#4F52FF"/>
<stop offset="1" stop-color="#4042E2"/>
</linearGradient>
<linearGradient id="paint13_linear_240_973" x1="10.7917" y1="0.582341" x2="10.6962" y2="44.6853" gradientUnits="userSpaceOnUse">
<stop stop-color="#4F52FF"/>
<stop offset="1" stop-color="#4042E2"/>
</linearGradient>
<linearGradient id="paint14_linear_240_973" x1="11.0472" y1="14.833" x2="9.61512" y2="60.46" gradientUnits="userSpaceOnUse">
<stop stop-color="#4F52FF"/>
<stop offset="1" stop-color="#4042E2"/>
</linearGradient>
<linearGradient id="paint15_linear_240_973" x1="11.3042" y1="26.0861" x2="11.296" y2="22.3744" gradientUnits="userSpaceOnUse">
<stop stop-color="#4F52FF"/>
<stop offset="1" stop-color="#4042E2"/>
</linearGradient>
<linearGradient id="paint16_linear_240_973" x1="10.7916" y1="0.582351" x2="10.6962" y2="44.6854" gradientUnits="userSpaceOnUse">
<stop stop-color="#4F52FF"/>
<stop offset="1" stop-color="#4042E2"/>
</linearGradient>
<linearGradient id="paint17_linear_240_973" x1="10.7854" y1="0.582371" x2="10.69" y2="44.6853" gradientUnits="userSpaceOnUse">
<stop stop-color="#4F52FF"/>
<stop offset="1" stop-color="#4042E2"/>
</linearGradient>
<linearGradient id="paint18_linear_240_973" x1="10.9548" y1="14.8301" x2="9.5227" y2="60.457" gradientUnits="userSpaceOnUse">
<stop stop-color="#4F52FF"/>
<stop offset="1" stop-color="#4042E2"/>
</linearGradient>
<linearGradient id="paint19_linear_240_973" x1="11.2398" y1="23.1268" x2="11.2316" y2="19.4151" gradientUnits="userSpaceOnUse">
<stop stop-color="#4F52FF"/>
<stop offset="1" stop-color="#4042E2"/>
</linearGradient>
<linearGradient id="paint20_linear_240_973" x1="10.7854" y1="0.582383" x2="10.69" y2="44.6855" gradientUnits="userSpaceOnUse">
<stop stop-color="#4F52FF"/>
<stop offset="1" stop-color="#4042E2"/>
</linearGradient>
<linearGradient id="paint21_linear_240_973" x1="10.779" y1="0.582317" x2="10.6835" y2="44.6853" gradientUnits="userSpaceOnUse">
<stop stop-color="#4F52FF"/>
<stop offset="1" stop-color="#4042E2"/>
</linearGradient>
<linearGradient id="paint22_linear_240_973" x1="10.8624" y1="14.8272" x2="9.43029" y2="60.4542" gradientUnits="userSpaceOnUse">
<stop stop-color="#4F52FF"/>
<stop offset="1" stop-color="#4042E2"/>
</linearGradient>
<linearGradient id="paint23_linear_240_973" x1="11.1753" y1="20.1674" x2="11.1672" y2="16.4557" gradientUnits="userSpaceOnUse">
<stop stop-color="#4F52FF"/>
<stop offset="1" stop-color="#4042E2"/>
</linearGradient>
<linearGradient id="paint24_linear_240_973" x1="10.779" y1="0.582324" x2="10.6835" y2="44.6854" gradientUnits="userSpaceOnUse">
<stop stop-color="#4F52FF"/>
<stop offset="1" stop-color="#4042E2"/>
</linearGradient>
<linearGradient id="paint25_linear_240_973" x1="10.7725" y1="0.58235" x2="10.6771" y2="44.6854" gradientUnits="userSpaceOnUse">
<stop stop-color="#4F52FF"/>
<stop offset="1" stop-color="#4042E2"/>
</linearGradient>
<linearGradient id="paint26_linear_240_973" x1="10.77" y1="14.8243" x2="9.33788" y2="60.4513" gradientUnits="userSpaceOnUse">
<stop stop-color="#4F52FF"/>
<stop offset="1" stop-color="#4042E2"/>
</linearGradient>
<linearGradient id="paint27_linear_240_973" x1="11.1109" y1="17.2079" x2="11.1027" y2="13.4963" gradientUnits="userSpaceOnUse">
<stop stop-color="#4F52FF"/>
<stop offset="1" stop-color="#4042E2"/>
</linearGradient>
<linearGradient id="paint28_linear_240_973" x1="10.7725" y1="0.582345" x2="10.6771" y2="44.6854" gradientUnits="userSpaceOnUse">
<stop stop-color="#4F52FF"/>
<stop offset="1" stop-color="#4042E2"/>
</linearGradient>
<linearGradient id="paint29_linear_240_973" x1="27.9473" y1="35.24" x2="32.1977" y2="28.4714" gradientUnits="userSpaceOnUse">
<stop stop-color="#09005D"/>
<stop offset="1" stop-color="#1A0F91"/>
</linearGradient>
<linearGradient id="paint30_linear_240_973" x1="25.8475" y1="19.8858" x2="24.7017" y2="34.175" gradientUnits="userSpaceOnUse">
<stop stop-color="#09005D"/>
<stop offset="1" stop-color="#1A0F91"/>
</linearGradient>
<linearGradient id="paint31_linear_240_973" x1="24.431" y1="22.9791" x2="26.3515" y2="38.5374" gradientUnits="userSpaceOnUse">
<stop stop-color="#FF928E"/>
<stop offset="1" stop-color="#FE7062"/>
</linearGradient>
<linearGradient id="paint32_linear_240_973" x1="28.1164" y1="30.6031" x2="27.38" y2="33.9501" gradientUnits="userSpaceOnUse">
<stop stop-color="#09005D"/>
<stop offset="1" stop-color="#1A0F91"/>
</linearGradient>
<linearGradient id="paint33_linear_240_973" x1="28.9274" y1="20.9454" x2="31.1361" y2="14.5793" gradientUnits="userSpaceOnUse">
<stop stop-color="#E1473D"/>
<stop offset="1" stop-color="#E9605A"/>
</linearGradient>
<linearGradient id="paint34_linear_240_973" x1="21.2609" y1="14.1121" x2="16.5475" y2="16.7962" gradientUnits="userSpaceOnUse">
<stop stop-color="#FEBBBA"/>
<stop offset="1" stop-color="#FF928E"/>
</linearGradient>
<linearGradient id="paint35_linear_240_973" x1="20.6455" y1="16.8041" x2="18.5164" y2="21.9452" gradientUnits="userSpaceOnUse">
<stop stop-color="#09005D"/>
<stop offset="1" stop-color="#1A0F91"/>
</linearGradient>
<linearGradient id="paint36_linear_240_973" x1="20.8051" y1="14.7838" x2="36.9347" y2="4.70938" gradientUnits="userSpaceOnUse">
<stop stop-color="#FEBBBA"/>
<stop offset="1" stop-color="#FF928E"/>
</linearGradient>
<linearGradient id="paint37_linear_240_973" x1="19.8262" y1="18.1479" x2="16.7007" y2="22.7487" gradientUnits="userSpaceOnUse">
<stop stop-color="#09005D"/>
<stop offset="1" stop-color="#1A0F91"/>
</linearGradient>
<linearGradient id="paint38_linear_240_973" x1="13.8548" y1="15.0628" x2="18.5207" y2="4.16264" gradientUnits="userSpaceOnUse">
<stop stop-color="#E1473D"/>
<stop offset="1" stop-color="#E9605A"/>
</linearGradient>
<linearGradient id="paint39_linear_240_973" x1="15.8518" y1="5.21122" x2="14.0782" y2="7.52955" gradientUnits="userSpaceOnUse">
<stop stop-color="#09005D"/>
<stop offset="1" stop-color="#1A0F91"/>
</linearGradient>
<linearGradient id="paint40_linear_240_973" x1="24.1953" y1="-3.82409" x2="20.763" y2="1.06785" gradientUnits="userSpaceOnUse">
<stop stop-color="#FF928E"/>
<stop offset="1" stop-color="#FE7062"/>
</linearGradient>
<linearGradient id="paint41_linear_240_973" x1="13.0147" y1="12.5594" x2="8.32477" y2="12.5594" gradientUnits="userSpaceOnUse">
<stop stop-color="#FEBBBA"/>
<stop offset="1" stop-color="#FF928E"/>
</linearGradient>
<linearGradient id="paint42_linear_240_973" x1="14.8475" y1="10.3541" x2="14.7356" y2="8.61497" gradientUnits="userSpaceOnUse">
<stop stop-color="#FEBBBA"/>
<stop offset="1" stop-color="#FF928E"/>
</linearGradient>
<linearGradient id="paint43_linear_240_973" x1="14.9704" y1="8.71045" x2="16.1313" y2="4.44992" gradientUnits="userSpaceOnUse">
<stop stop-color="#FEBBBA"/>
<stop offset="1" stop-color="#FF928E"/>
</linearGradient>
<linearGradient id="paint44_linear_240_973" x1="16.9861" y1="5.99421" x2="14.3158" y2="7.16505" gradientUnits="userSpaceOnUse">
<stop stop-color="#09005D"/>
<stop offset="1" stop-color="#1A0F91"/>
</linearGradient>
<linearGradient id="paint45_linear_240_973" x1="14.4614" y1="8.57181" x2="15.6222" y2="4.3114" gradientUnits="userSpaceOnUse">
<stop stop-color="#FEBBBA"/>
<stop offset="1" stop-color="#FF928E"/>
</linearGradient>
<linearGradient id="paint46_linear_240_973" x1="-2.88047" y1="23.2054" x2="-9.14306" y2="26.6493" gradientUnits="userSpaceOnUse">
<stop stop-color="#09005D"/>
<stop offset="1" stop-color="#1A0F91"/>
</linearGradient>
<linearGradient id="paint47_linear_240_973" x1="28.9287" y1="2.95665" x2="24.4398" y2="6.53957" gradientUnits="userSpaceOnUse">
<stop stop-color="#09005D"/>
<stop offset="1" stop-color="#1A0F91"/>
</linearGradient>
<linearGradient id="paint48_linear_240_973" x1="17.6025" y1="11.3758" x2="18.395" y2="12.5663" gradientUnits="userSpaceOnUse">
<stop stop-color="#4F52FF"/>
<stop offset="1" stop-color="#4042E2"/>
</linearGradient>
<linearGradient id="paint49_linear_240_973" x1="11.4978" y1="39.4029" x2="15.5886" y2="24.9548" gradientUnits="userSpaceOnUse">
<stop stop-color="#09005D"/>
<stop offset="1" stop-color="#1A0F91"/>
</linearGradient>
<linearGradient id="paint50_linear_240_973" x1="15.6754" y1="22.0704" x2="14.4315" y2="29.5168" gradientUnits="userSpaceOnUse">
<stop stop-color="#09005D"/>
<stop offset="1" stop-color="#1A0F91"/>
</linearGradient>
<linearGradient id="paint51_linear_240_973" x1="13.3377" y1="32.6452" x2="8.33273" y2="49.9245" gradientUnits="userSpaceOnUse">
<stop stop-color="#FF928E"/>
<stop offset="1" stop-color="#FE7062"/>
</linearGradient>
<linearGradient id="paint52_linear_240_973" x1="18.3276" y1="17.2679" x2="20.5363" y2="10.9019" gradientUnits="userSpaceOnUse">
<stop stop-color="#E1473D"/>
<stop offset="1" stop-color="#E9605A"/>
</linearGradient>
<linearGradient id="paint53_linear_240_973" x1="30.4553" y1="37.8931" x2="39.8836" y2="37.6878" gradientUnits="userSpaceOnUse">
<stop stop-color="#09005D"/>
<stop offset="1" stop-color="#1A0F91"/>
</linearGradient>
<linearGradient id="paint54_linear_240_973" x1="34.5329" y1="32.704" x2="36.6606" y2="48.8702" gradientUnits="userSpaceOnUse">
<stop stop-color="#FF928E"/>
<stop offset="1" stop-color="#FE7062"/>
</linearGradient>
<linearGradient id="paint55_linear_240_973" x1="34.3578" y1="31.1948" x2="35.8872" y2="31.1948" gradientUnits="userSpaceOnUse">
<stop stop-color="#4F52FF"/>
<stop offset="1" stop-color="#4042E2"/>
</linearGradient>
<linearGradient id="paint56_linear_240_973" x1="39.5521" y1="24.632" x2="41.7606" y2="18.2659" gradientUnits="userSpaceOnUse">
<stop stop-color="#E1473D"/>
<stop offset="1" stop-color="#E9605A"/>
</linearGradient>
<clipPath id="clip0_240_973">
<rect width="45" height="45" fill="white"/>
</clipPath>
</defs>
</svg>
