<svg width="121" height="83" viewBox="0 0 121 83" fill="none" xmlns="http://www.w3.org/2000/svg">
<path d="M8.83959 80.7611C8.83959 80.7611 -6.1077 66.0007 3.40189 48.6347C12.9115 31.2688 25.6829 40.0024 25.0648 19.7898C24.4467 -0.42279 54.4365 -2.15928 63.9839 3.70183C73.5313 9.56293 73.4724 16.6209 93.1799 14.287C112.887 11.9531 116.652 31.4201 111.525 41.3439C104.251 55.4217 131.714 53.1001 114.409 80.7647L8.83959 80.7611Z" fill="#EBF3FA"/>
<g opacity="0.5">
<path d="M65.7471 43.7302L62.8996 80.1854C62.8996 80.1854 62.6011 82.3954 64.1269 82.3991C66.6381 82.4055 76.6269 82.3991 76.6269 82.3991C76.6269 82.3991 74.7367 81.9389 74.7613 80.9039C74.7883 79.684 78.0914 43.3852 78.0914 43.3852L65.7471 43.7302Z" fill="#759BE0"/>
<path d="M77.4374 81.7377C76.943 81.7377 67.403 81.7715 64.9571 81.7377C63.8913 81.7234 63.7047 80.718 63.6959 80.0671C63.6926 79.8856 63.7033 79.7041 63.7278 79.5245L63.8019 78.5766L63.991 76.1616L64.1579 74.0282L64.3719 71.2867L64.5526 68.9726L66.5768 43.0688L78.9196 42.7238C78.9196 42.7238 77.5283 57.9145 76.5444 68.9726C76.4344 70.2041 76.3303 71.386 76.2336 72.4886C76.2022 72.8405 76.1723 73.185 76.1428 73.5199C76.0515 74.5661 75.968 75.5276 75.8973 76.373C75.859 76.8199 75.8237 77.2357 75.7923 77.6161C75.6666 79.1071 75.593 80.0597 75.592 80.2404C75.5911 80.3394 75.5992 80.4383 75.616 80.5357C75.8168 81.6996 77.2519 81.7377 77.4374 81.7377Z" fill="#AEC3FF"/>
<path d="M35.7725 23.8928L42.712 53.8906L43.6619 57.999L46.8943 71.9714H106.942L95.029 23.8928H35.7725Z" fill="#AEC3FF"/>
<path d="M35.7723 23.8928L34.8105 24.2378L45.6157 73.0148L46.8942 71.9714L35.7723 23.8928Z" fill="#759BE0"/>
<path d="M45.6162 73.0148H105.294L106.942 71.9714H46.8946L45.6162 73.0148Z" fill="#759BE0"/>
<path d="M66.573 82.4128H79.4941V81.7519H66.573V82.4128Z" fill="#AEC3FF"/>
<path opacity="0.7" d="M76.2098 73.0148L76.1431 73.5199L63.9912 76.1621L64.1581 74.0282L64.2377 73.0148H76.2098Z" fill="#759BE0"/>
<path d="M77.4368 81.7377C76.9425 81.7377 67.4024 81.7715 64.9566 81.7377C63.8907 81.7234 63.7041 80.718 63.6953 80.0671L75.7922 77.6182C75.6665 79.1092 75.5929 80.0618 75.5919 80.2425C75.591 80.3415 75.5991 80.4404 75.6159 80.5378C75.8162 81.6996 77.2513 81.7377 77.4368 81.7377Z" fill="#94B0ED"/>
<path d="M73.2724 62.2384L46.8945 71.9714L43.6621 57.999L73.2724 62.2384Z" fill="#94B0ED"/>
<path d="M35.7725 23.8928H95.029L104.571 62.5326H44.7145L35.7725 23.8928Z" fill="#D2E0FF"/>
<path d="M104.604 62.5326H104.108L100.045 45.8525L94.8237 24.4105H36.5094L45.3429 62.5326L44.7126 62.5395L35.7725 23.8928L95.2342 23.8373L95.2862 24.0507L100.506 45.6084L104.604 62.5326Z" fill="#94B0ED"/>
<path d="M104.693 62.9045L104.215 62.9737L100.045 45.8525L100.505 45.6084L104.693 62.9045Z" fill="#AEC3FF"/>
</g>
<path d="M21.1267 47.3899C21.0285 47.0729 22.4738 47.8073 24.197 47.186C25.6822 46.6503 24.3443 45.6068 24.7214 44.2833C24.9909 43.3413 24.9055 40.8095 22.6103 40.7081C22.6103 40.7081 22.0585 40.3488 21.2612 40.6336C19.4481 41.2813 15.6777 47.8522 21.1267 47.3899Z" fill="#163560"/>
<path d="M23.6416 52.9475C23.8172 53.3 24.0226 53.6343 24.2553 53.9461C24.732 54.589 27.2348 53.0632 27.0193 52.9475C26.8038 52.8318 25.5465 48.9321 25.2465 48.4429C24.9465 47.9537 23.9268 47.6985 23.9268 47.6985L23.6416 52.9475Z" fill="url(#paint0_linear_141_16)"/>
<path d="M15.1976 79.2423C15.1976 79.2423 14.5069 79.9207 14.6414 80.4047C14.7759 80.8886 15.3999 81.2083 15.4839 81.7974C15.5678 82.3865 15.9051 82.7077 16.2085 82.7077H17.6538C17.6538 82.7077 17.8772 82.2935 17.3382 82.1683C16.7991 82.043 16.5958 81.3509 16.6297 80.7085C16.6636 80.066 16.5806 79.209 16.5806 79.209L15.4348 78.9232L15.1976 79.2423Z" fill="#1F447F"/>
<path d="M21.0434 79.5303C21.0434 79.5303 20.7944 82.4044 21.0978 82.565L24.9788 82.5561C24.9788 82.5561 24.9788 82.0742 24.3553 81.967C23.7318 81.8597 22.637 81.4672 22.4519 80.5933C22.2668 79.7194 21.0434 79.5303 21.0434 79.5303Z" fill="#1C3154"/>
<path d="M18.0573 51.0096C18.0226 51.6526 18.0226 52.2972 18.0573 52.9401C18.0956 53.6381 18.752 54.5727 18.8428 54.8041C19.0765 55.3853 19.3397 55.4783 19.3397 55.4783L21.3776 56.0156L22.0939 56.2042L24.3522 55.4783C24.3522 55.4783 25.3832 52.3875 24.9679 50.6471C24.5525 48.9068 23.9236 47.699 23.9236 47.699C23.9236 47.699 22.388 47.3292 19.6794 47.5342L18.0573 51.0096Z" fill="url(#paint1_linear_141_16)"/>
<path d="M17.8643 52.9644C17.9026 53.6624 18.7529 54.5727 18.8461 54.8041C19.0798 55.3853 19.343 55.4782 19.343 55.4782L21.3809 56.0156L21.7486 54.8812C21.7486 54.8812 18.7715 54.0396 19.2502 51.074L17.8643 52.9644Z" fill="url(#paint2_linear_141_16)"/>
<path d="M24.2125 55.9469C24.2125 55.9469 25.3314 59.6949 25.4031 60.9709C25.4747 62.2468 23.2645 79.097 23.1756 79.685C23.0917 80.2393 22.4525 80.5927 22.4525 80.5927C22.4525 80.5927 22.1579 80.7792 21.7382 80.6519C21.1559 80.4749 20.9718 80.263 20.9718 80.263C20.9718 80.263 20.1009 68.245 20.6399 63.9523C20.9681 61.2977 21.1502 58.6246 21.1853 55.9469H24.2125Z" fill="#233862"/>
<path d="M19.4716 55.8354C19.4716 55.8354 17.7646 58.2996 17.606 59.9655C17.4475 61.6313 17.3566 67.4826 17.0169 69.1057C16.6772 70.7287 15.4326 73.8549 15.4326 78.92C15.4326 78.92 15.5622 79.2106 15.9619 79.3649C16.1144 79.4206 16.2698 79.4668 16.4273 79.5033C16.5875 79.5426 16.7553 79.5228 16.9038 79.447C17.0522 79.3712 17.1726 79.2438 17.2457 79.0854C18.0876 77.2611 20.7697 71.377 20.9071 70.1565C21.0053 69.2922 21.8512 63.5713 23.6986 60.2148C24.1405 59.4091 23.4262 56.2037 23.4262 56.2037L19.4716 55.8354Z" fill="#2A4E96"/>
<path d="M24.3903 55.3684C24.3903 55.3684 23.9411 55.7509 23.049 55.7699C21.9832 55.7932 19.3419 55.4778 19.3419 55.4778C19.2693 55.7117 19.2313 55.9565 19.2295 56.2032C19.2295 56.2032 22.455 57.0786 24.324 56.331C24.324 56.331 24.5651 55.8429 24.3903 55.3684Z" fill="#233862"/>
<path d="M22.8193 56.1661C22.8193 55.8396 23.0373 55.5739 23.3059 55.5739C23.5744 55.5739 23.7919 55.838 23.7919 56.1661C23.7919 56.4942 23.5739 56.7584 23.3059 56.7584C23.0378 56.7584 22.8193 56.4926 22.8193 56.1661ZM22.9804 56.1661C22.9804 56.397 23.1276 56.5851 23.3059 56.5851C23.4841 56.5851 23.6309 56.397 23.6309 56.1661C23.6309 55.9352 23.4836 55.7471 23.3059 55.7471C23.1281 55.7471 22.9794 55.9352 22.9794 56.1661H22.9804Z" fill="white"/>
<path d="M20.9746 57.8357L25.8227 57.8848L28.2082 51.8517L23.3601 51.8026L20.9746 57.8357Z" fill="#6980E2"/>
<path d="M21.6094 55.1095L21.9643 54.6398C21.9643 54.6398 22.2049 54.4089 22.3797 54.3698C22.5544 54.3307 22.9227 54.1014 22.958 54.1664C22.9933 54.2314 22.6752 54.6905 22.6752 54.6905H22.659C23.0248 54.9869 23.9492 54.7254 24.0631 54.8464C24.2011 54.9927 23.8726 55.3092 23.6964 55.4873C23.5201 55.6653 23.0164 55.9628 22.6232 55.8296C22.336 55.7335 21.8838 55.6357 21.8838 55.6357L21.6094 55.1095Z" fill="#FFB27D"/>
<path d="M27.8441 52.9116C27.8441 52.9116 27.5397 52.5418 27.3457 52.7182C27.1518 52.8947 27.3948 53.7749 27.5809 53.6867C27.767 53.5984 27.9501 53.022 27.8441 52.9116Z" fill="#FFB27D"/>
<path d="M19.6829 47.5337C19.6829 47.5337 18.295 47.6985 17.2994 49.647C16.5139 51.1829 15.1711 54.0137 15.6793 54.8131C15.9017 55.1644 18.0358 56.4134 22.146 55.6997C22.146 55.6997 22.0812 55.1407 21.7493 54.8818C21.7493 54.8818 18.2886 53.6862 18.2945 53.4479C18.3058 52.9983 18.7624 52.6094 20.6952 50.5283C21.2196 49.9619 19.6829 47.5337 19.6829 47.5337Z" fill="url(#paint3_linear_141_16)"/>
<path d="M20.7518 47.6129C20.7027 47.5437 20.7651 47.3245 20.8417 46.9161C20.9104 46.5462 21.0277 45.9735 21.0253 45.3311L21.1274 45.3495L22.8457 45.6607C22.8457 45.6607 22.8064 46.1558 22.8054 46.6218V46.6334C22.803 47.0386 22.9066 47.6504 22.7799 47.7302C22.1299 48.1397 20.9349 47.8776 20.7518 47.6129Z" fill="#FFB27D"/>
<path d="M22.8472 45.6591C22.8472 45.6591 22.8129 46.357 22.8119 46.8214C21.8491 46.7966 21.3356 45.7912 21.127 45.3463L22.8472 45.6591Z" fill="#E8945B"/>
<path d="M22.9507 46.4913C22.9507 46.4913 20.6958 46.1457 20.9177 44.6379C21.1396 43.13 20.9972 42.0701 22.4465 42.2271C23.8958 42.384 24.0897 43.0069 24.1295 43.5294C24.1692 44.0519 23.5433 46.5425 22.9507 46.4913Z" fill="#FFB27D"/>
<path d="M23.4759 42.3655C23.4759 42.3655 22.5986 44.0287 21.6148 44.128C20.6309 44.2273 20.2617 43.885 20.2617 43.885C20.7939 43.5244 21.193 42.9761 21.3909 42.3338C21.3909 42.3338 23.1362 41.4467 23.4759 42.3655Z" fill="#163560"/>
<path d="M23.3027 42.4833C23.3027 42.4833 23.7323 42.7475 23.8673 43.1358C24.0319 43.5934 24.0661 44.0933 23.9655 44.5719C23.9655 44.5719 24.6077 43.4491 24.1869 42.6799C23.7411 41.8636 23.3027 42.4833 23.3027 42.4833Z" fill="#163560"/>
<path d="M3.56899 64.2206L4.79635 64.0721C4.84642 64.0666 4.89695 64.076 4.94235 64.0994C4.98776 64.1228 5.02626 64.1593 5.05361 64.2047C5.1243 64.3231 5.20089 64.4388 5.2814 64.5529C5.42872 64.76 5.5909 64.9543 5.76646 65.1341C5.80573 65.1737 5.83308 65.2251 5.84498 65.2816C5.85688 65.3381 5.85278 65.3971 5.83323 65.4511L5.36339 66.7418C5.33869 66.8086 5.33838 66.883 5.36251 66.95C5.38664 67.017 5.43343 67.0717 5.49349 67.1032L6.54902 67.6653C6.60665 67.6958 6.67267 67.7025 6.73457 67.6841C6.79647 67.6657 6.84993 67.6235 6.88483 67.5655L7.52306 66.4893C7.55316 66.4372 7.59818 66.3971 7.65131 66.375C7.70444 66.3529 7.76281 66.35 7.81762 66.3667C8.30485 66.5042 8.80926 66.5577 9.31206 66.5252C9.37172 66.5219 9.43071 66.54 9.47983 66.5766C9.52894 66.6132 9.56541 66.6663 9.58355 66.7275L9.79957 67.4672C9.82014 67.5355 9.86315 67.5934 9.92053 67.6301C9.97791 67.6668 10.0457 67.6797 10.1113 67.6664L11.2572 67.417C11.2802 67.4125 11.3025 67.4045 11.3235 67.3932C11.3729 67.3676 11.4137 67.3259 11.4401 67.2741C11.4665 67.2223 11.4772 67.1629 11.4707 67.1043L11.3686 66.1194L11.3431 65.8796C11.5368 65.7622 11.7225 65.6301 11.8988 65.4844C12.1347 65.2901 12.3531 65.0726 12.5513 64.8345C12.5871 64.7907 12.6347 64.7599 12.6874 64.7463C12.7401 64.7327 12.7955 64.7369 12.8459 64.7584L13.8116 65.1668C13.8751 65.1937 13.9457 65.194 14.0094 65.1674C14.073 65.1409 14.1251 65.0896 14.1552 65.0237L14.5553 64.1556L14.6692 63.9062C14.6996 63.8407 14.7064 63.7653 14.6882 63.6947C14.6701 63.6241 14.6284 63.5632 14.5711 63.5237L13.7364 62.9494C13.689 62.9182 13.652 62.8715 13.6308 62.8161C13.6096 62.7607 13.6053 62.6996 13.6186 62.6414C13.6968 62.2875 13.7395 61.9257 13.7458 61.562C13.7482 61.5316 13.7492 61.5011 13.7487 61.4706C13.7477 61.4604 13.7477 61.4501 13.7487 61.44C13.754 61.3831 13.7748 61.3293 13.8086 61.2852C13.8423 61.2411 13.8874 61.2087 13.9382 61.1922L15.0556 60.8118C15.0681 60.8079 15.0803 60.8027 15.0919 60.7964C15.1451 60.7679 15.1882 60.7216 15.2148 60.6644C15.2414 60.6072 15.2499 60.5423 15.2392 60.4794L15.01 59.2495C14.9964 59.1783 14.9588 59.115 14.9044 59.0719C14.8499 59.0289 14.7826 59.0091 14.7154 59.0165L13.4389 59.1723C13.3861 59.179 13.3326 59.1684 13.2855 59.1418C13.2383 59.1152 13.1998 59.0739 13.1748 59.0234C13.0573 58.7931 12.9235 58.5728 12.7747 58.3645C12.6948 58.2522 12.6112 58.1444 12.5238 58.0412C12.4893 57.9999 12.4661 57.9492 12.4569 57.8946C12.4476 57.8401 12.4526 57.7838 12.4713 57.7321L12.9225 56.4916C12.9467 56.4252 12.9469 56.3515 12.9231 56.285C12.8993 56.2185 12.8532 56.164 12.7938 56.1323L11.7491 55.5775C11.688 55.5448 11.6179 55.5375 11.5521 55.557C11.4863 55.5765 11.4296 55.6214 11.3927 55.6832L10.8875 56.5344C10.8549 56.5895 10.8061 56.6313 10.7489 56.6531C10.6917 56.6749 10.6294 56.6755 10.5718 56.6548C10.1076 56.4823 9.62137 56.3884 9.13041 56.3764C9.07341 56.3755 9.01812 56.3552 8.97245 56.3185C8.92678 56.2818 8.89306 56.2305 8.8761 56.1719L8.55797 55.0883C8.53701 55.0182 8.49292 54.9588 8.43403 54.9213C8.37514 54.8839 8.30553 54.8709 8.23836 54.8849L7.09986 55.1306C7.03366 55.1446 6.97487 55.1851 6.93533 55.2439C6.89578 55.3027 6.87844 55.3755 6.88679 55.4476L6.89219 55.5052L7.011 56.649C7.01729 56.7085 7.00657 56.7687 6.98025 56.8215C6.95393 56.8742 6.91328 56.9171 6.86372 56.9443V56.9443C6.61522 57.0824 6.37863 57.244 6.15676 57.4272C6.03648 57.5266 5.92307 57.6317 5.8131 57.7406C5.77631 57.7782 5.7303 57.8038 5.68046 57.8143C5.63062 57.8248 5.57904 57.8197 5.53179 57.7997L4.5499 57.3855C4.48542 57.3582 4.41379 57.3579 4.3491 57.3846C4.28441 57.4113 4.23135 57.4631 4.20034 57.5297L3.68682 58.6493C3.67309 58.6803 3.66414 58.7135 3.6603 58.7476C3.65527 58.8016 3.6641 58.856 3.68583 58.905C3.70755 58.954 3.74135 58.9957 3.78353 59.0255L4.45171 59.4825C4.49146 59.5103 4.52384 59.5487 4.54569 59.594C4.56755 59.6392 4.57813 59.6898 4.57641 59.7408C4.57541 59.7682 4.57078 59.7952 4.56266 59.8211C4.35977 60.4632 4.27799 61.1423 4.3221 61.8188C4.32589 61.8746 4.31438 61.9304 4.28898 61.9792C4.26359 62.0281 4.22542 62.0678 4.17923 62.0935C4.16551 62.1011 4.15122 62.1075 4.13652 62.1125L3.23171 62.42C3.16832 62.4417 3.11455 62.4877 3.08068 62.5493C3.04681 62.6109 3.03521 62.6837 3.0481 62.7539L3.05301 62.7825L3.2759 63.9818C3.28894 64.0534 3.32604 64.1173 3.3801 64.1614C3.43416 64.2054 3.5014 64.2265 3.56899 64.2206V64.2206ZM11.4054 60.4773C11.4785 60.6743 11.5342 60.8783 11.5719 61.0865C11.6465 61.5007 11.5689 62.1543 11.3946 62.5331C11.3765 62.5738 11.3573 62.6134 11.3377 62.653C10.1393 65.0474 6.99775 64.5714 6.48029 61.8695C6.41303 61.5166 6.45525 61.002 6.57259 60.6078C6.59827 60.5231 6.62994 60.4406 6.66734 60.3611C6.81474 60.0387 7.01234 59.7458 7.25156 59.4952C8.54078 58.1595 10.6965 58.5965 11.4054 60.4773Z" fill="#D5DFFC"/>
<path d="M31.3129 17.1432L32.3438 17.018C32.386 17.0135 32.4284 17.0214 32.4666 17.0411C32.5048 17.0608 32.5372 17.0913 32.5604 17.1295C32.6198 17.2294 32.6841 17.3271 32.7523 17.4227C32.8761 17.5975 33.0125 17.7614 33.1603 17.913C33.1936 17.9466 33.2168 17.9902 33.2268 18.0382C33.2368 18.0862 33.2331 18.1363 33.2163 18.182L32.8235 19.2682C32.8025 19.3246 32.8022 19.3874 32.8225 19.4441C32.8428 19.5007 32.8823 19.547 32.933 19.5736L33.8216 20.0491C33.8701 20.0747 33.9256 20.0802 33.9777 20.0646C34.0297 20.049 34.0746 20.0134 34.1039 19.9646L34.641 19.059C34.6662 19.0158 34.7037 18.9825 34.7479 18.9639C34.7921 18.9454 34.8407 18.9426 34.8864 18.956C35.2965 19.0721 35.721 19.1176 36.1442 19.0907C36.1944 19.0881 36.244 19.1035 36.2853 19.1343C36.3266 19.1652 36.3572 19.2098 36.3725 19.2613L36.5547 19.8848C36.572 19.9422 36.6081 19.9909 36.6564 20.0218C36.7047 20.0526 36.7617 20.0634 36.8168 20.0523L37.7816 19.8409C37.8008 19.837 37.8195 19.8303 37.837 19.8209C37.8786 19.7992 37.9128 19.7642 37.935 19.7206C37.9572 19.6771 37.9662 19.6271 37.9607 19.5778L37.8748 18.7489L37.8532 18.547C38.0164 18.4483 38.1727 18.337 38.3211 18.2142C38.5196 18.0508 38.7033 17.8677 38.87 17.6674C38.8999 17.631 38.9395 17.6054 38.9834 17.5939C39.0273 17.5825 39.0734 17.5858 39.1154 17.6034L39.9284 17.9468C39.9819 17.9695 40.0413 17.9697 40.0949 17.9474C40.1485 17.9251 40.1923 17.8819 40.2176 17.8264L40.5539 17.0957L40.6521 16.8844C40.6776 16.8292 40.6833 16.7659 40.6681 16.7065C40.6529 16.6471 40.6178 16.5959 40.5696 16.5626L39.8666 16.0787C39.8269 16.0523 39.7959 16.013 39.7783 15.9664C39.7606 15.9199 39.7572 15.8685 39.7684 15.8198C39.8343 15.5219 39.8702 15.2172 39.8754 14.911C39.8769 14.8855 39.8769 14.8599 39.8754 14.8344C39.8747 14.8258 39.8747 14.8171 39.8754 14.8085C39.8798 14.7607 39.8974 14.7153 39.9258 14.6781C39.9542 14.641 39.9922 14.6137 40.035 14.5998L40.9751 14.2797C40.9857 14.2765 40.9959 14.272 41.0056 14.2665C41.0507 14.2426 41.0872 14.2034 41.1096 14.1551C41.1321 14.1067 41.1392 14.0517 41.1298 13.9986L40.9369 12.9631C40.9254 12.9027 40.8935 12.8492 40.8472 12.8129C40.801 12.7766 40.7438 12.7603 40.687 12.767L39.6118 12.8981C39.5673 12.9038 39.5223 12.8948 39.4826 12.8724C39.443 12.8499 39.4107 12.815 39.3899 12.7723C39.2907 12.5788 39.1781 12.3935 39.0531 12.2181C38.9853 12.1237 38.915 12.033 38.842 11.946C38.8128 11.9115 38.7932 11.8688 38.7854 11.8228C38.7775 11.7769 38.7819 11.7295 38.7978 11.6861L39.1798 10.6447C39.2002 10.5889 39.2003 10.5268 39.1802 10.4708C39.1602 10.4149 39.1213 10.3691 39.0713 10.3425L38.192 9.87546C38.1405 9.84803 38.0814 9.84202 38.026 9.8586C37.9707 9.87517 37.9229 9.91316 37.892 9.96527L37.4669 10.6817C37.4394 10.7282 37.3983 10.7635 37.3501 10.7818C37.3018 10.8002 37.2493 10.8007 37.2008 10.7831C36.8103 10.6378 36.4012 10.5587 35.9881 10.5486C35.9402 10.548 35.8936 10.531 35.8551 10.5002C35.8167 10.4693 35.7883 10.4261 35.7741 10.3768L35.5065 9.46494C35.4889 9.40589 35.4518 9.35585 35.4022 9.32429C35.3527 9.29274 35.294 9.28187 35.2375 9.29376L34.2787 9.50034C34.2234 9.51203 34.1742 9.54572 34.141 9.59468C34.1078 9.64365 34.093 9.70429 34.0995 9.7645L34.1039 9.81258L34.2021 10.7757C34.2074 10.8258 34.1984 10.8765 34.1762 10.9209C34.154 10.9653 34.1197 11.0013 34.0779 11.0241V11.0241C33.8688 11.1406 33.6697 11.2767 33.4828 11.4309C33.3817 11.5149 33.2865 11.6026 33.1932 11.695C33.1621 11.7267 33.1234 11.7483 33.0814 11.7571C33.0394 11.766 32.9959 11.7619 32.9561 11.7452L32.1308 11.396C32.0764 11.3728 32.0159 11.3725 31.9613 11.3951C31.9067 11.4177 31.8621 11.4616 31.8362 11.5181L31.4037 12.4601C31.392 12.4862 31.3845 12.5142 31.3816 12.543C31.3773 12.5884 31.3847 12.6342 31.403 12.6754C31.4212 12.7166 31.4497 12.7516 31.4852 12.7765L32.0493 13.1591C32.0826 13.1826 32.1097 13.2149 32.1281 13.2529C32.1465 13.2909 32.1555 13.3334 32.1543 13.3762C32.153 13.3994 32.1491 13.4223 32.1426 13.4444C31.9719 13.9847 31.9032 14.5562 31.9403 15.1255C31.9434 15.1726 31.9337 15.2196 31.9122 15.2607C31.8907 15.3019 31.8585 15.3353 31.8195 15.3569C31.8081 15.3635 31.7961 15.3688 31.7837 15.3728L31.0222 15.6317C30.9689 15.6499 30.9236 15.6886 30.8951 15.7405C30.8665 15.7923 30.8568 15.8536 30.8676 15.9128L30.872 15.9371L31.0595 16.9462C31.0713 17.0071 31.1038 17.0611 31.1507 17.0976C31.1976 17.1341 31.2554 17.1503 31.3129 17.1432V17.1432ZM37.9087 13.9923C37.97 14.158 38.0168 14.3296 38.0486 14.5047C38.1115 14.8534 38.0462 15.4029 37.9013 15.7231C37.8861 15.7569 37.8699 15.7907 37.8522 15.824C36.8434 17.8391 34.1991 17.4381 33.7637 15.1646C33.7072 14.8672 33.7426 14.4339 33.8412 14.1021C33.8626 14.0297 33.8891 13.959 33.9203 13.8908C34.044 13.6195 34.21 13.3731 34.4112 13.1622C35.4982 12.0422 37.3127 12.4099 37.9092 13.9928L37.9087 13.9923Z" fill="#D5DFFC"/>
<path d="M94.4561 29.4218V65.1162C94.4561 66.4207 93.5267 67.4784 92.3808 67.4784H33.7012C32.5548 67.4784 31.626 66.4217 31.626 65.1162V29.4218C31.626 28.1173 32.5548 27.0591 33.7012 27.0591H92.3808C93.5267 27.0591 94.4561 28.1173 94.4561 29.4218Z" fill="#8C9DF4"/>
<path d="M94.4561 29.295V30.9328H31.626V29.295C31.626 28.7027 31.8446 28.1346 32.2338 27.7158C32.623 27.297 33.1508 27.0617 33.7012 27.0617H92.3808C92.9312 27.0618 93.4589 27.2972 93.8481 27.716C94.2373 28.1348 94.4559 28.7027 94.4561 29.295V29.295Z" fill="#6980E2"/>
<path d="M56.3071 48.7293C57.289 50.0808 56.1136 52.1609 56.7902 53.7073C56.9198 54.0032 57.1132 54.2658 57.2212 54.5711C57.3994 55.0757 57.3258 55.64 57.4363 56.1662C57.5467 56.6924 57.99 57.2329 58.481 57.0924C58.9066 56.9703 59.0775 56.4203 59.0657 55.9543C59.0539 55.4883 58.9317 55.0107 59.0583 54.5637C59.212 54.0211 59.729 53.6455 60.2616 53.5942C60.7943 53.543 61.3275 53.7781 61.7379 54.1416C62.1881 54.5405 62.681 55.1402 63.2328 54.9288C63.7621 54.7259 63.8053 53.9171 63.5461 53.3882C63.2868 52.8593 62.8357 52.4446 62.6437 51.8851C62.4017 51.1813 62.6241 50.3798 63.0168 49.7564C63.4096 49.133 63.957 48.6416 64.4504 48.1048C64.6193 47.9215 64.7906 47.7139 64.8196 47.4592C64.8485 47.2045 64.6595 46.9113 64.4194 46.9451C64.2579 46.9684 64.1455 47.119 64.0208 47.2304C63.4808 47.7123 62.5858 47.4301 62.1758 46.8215C61.7659 46.2129 61.731 45.4077 61.8012 44.6638C62.6452 44.8751 63.4101 43.624 64.225 43.9389C64.7356 44.1365 64.876 44.8096 65.0105 45.3654C65.2521 46.3571 65.7121 47.2901 65.8324 48.3067C66.0607 50.2441 65.0513 52.3722 65.9517 54.0761C66.289 54.7154 66.8565 55.1856 67.4569 55.5496C68.888 56.4182 70.7119 56.7563 72.1921 55.9844C73.8996 55.0947 75.5187 53.0104 75.5305 52.8852C75.6984 51.3282 75.4814 50.3825 75.7421 49.9001C76.724 48.0842 79.6539 49.4246 81.0659 49.5165C84.964 49.7675 84.7396 47.0587 84.7269 45.8055C84.6959 42.7771 84.15 42.2229 81.3133 41.843C79.8277 41.6449 78.297 41.9677 76.8354 41.6248C75.5555 41.3247 74.4298 40.538 73.2069 40.0398C70.9593 39.1221 68.3578 39.2256 66.181 40.3182C65.7111 40.5544 65.2482 40.8376 64.7376 40.9284C64.227 41.0193 63.6295 40.8661 63.3551 40.4001C63.0296 39.8438 63.2795 39.1094 63.63 38.5699C63.9805 38.0305 64.4386 37.5307 64.5554 36.8883C64.717 35.9954 64.117 35.0845 63.3281 34.7263C62.5391 34.3681 61.623 34.4701 60.811 34.7665C59.3279 35.3075 58.1064 36.4371 57.0067 37.6195C55.7032 39.0227 54.4538 40.6727 54.2731 42.6307C54.2014 43.4016 54.3006 44.1988 54.0497 44.9417C53.8627 45.4975 53.4022 45.9149 53.5818 46.5325C53.9299 47.7176 55.6443 47.8158 56.3071 48.7293Z" fill="#C0D4FF"/>
<path d="M79.1617 39.1933L79.9344 39.8416C80.1116 39.9906 80.2953 40.1422 80.4892 40.1808C80.8981 40.2611 81.2747 39.7301 81.2521 39.1009C81.2295 38.4716 80.8176 37.8799 80.4121 37.8989C80.1617 37.9105 79.9084 38.115 79.6757 37.9364C79.1847 37.5666 78.8504 35.7597 78.4199 36.9791C78.0973 37.8841 78.6432 38.7738 79.1617 39.1933Z" fill="#C0D4FF"/>
<path d="M48.7632 41.7399L50.3833 42.8494C50.6828 43.0539 51.0255 43.383 50.9008 43.7365C50.7446 44.1771 50.1393 44.0424 49.6989 44.1063C49.0946 44.193 48.64 44.8988 48.7843 45.5249C48.8913 45.9904 49.2463 46.5367 48.9227 46.8716C48.6282 47.1749 48.1142 46.8901 47.7381 47.0608C47.5152 47.1617 47.3748 47.41 47.1514 47.5099C46.9604 47.596 46.7317 47.5627 46.5505 47.6684C46.3257 47.8015 46.2466 48.1048 46.0596 48.2918C45.4901 48.8592 44.4669 48.0366 43.8012 48.4704C43.2931 48.8006 43.378 49.6581 43.7747 50.1293C44.1714 50.6006 44.7595 50.8262 45.2637 51.1638C45.7679 51.5014 46.2329 52.0747 46.1234 52.696C46.01 53.3379 45.3109 53.8974 45.5613 54.4923C45.6383 54.6762 45.7935 54.8093 45.9157 54.9615C46.2314 55.3599 46.3173 55.9358 46.1715 56.4324C46.0257 56.929 45.6658 57.3411 45.2269 57.5747C44.9481 57.7231 44.6407 57.804 44.3614 57.9514C43.6048 58.3518 43.1512 59.1803 42.7501 59.9691C42.2518 60.9486 41.7604 61.9583 41.5944 63.0572C41.5394 63.4212 41.4869 63.8497 41.183 64.0288C40.8261 64.2401 40.3685 63.9295 40.1957 63.5375C40.0229 63.1454 40.0293 62.6921 39.9316 62.2747C39.7475 61.4822 39.203 60.8303 39.0121 60.0415C38.5555 58.1548 40.2301 56.2808 39.9115 54.3624C39.8447 53.9624 39.6925 53.5815 39.6341 53.18C39.5801 52.7784 39.6194 52.3686 39.7485 51.9874C39.8776 51.6062 40.0925 51.2653 40.3739 50.9953C40.9852 50.4141 41.9288 50.1209 42.1737 49.2925C42.4438 48.3784 41.6578 47.4359 41.7952 46.4891C41.8394 46.1858 41.9764 45.9042 42.0161 45.6004C42.0623 45.2512 41.9759 44.8983 41.8826 44.5596C41.62 43.6086 41.3018 42.5424 41.7427 41.667C42.0088 41.1386 42.51 40.7878 43.0191 40.5252C44.2043 39.9145 45.5264 39.6799 46.8362 39.7919C47.3846 39.8395 47.8937 39.6736 47.9679 40.3308C48.0469 41.0404 48.1456 41.3178 48.7632 41.7399Z" fill="#C0D4FF"/>
<path d="M52.5852 36.8343C52.8748 36.6161 53.2234 36.5031 53.5332 36.3187C53.843 36.1343 54.1341 35.8374 54.1611 35.4617C54.1827 35.169 54.0349 34.8842 53.8292 34.6861C53.6235 34.488 53.3663 34.3644 53.1095 34.2523C52.6049 34.0329 52.0877 33.8487 51.5611 33.7008C51.2699 33.6189 50.9572 33.5491 50.672 33.6511C50.4186 33.742 50.2237 33.9554 50.0475 34.1683C49.802 34.4642 49.5664 34.7844 49.4657 35.1627C49.3214 35.7047 49.475 36.2854 49.6832 36.8037C49.855 37.2311 50.9189 39.5051 51.4658 39.2509C51.6804 39.1511 51.7604 38.1663 51.8458 37.9301C52.0029 37.5037 52.2273 37.1043 52.5852 36.8343Z" fill="#C0D4FF"/>
<path d="M83.6711 57.7353C84.1223 57.3956 84.6638 57.2202 85.1439 56.9328C85.6241 56.6453 86.0767 56.1846 86.1204 55.6003C86.1538 55.1443 85.924 54.7021 85.6044 54.3941C85.2848 54.0861 84.8837 53.8932 84.4841 53.7194C83.6998 53.377 82.8958 53.0895 82.077 52.8588C81.6239 52.732 81.1378 52.6231 80.6935 52.7822C80.3008 52.9232 79.9969 53.2577 79.7224 53.5868C79.342 54.047 78.9747 54.5447 78.8176 55.1333C78.5928 55.9786 78.8319 56.8794 79.1559 57.6862C79.423 58.3508 81.0779 61.888 81.9292 61.4902C82.2626 61.3349 82.3848 59.8032 82.5184 59.4365C82.7643 58.7761 83.1129 58.1553 83.6711 57.7353Z" fill="#C0D4FF"/>
<path d="M34.085 29.2052C34.085 29.1174 34.1091 29.0316 34.1545 28.9586C34.1998 28.8856 34.2642 28.8287 34.3395 28.7951C34.4149 28.7615 34.4978 28.7528 34.5778 28.7699C34.6578 28.787 34.7313 28.8293 34.789 28.8913C34.8466 28.9534 34.8859 29.0325 34.9018 29.1186C34.9177 29.2047 34.9096 29.2939 34.8784 29.375C34.8471 29.4561 34.7943 29.5254 34.7265 29.5742C34.6586 29.6229 34.5789 29.649 34.4974 29.649C34.388 29.649 34.2831 29.6022 34.2057 29.519C34.1284 29.4357 34.085 29.3229 34.085 29.2052V29.2052Z" fill="#EBF3FA"/>
<path d="M36.7142 29.649C36.9419 29.649 37.1265 29.4503 37.1265 29.2052C37.1265 28.96 36.9419 28.7614 36.7142 28.7614C36.4864 28.7614 36.3018 28.96 36.3018 29.2052C36.3018 29.4503 36.4864 29.649 36.7142 29.649Z" fill="#EBF3FA"/>
<path d="M38.9309 29.649C39.1587 29.649 39.3433 29.4503 39.3433 29.2052C39.3433 28.96 39.1587 28.7614 38.9309 28.7614C38.7032 28.7614 38.5186 28.96 38.5186 29.2052C38.5186 29.4503 38.7032 29.649 38.9309 29.649Z" fill="#EBF3FA"/>
<path d="M52.8359 40.3246C52.8359 41.8536 55.2288 44.2982 55.2288 44.2982C55.2288 44.2982 57.6217 41.8536 57.6217 40.3246C57.6217 38.7955 56.5504 37.5555 55.2288 37.5555C53.9072 37.5555 52.8359 38.7955 52.8359 40.3246ZM53.8178 40.1624C53.8178 39.8622 53.9005 39.5689 54.0555 39.3193C54.2104 39.0698 54.4306 38.8753 54.6882 38.7605C54.9459 38.6456 55.2294 38.6156 55.5029 38.6741C55.7764 38.7327 56.0276 38.8772 56.2248 39.0894C56.422 39.3016 56.5563 39.572 56.6107 39.8663C56.6651 40.1607 56.6372 40.4658 56.5305 40.743C56.4238 41.0203 56.243 41.2573 56.0112 41.424C55.7793 41.5907 55.5067 41.6797 55.2278 41.6797C54.8542 41.6788 54.4962 41.5185 54.2322 41.2342C53.9681 40.9498 53.8195 40.5644 53.8188 40.1624H53.8178Z" fill="url(#paint4_linear_141_16)"/>
<path d="M53.8184 40.1623C53.8184 39.8622 53.9011 39.5688 54.056 39.3193C54.2109 39.0697 54.4311 38.8752 54.6888 38.7604C54.9464 38.6456 55.2299 38.6155 55.5034 38.6741C55.7769 38.7326 56.0282 38.8771 56.2254 39.0893C56.4226 39.3015 56.5568 39.5719 56.6112 39.8663C56.6657 40.1606 56.6377 40.4657 56.531 40.743C56.4243 41.0202 56.2436 41.2572 56.0117 41.4239C55.7798 41.5907 55.5072 41.6797 55.2284 41.6797C55.0432 41.6797 54.8598 41.6404 54.6888 41.5642C54.5177 41.4879 54.3623 41.3761 54.2313 41.2352C54.1004 41.0943 53.9965 40.9271 53.9257 40.743C53.8548 40.5589 53.8184 40.3615 53.8184 40.1623Z" fill="#EBF3FA"/>
<path d="M40.8135 54.644C40.8135 55.7334 42.5185 57.4748 42.5185 57.4748C42.5185 57.4748 44.2236 55.7313 44.2236 54.644C44.2236 53.5567 43.4602 52.6707 42.5185 52.6707C41.5769 52.6707 40.8135 53.554 40.8135 54.644ZM41.5136 54.5283C41.5135 54.3144 41.5723 54.1052 41.6827 53.9273C41.7931 53.7494 41.95 53.6107 42.1336 53.5287C42.3172 53.4468 42.5193 53.4253 42.7143 53.467C42.9093 53.5086 43.0884 53.6116 43.229 53.7628C43.3696 53.9141 43.4653 54.1068 43.5041 54.3166C43.543 54.5264 43.5231 54.7439 43.447 54.9415C43.371 55.1392 43.2422 55.3081 43.0769 55.427C42.9116 55.5458 42.7173 55.6093 42.5185 55.6093C42.2522 55.6088 41.9969 55.4948 41.8085 55.2922C41.6201 55.0896 41.5141 54.8149 41.5136 54.5283V54.5283Z" fill="url(#paint5_linear_141_16)"/>
<path d="M41.5137 54.5283C41.5136 54.3144 41.5724 54.1052 41.6828 53.9273C41.7932 53.7494 41.9501 53.6107 42.1337 53.5288C42.3173 53.4468 42.5194 53.4253 42.7144 53.467C42.9094 53.5087 43.0885 53.6116 43.2291 53.7629C43.3697 53.9141 43.4654 54.1068 43.5043 54.3166C43.5431 54.5264 43.5232 54.7439 43.4471 54.9415C43.3711 55.1392 43.2423 55.3081 43.077 55.427C42.9117 55.5459 42.7174 55.6093 42.5186 55.6093C42.2522 55.6093 41.9966 55.4954 41.8082 55.2927C41.6197 55.09 41.5138 54.8151 41.5137 54.5283V54.5283Z" fill="#EBF3FA"/>
<path d="M38.8885 34.498H28.2163C27.3698 34.498 26.6836 35.2365 26.6836 36.1475V48.0029C26.6836 48.9138 27.3698 49.6523 28.2163 49.6523H38.8885C39.735 49.6523 40.4212 48.9138 40.4212 48.0029V36.1475C40.4212 35.2365 39.735 34.498 38.8885 34.498Z" fill="#D5DFFC"/>
<path d="M37.7012 41.5825C37.7006 42.4995 37.4373 43.3941 36.9473 44.1444C36.4573 44.8946 35.7643 45.4641 34.9627 45.7753C34.1611 46.0865 33.2899 46.1242 32.4676 45.8834C31.6454 45.6426 30.9121 45.1349 30.3676 44.4294C29.8231 43.724 29.4939 42.8551 29.4248 41.9411C29.3557 41.027 29.55 40.1123 29.9813 39.3214C30.4126 38.5305 31.06 37.9018 31.8352 37.5211C32.6105 37.1404 33.4759 37.026 34.3137 37.1936C33.7958 39.2245 33.1084 41.9138 33.0628 42.0818C33.1482 41.937 35.6707 40.7197 37.3939 39.8992C37.5971 40.4335 37.7015 41.0052 37.7012 41.5825V41.5825Z" fill="#2A4E96"/>
<path d="M37.6269 39.4126C36.1049 40.1338 33.5849 41.3431 33.5029 41.48C33.5466 41.3215 34.2438 38.5931 34.7107 36.7656C35.3456 36.9538 35.9351 37.2879 36.4386 37.7448C36.942 38.2018 37.3474 38.7708 37.6269 39.4126Z" fill="url(#paint6_linear_141_16)"/>
<path d="M59.8965 11.4995H45.8403C44.798 11.4995 43.9531 12.4088 43.9531 13.5304V27.1742C43.9531 28.2958 44.798 29.2051 45.8403 29.2051H59.8965C60.9388 29.2051 61.7837 28.2958 61.7837 27.1742V13.5304C61.7837 12.4088 60.9388 11.4995 59.8965 11.4995Z" fill="#D5DFFC"/>
<path d="M59.7414 26.2781H45.9434V21.5532H59.7389L59.7414 26.2781ZM46.1137 26.0959H59.572V21.7355H46.1137V26.0959Z" fill="#8C9DF4"/>
<path d="M52.2799 22.8234H46.9434V23.198H52.2799V22.8234Z" fill="#8C9DF4"/>
<path d="M56.6294 22.8234H52.8428V23.198H56.6294V22.8234Z" fill="#8C9DF4"/>
<path d="M49.8885 23.8927H46.9434V24.2673H49.8885V23.8927Z" fill="#8C9DF4"/>
<path d="M54.1743 23.8927H50.3877V24.2673H54.1743V23.8927Z" fill="#8C9DF4"/>
<path d="M58.3531 23.8927H54.5664V24.2673H58.3531V23.8927Z" fill="#8C9DF4"/>
<path d="M47.4683 17.9585H46.0293V20.1115H47.4683V17.9585Z" fill="#2A4E96"/>
<path d="M49.9331 16.5314H48.4941V20.1114H49.9331V16.5314Z" fill="#2A4E96"/>
<path d="M52.3979 15.3617H50.959V20.1109H52.3979V15.3617Z" fill="url(#paint7_linear_141_16)"/>
<path d="M54.8618 16.3105H53.4229V20.1109H54.8618V16.3105Z" fill="#2A4E96"/>
<path d="M57.3276 14.2881H55.8887V20.1109H57.3276V14.2881Z" fill="#2A4E96"/>
<path d="M59.7925 13.2494H58.3535V20.1114H59.7925V13.2494Z" fill="url(#paint8_linear_141_16)"/>
<path d="M106.253 37.0441H88.0647C87.0409 37.0441 86.2109 37.9373 86.2109 39.0391V48.9591C86.2109 50.0609 87.0409 50.9541 88.0647 50.9541H106.253C107.277 50.9541 108.107 50.0609 108.107 48.9591V39.0391C108.107 37.9373 107.277 37.0441 106.253 37.0441Z" fill="#2A4E96"/>
<path d="M96.1279 48.4968H88.0322V45.7262H96.1279V48.4968ZM88.1319 48.3911H96.0287V45.8319H88.1319V48.3911Z" fill="#C0D4FF"/>
<path d="M91.7509 46.4691H88.6191V46.6888H91.7509V46.4691Z" fill="#C0D4FF"/>
<path d="M94.3021 46.4691H92.0801V46.6888H94.3021V46.4691Z" fill="#C0D4FF"/>
<path d="M90.3473 47.0967H88.6191V47.3165H90.3473V47.0967Z" fill="#C0D4FF"/>
<path d="M92.8617 47.0967H90.6396V47.3165H92.8617V47.0967Z" fill="#C0D4FF"/>
<path d="M95.3138 47.0967H93.0918V47.3165H95.3138V47.0967Z" fill="#C0D4FF"/>
<path d="M105.782 48.4968H97.6855V45.7262H105.782V48.4968ZM97.7852 48.3911H105.682V45.8319H97.7867L97.7852 48.3911Z" fill="#C0D4FF"/>
<path d="M101.404 46.4691H98.2725V46.6888H101.404V46.4691Z" fill="#C0D4FF"/>
<path d="M103.956 46.4691H101.734V46.6888H103.956V46.4691Z" fill="#C0D4FF"/>
<path d="M100.001 47.0967H98.2725V47.3165H100.001V47.0967Z" fill="#C0D4FF"/>
<path d="M102.515 47.0967H100.293V47.3165H102.515V47.0967Z" fill="#C0D4FF"/>
<path d="M104.967 47.0967H102.745V47.3165H104.967V47.0967Z" fill="#C0D4FF"/>
<path d="M106.285 44.6247H88.0322V43.0317H106.285V44.6247ZM88.2055 44.4382H106.111V43.2182H88.2055V44.4382Z" fill="#C0D4FF"/>
<path d="M102.287 43.1252H88.1191V44.5317H102.287V43.1252Z" fill="#C0D4FF"/>
<path d="M106.285 41.4578H88.0322V39.8649H106.285V41.4578ZM88.2055 41.2713H106.111V40.0514H88.2055V41.2713Z" fill="#C0D4FF"/>
<path d="M97.5232 39.8649H88.0322V41.4578H97.5232V39.8649Z" fill="url(#paint9_linear_141_16)"/>
<path d="M79.662 34.2994C79.6242 34.3444 79.5991 34.4003 79.5899 34.4602C79.5807 34.5202 79.5877 34.5817 79.61 34.6375C79.6861 34.8631 79.9365 35.113 80.2276 35.3661C80.2644 35.3988 80.2978 35.4279 80.3258 35.4554L80.3484 35.4765L80.3656 35.4934C80.6366 35.7623 80.5345 35.8242 81.022 36.3705C81.5782 36.9928 81.9606 37.0045 82.0696 36.9474C82.1619 36.8988 81.9744 36.5691 81.7672 36.1977C81.7574 36.1803 81.7476 36.1618 81.7373 36.1449C81.7093 36.0957 81.6818 36.0455 81.6548 35.9959C81.4093 35.5494 81.4741 35.3397 81.5316 34.675C81.5782 34.1351 82.3122 31.6582 82.3122 31.6582L81.2468 31.4606C81.2468 31.4606 80.9262 33.4329 80.5727 33.7367C80.3837 33.8989 80.1721 33.901 79.9905 34.021L79.9527 34.0463C79.8458 34.1164 79.7481 34.2015 79.662 34.2994V34.2994Z" fill="#FFB27D"/>
<path d="M79.662 34.2994C79.6242 34.3444 79.5991 34.4003 79.5899 34.4602C79.5807 34.5202 79.5877 34.5817 79.61 34.6375C79.7028 34.8626 79.9473 35.113 80.2286 35.364C80.2654 35.3967 80.2978 35.4268 80.3268 35.4554L80.3494 35.4765L80.3665 35.4934C80.6376 35.7623 80.5354 35.8241 81.0229 36.3704C81.5792 36.9928 81.9616 37.0044 82.0706 36.9474C82.1629 36.8988 81.9754 36.5691 81.7682 36.1977C81.3793 36.0345 81.0375 35.7635 80.7775 35.412C80.4549 34.9693 80.2374 34.4045 80.0165 34.0579L79.9537 34.0452C79.8464 34.1156 79.7483 34.201 79.662 34.2994V34.2994Z" fill="#233862"/>
<path d="M88.2522 33.583C88.318 33.937 88.7868 33.8778 89.3102 33.7415C89.8335 33.6052 89.7098 33.7674 90.455 33.6786C91.2003 33.5898 91.4261 33.2908 91.4487 33.1714C91.4688 33.0657 91.1006 33.0282 90.7059 32.9791L90.5586 32.9601C90.1128 32.8998 89.7864 32.5902 89.3804 32.3356C88.9969 32.0946 88.424 31.1135 88.424 31.1135L87.4023 31.2007C87.4023 31.2007 87.9385 32.0772 88.1461 32.4581C88.2679 32.6827 88.2615 32.9791 88.2443 33.2079C88.2313 33.3327 88.2339 33.4589 88.2522 33.583V33.583Z" fill="#FFB27D"/>
<path d="M89.3094 33.7404C89.8332 33.6025 89.709 33.7663 90.4543 33.6775C91.1995 33.5888 91.4253 33.2897 91.4479 33.1703C91.4681 33.0647 91.0998 33.0272 90.7051 32.978L90.7012 32.9865C90.3819 33.2069 90.0131 33.3303 89.6339 33.3436C89.1282 33.3568 88.5926 33.201 88.2435 33.2068C88.2304 33.332 88.2331 33.4585 88.2514 33.583C88.3172 33.937 88.786 33.8778 89.3094 33.7404Z" fill="#233862"/>
<path d="M84.3354 26.5477L83.3795 29.3146L82.1321 32.9273C81.9093 32.9453 81.6853 32.9233 81.4693 32.8623C81.1713 32.7693 80.8311 32.5263 80.8311 32.5263C80.8311 32.5263 81.1777 28.6473 81.8237 26.4203C81.9892 25.8492 82.1748 25.3864 82.3795 25.1264C83.3786 23.8531 84.3354 26.5477 84.3354 26.5477Z" fill="url(#paint10_linear_141_16)"/>
<path d="M83.3637 22.1555C82.8198 21.9664 81.4 22.1524 79.8613 22.4525C79.6532 22.493 79.4385 22.4646 79.2456 22.371C79.0528 22.2774 78.8909 22.1231 78.7813 21.9284L74.9092 21.6029C74.9092 21.6029 73.6327 24.6535 74.3308 26.5973C74.4339 26.8831 74.6598 27.0611 75.0079 27.0675C75.0079 27.0675 77.3487 27.0707 78.0974 27.0707C80.0238 27.0707 82.1722 25.6441 82.453 25.586C82.9081 25.4878 83.0913 26.4678 83.5459 27.497C84.0005 28.5262 87.8264 32.0545 87.8264 32.0545C87.8264 32.0545 88.4156 32.0608 88.6571 31.963C88.9183 31.8574 89.0135 31.7205 89.0135 31.7205C89.0135 31.7205 84.7772 22.6453 83.3637 22.1555Z" fill="url(#paint11_linear_141_16)"/>
<path d="M78.3718 9.6863C78.1483 9.54354 77.8918 9.47174 77.6319 9.4792C77.5124 9.48256 77.3928 9.47479 77.2745 9.45595C75.7958 9.22243 74.9057 11.5339 74.8537 12.2318C74.7579 13.5141 74.1276 13.7112 73.2404 14.5127C71.4617 16.1225 71.9831 17.9933 72.9557 18.6865C73.5394 19.1039 74.568 18.6865 74.568 18.6865C74.5827 18.6976 77.3811 17.0032 78.7606 16.1859C80.8285 15.871 79.2025 10.2189 78.3718 9.6863Z" fill="#152949"/>
<path d="M77.6046 15.4917C77.6105 15.4959 76.9256 15.7474 76.468 15.5292C76.037 15.3242 75.7105 14.5618 75.7169 14.5613C75.9133 14.5512 76.1283 14.3668 76.2937 13.1575L76.3772 13.1897L77.7803 13.7328C77.7803 13.7328 77.6787 14.2173 77.6129 14.6786C77.5574 15.0658 77.528 15.4367 77.6046 15.4917Z" fill="#FFB27D"/>
<path d="M77.7801 13.7328C77.7801 13.7328 77.7241 13.997 77.6421 14.4825C76.8365 14.324 76.4904 13.6583 76.377 13.1897L77.7801 13.7328Z" fill="#ED975D"/>
<path d="M77.9885 14.2137C77.9885 14.2137 76.0694 13.9363 76.2481 12.6524C76.4268 11.3686 76.2972 10.4683 77.5329 10.5919C78.7686 10.7155 78.935 11.2428 78.9723 11.6866C79.0096 12.1304 78.4927 14.2527 77.9885 14.2137Z" fill="#FFB27D"/>
<path d="M78.9027 10.9823C78.9027 10.9823 77.6753 12.1219 76.8407 12.2139C76.0061 12.3058 75.6885 12.0173 75.6885 12.0173C76.0222 11.6962 76.2907 11.3045 76.4774 10.8666C76.5201 10.7637 76.5875 10.6749 76.6727 10.6093C76.7578 10.5438 76.8577 10.5038 76.962 10.4936C77.5565 10.4381 78.6896 10.4128 78.9027 10.9823Z" fill="#152949"/>
<path d="M78.1348 10.8804C78.1348 10.8804 78.5457 11.3083 78.6748 11.6253C78.7995 11.9318 78.8373 12.664 78.7376 12.9546C78.7376 12.9546 79.3759 11.6148 79.0155 10.9633C78.6316 10.2749 78.1348 10.8804 78.1348 10.8804Z" fill="#152949"/>
<path d="M79.2204 18.5344C79.1625 22.7162 79.2047 21.8423 78.7786 22.2391C78.676 22.3347 78.3883 22.3918 78.0093 22.4187C76.8178 22.5038 74.7234 22.2924 74.6439 22.0552C74.3689 21.2358 74.5628 20.9806 74.3336 19.7253C74.3095 19.5921 74.2801 19.4474 74.2452 19.2899C74.0542 18.4282 73.8682 18.1344 74.5462 16.7497C75.1613 15.4949 75.8005 14.4778 75.858 14.5132C77.4805 15.5503 77.6116 14.6786 77.6116 14.6786C77.6116 14.6786 79.2489 16.495 79.2204 18.5344Z" fill="#8C9DF4"/>
<path d="M83.3795 29.3166L82.1321 32.9294C81.9093 32.9474 81.6853 32.9254 81.4693 32.8644C81.1713 32.7714 80.8311 32.5284 80.8311 32.5284C80.8311 32.5284 81.1777 28.6494 81.8237 26.4224L83.3795 29.3166Z" fill="url(#paint12_linear_141_16)"/>
<path d="M77.6123 14.6786C77.6123 14.6786 79.2815 14.9834 79.4779 15.7569C79.6743 16.5304 80.3194 21.2268 80.3194 21.2268C80.3194 21.2268 79.8486 21.7213 79.4568 21.2992C79.065 20.877 78.2226 16.9055 78.2226 16.9055L77.6123 14.6786Z" fill="#8C9DF4"/>
<path d="M78.0107 22.4187C76.8191 22.5037 74.7248 22.2924 74.6452 22.0552C74.3703 21.2357 74.5642 20.9805 74.335 19.7252L74.9094 17.9817C74.9094 17.9817 74.8146 19.9212 75.3458 20.4311C75.877 20.9409 77.5217 21.4159 77.7799 21.8422C77.8923 22.0156 77.9708 22.2117 78.0107 22.4187V22.4187Z" fill="#707FE5"/>
<path d="M76.6445 21.6029C76.6445 21.6029 77.8199 21.3213 78.0099 21.4333C78.1998 21.5453 78.6628 21.9548 78.7212 22.0969C78.7797 22.239 78.2985 21.9886 78.1424 21.9437C78.0413 21.9146 77.7752 22.014 77.6431 22.0615C77.0883 22.2602 76.7486 22.1582 76.7486 22.1582L76.6445 21.6029Z" fill="#FFB27D"/>
<path d="M75.8575 14.5127C75.8575 14.5127 74.2791 14.6184 73.7327 15.4373C72.9634 16.5917 71.438 21.5132 72.3124 22.1678C73.2972 22.9074 76.7942 22.3611 76.7942 22.3611C76.7942 22.3611 76.9106 21.7757 76.7486 21.4925C76.5866 21.2094 73.9556 20.7529 73.8338 20.6213C73.7121 20.4898 75.3504 18.0726 75.3504 17.6806C75.3504 17.2886 75.8575 14.5127 75.8575 14.5127Z" fill="#8C9DF4"/>
<path d="M78.0674 21.7858C78.0674 21.7858 78.3129 22.1276 78.3944 22.1683C78.4351 22.1919 78.4812 22.2026 78.5274 22.1989L78.3615 21.8772L78.0674 21.7858Z" fill="#FFB27D"/>
<path d="M78.0098 21.4333L78.7256 21.8079C78.7115 21.8265 78.6932 21.8408 78.6725 21.8494C78.6517 21.8581 78.6292 21.8607 78.6072 21.8571C78.5189 21.8528 78.2965 21.7651 78.2965 21.7651L78.0098 21.4333Z" fill="#FFB27D"/>
<path d="M84.1246 22.313H76.6445V22.491H84.0578L84.1246 22.313Z" fill="#152949"/>
<path d="M78.3945 22.4911H84.0586L85.7626 17.931H80.1069L78.3945 22.4911Z" fill="#152949"/>
<path d="M82.6286 20.2108C82.6713 20.0523 82.5849 19.9207 82.4361 19.9207C82.3578 19.9255 82.2826 19.9557 82.2206 20.0076C82.1586 20.0594 82.1127 20.1302 82.089 20.2108C82.0463 20.3693 82.1327 20.5008 82.2815 20.5008C82.3599 20.4962 82.4351 20.466 82.4972 20.4142C82.5592 20.3623 82.605 20.2914 82.6286 20.2108V20.2108Z" fill="#EBF3FA"/>
<path d="M63.3838 37.4842C63.3838 39.7492 66.9279 43.3693 66.9279 43.3693C66.9279 43.3693 70.472 39.7492 70.472 37.4842C70.472 35.2192 68.8853 33.3822 66.9279 33.3822C64.9705 33.3822 63.3838 35.2187 63.3838 37.4842ZM64.8394 37.2433C64.8396 36.7988 64.9623 36.3644 65.1919 35.9949C65.4215 35.6254 65.7477 35.3375 66.1294 35.1676C66.511 34.9976 66.9309 34.9533 67.336 35.0401C67.741 35.127 68.1131 35.3411 68.405 35.6555C68.697 35.9698 68.8958 36.3703 68.9763 36.8063C69.0568 37.2422 69.0154 37.6941 68.8573 38.1047C68.6992 38.5153 68.4315 38.8663 68.0881 39.1132C67.7447 39.3601 67.3409 39.4919 66.9279 39.4919C66.3741 39.4908 65.8432 39.2534 65.4518 38.8318C65.0603 38.4102 64.8401 37.8388 64.8394 37.2428V37.2433Z" fill="url(#paint13_linear_141_16)"/>
<path d="M64.8389 37.2427C64.8392 36.7983 64.9619 36.3639 65.1916 35.9945C65.4212 35.6251 65.7475 35.3373 66.1291 35.1674C66.5108 34.9975 66.9307 34.9532 67.3357 35.0401C67.7407 35.127 68.1127 35.3412 68.4046 35.6556C68.6966 35.97 68.8953 36.3705 68.9758 36.8064C69.0563 37.2424 69.0148 37.6942 68.8567 38.1048C68.6986 38.5154 68.4309 38.8663 68.0875 39.1132C67.7441 39.3601 67.3403 39.4919 66.9273 39.4919C66.653 39.4918 66.3813 39.4335 66.1279 39.3205C65.8744 39.2074 65.6441 39.0417 65.4502 38.8328C65.2563 38.624 65.1024 38.3761 64.9975 38.1032C64.8927 37.8304 64.8387 37.538 64.8389 37.2427Z" fill="#EBF3FA"/>
<path d="M68.2377 43.9563C68.2377 43.9563 68.1287 42.9366 67.899 42.5467C67.6692 42.1568 66.8012 41.9058 66.7462 41.9656C66.5764 42.1425 67.2485 42.7692 67.275 43C67.3015 43.2309 66.9313 43.0714 67.11 43.5215C67.2573 43.9019 67.7482 44.3948 67.7482 44.3948L68.2377 43.9563Z" fill="#FFB27D"/>
<path d="M67.8192 43.8427C68.1359 43.5753 68.2032 43.5785 68.2032 43.5785C68.2032 43.5785 71.1321 46.3089 71.4174 46.552C71.7026 46.795 76.1015 48.1681 76.1015 48.1681L76.8001 52.016C76.8001 52.016 70.8479 48.9226 70.137 48.2907C68.9617 47.2478 67.4785 44.3282 67.4785 44.3282C67.5519 44.1378 67.6691 43.9707 67.8192 43.8427V43.8427Z" fill="url(#paint14_linear_141_16)"/>
<path d="M76.1955 80.8273C76.1955 80.8273 76.1464 82.1423 75.9103 82.4651L72.6455 82.4852C72.6686 82.3494 72.6823 82.0361 73.1335 81.9511C73.4789 81.8801 73.8033 81.7206 74.0793 81.4862C74.3553 81.2518 74.5748 80.9493 74.7193 80.6043C75.083 79.7511 76.1955 80.8273 76.1955 80.8273Z" fill="#163560"/>
<path d="M82.6029 80.6376C82.6029 80.6376 82.8307 82.3849 82.5214 82.4155C82.4802 82.4197 81.2057 82.4419 80.6558 82.4514C80.0068 82.463 78.9405 82.4387 78.9405 82.4387C78.91 82.4401 78.8798 82.4326 78.853 82.417C78.8262 82.4015 78.8037 82.3785 78.788 82.3504C78.7723 82.3223 78.7639 82.2901 78.7637 82.2574C78.7635 82.2246 78.7714 82.1923 78.7868 82.164C78.8614 82.0277 79.0048 81.8819 79.2777 81.8253C79.8463 81.7075 80.7938 81.2579 81.1257 80.4406C81.4728 79.5804 82.6029 80.6376 82.6029 80.6376Z" fill="#163560"/>
<path d="M74.498 62.7323C74.498 62.7323 75.4058 66.1507 78.0078 72.0871C80.6098 78.0234 80.7222 80.8839 80.7222 80.8839C81.0188 80.9805 81.3304 81.0112 81.6383 80.9742C81.9779 80.9351 82.3063 80.8205 82.6026 80.6377C82.6026 80.6377 82.4342 73.5717 81.2048 70.576C79.9755 67.5804 79.7256 59.3827 79.7256 59.3827L74.498 62.7323Z" fill="#233862"/>
<path d="M73.0435 59.7911C73.0435 59.7911 72.9709 65.084 73.8222 71.5835C74.6735 78.0831 74.2753 81.1052 74.2753 81.1052C74.2753 81.1052 74.5007 81.2822 75.1949 81.279C76.0069 81.2753 76.4222 80.9145 76.4222 80.9145C76.4222 80.9145 77.6403 74.4128 77.2907 71.1598C76.9411 67.9069 78.9599 59.9971 78.9599 59.9971L73.0435 59.7911Z" fill="#2A4E96"/>
<path d="M77.0626 47.4037L76.1013 48.1703L74.7119 47.8533C74.7311 47.717 74.8229 47.1517 74.9083 46.6381L74.923 46.5483C74.9947 46.113 75.0561 45.7389 75.0561 45.7389L76.3541 45.0426L76.8377 44.7831C76.8377 44.7921 76.8004 45.2666 76.795 45.3358C76.7027 46.5716 77.0626 47.4037 77.0626 47.4037Z" fill="#FFB27D"/>
<path d="M79.8188 60.4446C79.5046 61.9915 72.7772 61.3126 72.8651 60.368C72.8685 60.3368 72.8862 59.8993 72.9103 59.3113C72.9594 58.0369 73.0389 56.0456 73.0492 55.8898C73.0492 55.8898 73.0492 55.8845 73.0492 55.8819C73.1705 54.5668 73.2868 53.2803 73.2947 52.4403C73.3088 51.7179 73.3837 50.9983 73.5186 50.2905C73.6334 49.6665 73.7738 49.0996 73.8956 48.6579C73.9678 48.3977 74.0936 48.1584 74.2636 47.9577C74.4336 47.757 74.6434 47.6001 74.8775 47.4988C74.9306 47.4748 74.9851 47.4543 75.0405 47.4375C75.8319 47.1902 76.9277 46.8843 77.2247 46.9778C78.0284 47.2325 78.6263 48.7562 79.049 50.6978C79.8395 54.3317 80.0221 59.4365 79.8188 60.4446Z" fill="url(#paint15_linear_141_16)"/>
<path d="M76.6957 45.3612C76.411 45.9482 75.3491 46.4554 74.9062 46.6419L74.921 46.5521C74.9927 46.1167 75.054 45.7426 75.054 45.7426L76.3521 45.0463C76.6388 45.0394 76.8136 45.1197 76.6957 45.3612Z" fill="#FCA56B"/>
<path d="M74.4236 45.6607C74.4236 45.6607 76.7649 46.4469 77.1969 44.8682C77.629 43.2896 78.2225 42.3322 76.7462 41.7627C75.27 41.1931 74.8129 41.7035 74.5498 42.1917C74.2866 42.6799 73.8256 45.4156 74.4236 45.6607Z" fill="#FFB27D"/>
<path d="M74.6421 42.0421C74.6421 42.0421 74.7894 43.8765 75.1438 43.7968C75.4983 43.717 75.816 43.6583 75.7644 44.211C75.7129 44.7636 75.2244 45.4029 76.3103 45.5006C77.3963 45.5984 78.9585 42.5832 78.6605 42.0136C77.7989 40.3647 73.3971 40.0324 74.6421 42.0421Z" fill="#163560"/>
<path d="M72.9072 59.3103C72.9563 58.036 73.0359 56.0447 73.0462 55.8888C73.0462 55.8888 73.0462 55.8835 73.0462 55.8809L77.0228 53.3237C77.0228 53.3237 77.175 59.2934 72.9072 59.3103Z" fill="url(#paint16_linear_141_16)"/>
<path d="M69.7485 53.9593C69.7485 53.9593 68.9409 53.3713 68.7878 53.32C68.6346 53.2688 68.1323 53.2143 68.1088 53.2556C68.0852 53.2968 68.017 53.4288 68.1044 53.4727C68.1918 53.5165 68.3007 53.5018 68.2688 53.5324C68.2369 53.563 67.9055 53.394 67.827 53.5752C67.7484 53.7564 67.6841 54.3772 68.0725 54.5653C68.4608 54.7534 69.4162 54.5838 69.4849 54.6054C70.0716 54.7883 69.7485 53.9593 69.7485 53.9593Z" fill="#FFB27D"/>
<path d="M69.7407 53.8003C69.7407 53.8003 73.6829 54.5214 74.032 54.3386C74.5897 54.0465 73.8155 49.7421 73.8155 49.7421C73.8155 49.7421 73.7826 48.7663 74.8411 48.5364C75.7616 48.3362 76.6492 49.078 76.6492 49.078C76.6492 49.078 77.4563 49.8557 77.3532 50.7158C77.1245 52.6273 76.769 56.5148 75.5809 57.1087C74.0487 57.8774 69.615 54.9774 69.615 54.9774C69.615 54.9774 69.4677 54.7824 69.4883 54.4216C69.5084 54.1067 69.7407 53.8003 69.7407 53.8003Z" fill="url(#paint17_linear_141_16)"/>
<path d="M67.0916 43.4681C67.0916 43.4681 66.8393 42.9282 66.797 42.8273C66.7548 42.7263 66.855 42.7475 66.9522 42.804C67.0494 42.8605 67.1814 43.1738 67.3317 43.1358C67.4524 43.1062 67.0916 43.4681 67.0916 43.4681Z" fill="#FFB27D"/>
<path d="M33.7568 80.5304C33.7566 80.6065 33.7609 80.6825 33.7696 80.7581C33.8213 81.211 34.0251 81.628 34.3427 81.9304C34.6603 82.2328 35.0698 82.3997 35.4938 82.3996H59.9257C60.3813 82.3914 60.8158 82.1908 61.1353 81.8411C61.4548 81.4914 61.6339 81.0206 61.6339 80.5301C61.6339 80.0396 61.4548 79.5688 61.1353 79.2191C60.8158 78.8694 60.3813 78.6688 59.9257 78.6606H35.4938C35.2657 78.6606 35.0398 78.709 34.829 78.8029C34.6182 78.8969 34.4267 79.0346 34.2654 79.2083C34.1041 79.3819 33.9762 79.588 33.8889 79.8149C33.8017 80.0417 33.7568 80.2848 33.7568 80.5304V80.5304Z" fill="#2B478B"/>
<path d="M35.6201 78.3245H43.9971C44.0678 78.3243 44.1355 78.2939 44.1855 78.24C44.2354 78.1862 44.2635 78.1132 44.2637 78.0371C44.2634 77.9611 44.2352 77.8883 44.1853 77.8346C44.1354 77.7808 44.0677 77.7505 43.9971 77.7502H35.6201C35.5495 77.7505 35.4818 77.7808 35.4319 77.8346C35.3819 77.8883 35.3538 77.9611 35.3535 78.0371V78.0371C35.3538 78.1132 35.3819 78.186 35.4319 78.2399C35.4818 78.2937 35.5494 78.3241 35.6201 78.3245V78.3245Z" fill="#2B478B"/>
<path d="M36.0825 78.6606H36.9902V78.3219H36.0825V78.6606Z" fill="#233862"/>
<path d="M33.9668 81.4248C34.1167 81.7196 34.3374 81.9656 34.606 82.1371C34.8745 82.3086 35.1809 82.3992 35.4931 82.3996H40.6682V81.4248H33.9668Z" fill="#233862"/>
<path d="M64.8965 79.9825V81.0777C64.8964 81.195 64.882 81.3117 64.8538 81.4249C64.7831 81.7049 64.6288 81.952 64.4146 82.1282C64.2004 82.3044 63.9382 82.3998 63.6686 82.3996H38.2186C37.8931 82.3996 37.5809 82.2605 37.3507 82.0128C37.1205 81.7651 36.9912 81.4291 36.9912 81.0788V79.9836C36.9912 79.6333 37.1205 79.2973 37.3507 79.0496C37.5809 78.8019 37.8931 78.6627 38.2186 78.6627H63.6686C63.9941 78.6626 64.3062 78.8015 64.5365 79.049C64.7667 79.2965 64.8962 79.6323 64.8965 79.9825Z" fill="url(#paint18_linear_141_16)"/>
<path d="M64.8535 81.4248C64.7829 81.7048 64.6286 81.952 64.4144 82.1282C64.2002 82.3044 63.938 82.3997 63.6684 82.3996H38.2183C37.9487 82.3997 37.6866 82.3044 37.4724 82.1282C37.2582 81.952 37.1038 81.7048 37.0332 81.4248H64.8535Z" fill="url(#paint19_linear_141_16)"/>
<path d="M62.3691 80.5372C62.3691 81.1184 62.5655 81.6367 62.8748 81.9806L62.8954 82.0034C63.0083 82.1304 63.1435 82.232 63.2932 82.3023C63.4429 82.3726 63.6041 82.4101 63.7674 82.4128C64.2824 82.4128 65.5593 81.5765 66.3507 81.0212C66.7435 80.7438 67.0189 80.5372 67.0189 80.5372C67.0189 80.5372 66.7449 80.3296 66.3507 80.0527C65.5593 79.4969 64.2824 78.6606 63.7674 78.6606C63.6209 78.6607 63.4758 78.6908 63.3397 78.7493C63.1048 78.8554 62.9011 79.0284 62.7506 79.2497C62.5652 79.5192 62.4437 79.8333 62.3966 80.1648C62.3964 80.1688 62.3964 80.1729 62.3966 80.1769C62.3789 80.2961 62.3697 80.4165 62.3691 80.5372Z" fill="#8C9DF4"/>
<path d="M62.3691 80.5372C62.3691 81.1184 62.5655 81.6367 62.8748 81.9806L66.7916 80.5303L62.3952 80.1769C62.3779 80.2961 62.3692 80.4166 62.3691 80.5372V80.5372Z" fill="#6980E2"/>
<path d="M62.75 79.2496L66.6574 80.3982L63.3391 78.7472C63.1039 78.8538 62.9002 79.0276 62.75 79.2496V79.2496Z" fill="#9FB1FF"/>
<path d="M66.0957 80.5372C66.0957 80.7602 66.2018 80.9504 66.3505 81.0212C66.7433 80.7438 67.0187 80.5372 67.0187 80.5372C67.0187 80.5372 66.7447 80.3296 66.3505 80.0527C66.2018 80.1209 66.0957 80.3132 66.0957 80.5372Z" fill="#182D4C"/>
<defs>
<linearGradient id="paint0_linear_141_16" x1="23.6416" y1="50.9013" x2="27.0321" y2="50.9013" gradientUnits="userSpaceOnUse">
<stop stop-color="#FE7062"/>
<stop offset="1" stop-color="#FF928E"/>
</linearGradient>
<linearGradient id="paint1_linear_141_16" x1="18.0323" y1="51.8375" x2="25.069" y2="51.8375" gradientUnits="userSpaceOnUse">
<stop stop-color="#FE7062"/>
<stop offset="1" stop-color="#FF928E"/>
</linearGradient>
<linearGradient id="paint2_linear_141_16" x1="17.8643" y1="53.5445" x2="21.7481" y2="53.5445" gradientUnits="userSpaceOnUse">
<stop stop-color="#E1473D"/>
<stop offset="1" stop-color="#E9605A"/>
</linearGradient>
<linearGradient id="paint3_linear_141_16" x1="15.5663" y1="51.7245" x2="22.1445" y2="51.7245" gradientUnits="userSpaceOnUse">
<stop stop-color="#FE7062"/>
<stop offset="1" stop-color="#FF928E"/>
</linearGradient>
<linearGradient id="paint4_linear_141_16" x1="52.8359" y1="40.9269" x2="57.6217" y2="40.9269" gradientUnits="userSpaceOnUse">
<stop stop-color="#FE7062"/>
<stop offset="1" stop-color="#FF928E"/>
</linearGradient>
<linearGradient id="paint5_linear_141_16" x1="40.8135" y1="55.073" x2="44.2236" y2="55.073" gradientUnits="userSpaceOnUse">
<stop stop-color="#FE7062"/>
<stop offset="1" stop-color="#FF928E"/>
</linearGradient>
<linearGradient id="paint6_linear_141_16" x1="33.5044" y1="39.1225" x2="37.6269" y2="39.1225" gradientUnits="userSpaceOnUse">
<stop stop-color="#FE7062"/>
<stop offset="1" stop-color="#FF928E"/>
</linearGradient>
<linearGradient id="paint7_linear_141_16" x1="50.959" y1="17.7366" x2="52.3979" y2="17.7366" gradientUnits="userSpaceOnUse">
<stop stop-color="#FE7062"/>
<stop offset="1" stop-color="#FF928E"/>
</linearGradient>
<linearGradient id="paint8_linear_141_16" x1="58.3535" y1="16.6804" x2="59.7925" y2="16.6804" gradientUnits="userSpaceOnUse">
<stop stop-color="#FE7062"/>
<stop offset="1" stop-color="#FF928E"/>
</linearGradient>
<linearGradient id="paint9_linear_141_16" x1="88.0322" y1="40.6611" x2="97.5232" y2="40.6611" gradientUnits="userSpaceOnUse">
<stop stop-color="#FE7062"/>
<stop offset="1" stop-color="#FF928E"/>
</linearGradient>
<linearGradient id="paint10_linear_141_16" x1="80.8286" y1="28.8607" x2="84.3354" y2="28.8607" gradientUnits="userSpaceOnUse">
<stop stop-color="#E1473D"/>
<stop offset="1" stop-color="#E9605A"/>
</linearGradient>
<linearGradient id="paint11_linear_141_16" x1="74.1217" y1="26.8287" x2="89.0135" y2="26.8287" gradientUnits="userSpaceOnUse">
<stop stop-color="#FE7062"/>
<stop offset="1" stop-color="#FF928E"/>
</linearGradient>
<linearGradient id="paint12_linear_141_16" x1="80.8286" y1="29.6791" x2="83.3795" y2="29.6791" gradientUnits="userSpaceOnUse">
<stop stop-color="#FE7062"/>
<stop offset="1" stop-color="#FF928E"/>
</linearGradient>
<linearGradient id="paint13_linear_141_16" x1="63.3838" y1="38.3755" x2="70.472" y2="38.3755" gradientUnits="userSpaceOnUse">
<stop stop-color="#FE7062"/>
<stop offset="1" stop-color="#FF928E"/>
</linearGradient>
<linearGradient id="paint14_linear_141_16" x1="67.4785" y1="47.7994" x2="76.8001" y2="47.7994" gradientUnits="userSpaceOnUse">
<stop stop-color="#E1473D"/>
<stop offset="1" stop-color="#E9605A"/>
</linearGradient>
<linearGradient id="paint15_linear_141_16" x1="72.8617" y1="54.1605" x2="79.8945" y2="54.1605" gradientUnits="userSpaceOnUse">
<stop stop-color="#FE7062"/>
<stop offset="1" stop-color="#FF928E"/>
</linearGradient>
<linearGradient id="paint16_linear_141_16" x1="72.9072" y1="56.3173" x2="77.0218" y2="56.3173" gradientUnits="userSpaceOnUse">
<stop stop-color="#E1473D"/>
<stop offset="1" stop-color="#E9605A"/>
</linearGradient>
<linearGradient id="paint17_linear_141_16" x1="69.4863" y1="52.8725" x2="77.3626" y2="52.8725" gradientUnits="userSpaceOnUse">
<stop stop-color="#FE7062"/>
<stop offset="1" stop-color="#FF928E"/>
</linearGradient>
<linearGradient id="paint18_linear_141_16" x1="36.9907" y1="80.5304" x2="64.8965" y2="80.5304" gradientUnits="userSpaceOnUse">
<stop stop-color="#FE7062"/>
<stop offset="1" stop-color="#FF928E"/>
</linearGradient>
<linearGradient id="paint19_linear_141_16" x1="37.0332" y1="81.9119" x2="64.8535" y2="81.9119" gradientUnits="userSpaceOnUse">
<stop stop-color="#E1473D"/>
<stop offset="1" stop-color="#E9605A"/>
</linearGradient>
</defs>
</svg>
