<svg width="150" height="49" viewBox="0 0 150 49" fill="none" xmlns="http://www.w3.org/2000/svg">
<g clip-path="url(#clip0_37_1473)">
<path fill-rule="evenodd" clip-rule="evenodd" d="M29 37C30.3132 37 31.6136 36.7413 32.8268 36.2388C34.0401 35.7362 35.1425 34.9997 36.0711 34.0711C36.9997 33.1425 37.7362 32.0401 38.2388 30.8268C38.7413 29.6136 39 28.3132 39 27C39 23.0218 37.4196 19.2064 34.6066 16.3934C31.7936 13.5804 27.9782 12 24 12C20.0218 12 16.2064 13.5804 13.3934 16.3934C10.5804 19.2064 9 23.0218 9 27C9 28.3132 9.25866 29.6136 9.7612 30.8268C10.2637 32.0401 11.0003 33.1425 11.9289 34.0711C12.8575 34.9997 13.9599 35.7362 15.1732 36.2388C16.3864 36.7413 17.6868 37 19 37H29ZM24 16C21.0826 16 18.2847 17.1589 16.2218 19.2218C14.1589 21.2847 13 24.0826 13 27C13 27.7879 13.1552 28.5681 13.4567 29.2961C13.7583 30.0241 14.2002 30.6855 14.7574 31.2426C15.3145 31.7998 15.9759 32.2417 16.7039 32.5433C17.4319 32.8448 18.2121 33 19 33H29C29.7879 33 30.5681 32.8448 31.2961 32.5433C32.0241 32.2417 32.6855 31.7998 33.2426 31.2426C33.7998 30.6855 34.2417 30.0241 34.5433 29.2961C34.8448 28.5681 35 27.7879 35 27C35 24.0826 33.8411 21.2847 31.7782 19.2218C29.7153 17.1589 26.9174 16 24 16Z" fill="#9747FF"/>
<path fill-rule="evenodd" clip-rule="evenodd" d="M17 42C15.2928 42 13.6024 41.612 12.0251 40.8582C10.4479 40.1044 9.0148 38.9995 7.80761 37.6066C6.60047 36.2137 5.64289 34.5602 4.98957 32.7403C4.33626 30.9204 4 28.9698 4 27C4 21.6957 6.10714 16.6086 9.85787 12.8579C13.6086 9.10714 18.6957 7 24 7C29.3043 7 34.3914 9.10714 38.1421 12.8579C41.8929 16.6086 44 21.6957 44 27C44 28.9698 43.6637 30.9204 43.0104 32.7403C42.3571 34.5602 41.3995 36.2137 40.1924 37.6066C38.9852 38.9995 37.5521 40.1044 35.9749 40.8582C34.3976 41.612 32.7072 42 31 42H17ZM12.6863 15.6863C15.6869 12.6857 19.7565 11 24 11C28.2435 11 32.3131 12.6857 35.3137 15.6863C38.3143 18.6869 40 22.7565 40 27C40 28.5179 39.7404 30.0107 39.2457 31.3888C38.751 32.7668 38.0376 33.9854 37.1696 34.9869C36.3026 35.9873 35.3045 36.7452 34.25 37.2492C33.1981 37.752 32.0957 38 31 38H17C15.9043 38 14.8019 37.752 13.75 37.2492C12.6955 36.7452 11.6974 35.9873 10.8304 34.9869C9.96242 33.9854 9.24903 32.7668 8.75433 31.3888C8.25961 30.0107 8 28.5179 8 27C8 22.7565 9.68571 18.6869 12.6863 15.6863Z" fill="#9747FF"/>
<path d="M29 32H23.9956C23.6596 31.9997 23.3261 31.9655 23 31.899C22.368 31.77 21.7637 31.5192 21.2222 31.1573C20.3999 30.6079 19.759 29.8271 19.3806 28.9134C19.2579 28.6171 19.1645 28.3112 19.101 28C18.9686 27.3515 18.9657 26.6799 19.0961 26.0245C19.289 25.0546 19.7652 24.1637 20.4645 23.4645C21.1637 22.7652 22.0546 22.289 23.0245 22.0961C23.0549 22.09 23.0852 22.0843 23.1156 22.0788C23.4087 22.0262 23.7047 22 24 22C24.6535 22 25.3038 22.1281 25.9134 22.3806C26.827 22.759 27.6079 23.3999 28.1573 24.2221C28.7068 25.0444 29 26.0111 29 27H25C25 26.8022 24.9414 26.6089 24.8315 26.4444C24.7216 26.28 24.5654 26.1518 24.3827 26.0761C24.2 26.0004 23.9989 25.9806 23.8049 26.0192C23.6109 26.0578 23.4327 26.153 23.2929 26.2929C23.153 26.4327 23.0578 26.6109 23.0192 26.8049C22.9806 26.9989 23.0004 27.2 23.0761 27.3827C23.1518 27.5654 23.28 27.7216 23.4444 27.8315C23.6089 27.9414 23.8022 28 24 28H29C29.1313 28 29.2614 27.9741 29.3827 27.9239C29.504 27.8736 29.6142 27.8 29.7071 27.7071C29.8 27.6142 29.8736 27.504 29.9239 27.3827C29.9741 27.2614 30 27.1313 30 27C30 25.4087 29.3679 23.8826 28.2426 22.7574C27.1174 21.6321 25.5913 21 24 21C23.8274 21 23.6556 21.0074 23.485 21.0221C23.0657 21.0582 22.6535 21.1382 22.255 21.2594C21.8629 21.3785 21.484 21.5376 21.1243 21.734C20.7123 21.959 20.3255 22.233 19.973 22.5522C19.8996 22.6186 19.8277 22.687 19.7574 22.7574C19.2651 23.2496 18.8672 23.8187 18.5753 24.4363C18.4294 24.7451 18.3099 25.066 18.2185 25.3956C18.1139 25.7724 18.0459 26.1604 18.0166 26.5544C18.0056 26.7022 18 26.8508 18 27C18 27.7841 18.1537 28.5646 18.4567 29.2961C18.9109 30.3925 19.6799 31.3295 20.6666 31.9888C20.6722 31.9926 20.6778 31.9963 20.6834 32H19C18.3434 32 17.6932 31.8707 17.0866 31.6194C16.48 31.3681 15.9288 30.9998 15.4645 30.5355C15.0002 30.0712 14.6319 29.52 14.3806 28.9134C14.1293 28.3068 14 27.6566 14 27C14 24.3478 15.0536 21.8043 16.9289 19.9289C18.8043 18.0536 21.3478 17 24 17C26.6522 17 29.1957 18.0536 31.0711 19.9289C32.9464 21.8043 34 24.3478 34 27C34 27.6566 33.8707 28.3068 33.6194 28.9134C33.3681 29.52 32.9998 30.0712 32.5355 30.5355C32.0712 30.9998 31.52 31.3681 30.9134 31.6194C30.3068 31.8707 29.6566 32 29 32Z" fill="#9747FF"/>
</g>
<path d="M63.1 26.74H59.26V32.5H56.68V18.9H64.38L64.78 20.94H59.26V24.72H62.72L63.1 26.74ZM68.96 18.38V32.5H66.38V18.6L68.96 18.38ZM76.0325 32.74C74.4992 32.74 73.2992 32.28 72.4325 31.36C71.5792 30.4267 71.1525 29.18 71.1525 27.62C71.1525 26.0733 71.5992 24.84 72.4925 23.92C73.3992 23 74.6325 22.54 76.1925 22.54C77.8058 22.54 79.0525 23.02 79.9325 23.98C80.8258 24.9267 81.2725 26.1733 81.2725 27.72C81.2725 29.2667 80.7925 30.4933 79.8325 31.4C78.8725 32.2933 77.6058 32.74 76.0325 32.74ZM78.5925 27.72C78.5925 26.8 78.3858 26.08 77.9725 25.56C77.5725 25.0267 76.9992 24.76 76.2525 24.76C75.4925 24.76 74.8992 24.9933 74.4725 25.46C74.0458 25.9267 73.8325 26.64 73.8325 27.6C73.8325 28.56 74.0125 29.2867 74.3725 29.78C74.7458 30.2733 75.3125 30.52 76.0725 30.52C76.8192 30.52 77.4258 30.3 77.8925 29.86C78.3592 29.4067 78.5925 28.6933 78.5925 27.72ZM91.6094 32.5L89.5894 26.56L87.6494 32.5H85.4494L82.2294 23.16L84.9094 22.8L86.6094 28.44L88.2094 22.8H91.0694L92.7694 28.44L94.3494 22.8H97.0894L93.7894 32.5H91.6094ZM103.067 24.76C102.334 24.76 101.76 25.04 101.347 25.6C100.934 26.1467 100.727 26.8333 100.727 27.66C100.727 28.5 100.934 29.1867 101.347 29.72C101.76 30.2533 102.334 30.52 103.067 30.52C103.52 30.52 103.927 30.4667 104.287 30.36C104.66 30.24 105.08 30.0733 105.547 29.86L106.287 31.74C105.834 32.0867 105.28 32.34 104.627 32.5C103.987 32.66 103.46 32.74 103.047 32.74C101.474 32.74 100.247 32.28 99.367 31.36C98.487 30.44 98.047 29.2067 98.047 27.66C98.047 26.1133 98.487 24.8733 99.367 23.94C100.247 23.0067 101.474 22.54 103.047 22.54C103.46 22.54 103.98 22.6267 104.607 22.8C105.247 22.9733 105.807 23.2267 106.287 23.56L105.547 25.42C105.08 25.2067 104.66 25.0467 104.287 24.94C103.927 24.82 103.52 24.76 103.067 24.76ZM113.494 22.8L114.014 24.88C113.574 24.88 113.06 25.0067 112.474 25.26C111.9 25.5133 111.334 25.8867 110.774 26.38V32.5H108.174V22.8H109.534L110.394 24.22C110.794 23.8733 111.28 23.5533 111.854 23.26C112.427 22.9533 112.974 22.8 113.494 22.8ZM117.282 29.6C117.282 29.88 117.395 30.1333 117.622 30.36C117.848 30.5733 118.148 30.68 118.522 30.68C118.882 30.68 119.242 30.6 119.602 30.44C119.975 30.28 120.328 30.04 120.662 29.72V28.24H118.702C118.248 28.24 117.895 28.38 117.642 28.66C117.402 28.94 117.282 29.2533 117.282 29.6ZM118.562 32.74C117.375 32.74 116.495 32.4533 115.922 31.88C115.348 31.2933 115.062 30.5333 115.062 29.6C115.062 28.6 115.402 27.8333 116.082 27.3C116.762 26.7667 117.648 26.5 118.742 26.5H120.642C120.628 26.0067 120.482 25.6267 120.202 25.36C119.935 25.08 119.562 24.94 119.082 24.94C118.628 24.94 118.135 25.0067 117.602 25.14C117.068 25.26 116.622 25.4067 116.262 25.58L115.562 23.42C115.935 23.1667 116.502 22.96 117.262 22.8C118.035 22.6267 118.628 22.54 119.042 22.54C120.202 22.54 121.195 22.88 122.022 23.56C122.848 24.2267 123.262 25.08 123.262 26.12V32.5H121.922L121.282 31.68C120.922 31.96 120.495 32.2067 120.002 32.42C119.522 32.6333 119.042 32.74 118.562 32.74ZM126.034 22.08C126.034 20.96 126.361 20.08 127.014 19.44C127.681 18.7867 128.614 18.46 129.814 18.46C130.121 18.46 130.467 18.52 130.854 18.64C131.241 18.76 131.541 18.9067 131.754 19.08L131.014 20.96C130.814 20.88 130.621 20.82 130.434 20.78C130.261 20.7267 130.094 20.7 129.934 20.7C129.481 20.7 129.147 20.8667 128.934 21.2C128.734 21.52 128.634 21.9333 128.634 22.44V23H130.474L131.294 25.02H128.634V32.5H126.034V25.02H124.534V23H126.034V22.08ZM139.095 32.3C138.882 32.4733 138.575 32.6133 138.175 32.72C137.789 32.84 137.442 32.9 137.135 32.9C135.935 32.9 134.989 32.6 134.295 32C133.615 31.3867 133.275 30.52 133.275 29.4V24.82H131.975V22.82H133.275V20.52L135.855 20.06V22.82H137.615L138.415 24.82H135.855V28.94C135.855 29.4467 135.975 29.8667 136.215 30.2C136.455 30.52 136.809 30.68 137.275 30.68C137.449 30.68 137.622 30.66 137.795 30.62C137.969 30.58 138.149 30.5133 138.335 30.42L139.095 32.3Z" fill="black"/>
<defs>
<clipPath id="clip0_37_1473">
<rect width="40" height="35" fill="white" transform="translate(4 7)"/>
</clipPath>
</defs>
</svg>
