<svg width="750" height="500" viewBox="0 0 750 500" fill="none" xmlns="http://www.w3.org/2000/svg">
<path d="M108.55 252.37C108.55 252.37 100.63 251.8 101.36 269.57C102.09 287.34 103.9 296.79 103.9 296.79C103.9 296.79 103.67 300.73 100.62 299.96C97.5698 299.19 91.8298 295.35 88.9998 298.22C86.1698 301.09 87.0998 305.75 90.9998 311.12C94.8998 316.49 103 328.56 103.74 329.66C104.48 330.76 104.74 332.75 102.58 332.55C100.42 332.35 85.8198 327.41 83.8898 334.48C81.9598 341.55 95.2798 354.72 96.7098 356.18C98.1398 357.64 98.2098 358.58 97.6298 359.47C97.0498 360.36 92.2998 358.23 88.0898 356.99C83.8798 355.75 78.7898 355.06 78.0098 359.23C77.2298 363.4 83.1098 375.61 105.08 388.43L115.65 393.71L125.65 387.33C146.23 372.33 150.84 359.64 149.65 355.57C148.46 351.5 143.46 352.7 139.39 354.35C135.32 356 130.82 358.59 130.15 357.76C129.48 356.93 129.47 356.01 130.74 354.41C132.01 352.81 143.95 338.36 141.32 331.53C138.69 324.7 124.66 331.07 122.53 331.53C120.4 331.99 120.48 329.91 121.09 328.76C121.7 327.61 128.57 314.76 131.91 309.04C135.25 303.32 135.84 298.67 132.61 296.04C129.38 293.41 124.18 297.86 121.22 298.93C118.26 300 117.64 296.11 117.64 296.11C117.64 296.11 118.5 286.52 117.44 268.77C116.38 251.02 108.38 252.45 108.38 252.45" fill="#EBEBEB"/>
<path d="M109.18 268.28C109.18 268.28 109.18 268.41 109.18 268.65C109.18 268.89 109.18 269.28 109.26 269.74C109.33 270.74 109.43 272.13 109.55 273.94C109.79 277.58 110.1 282.86 110.46 289.38C111.19 302.38 112.03 320.43 112.9 340.33C113.77 360.23 114.58 378.26 115.23 391.33C115.56 397.84 115.83 403.11 116.01 406.77C116.1 408.58 116.17 409.99 116.22 410.97C116.22 411.44 116.22 411.8 116.22 412.06C116.22 412.32 116.22 412.44 116.22 412.44C116.212 412.317 116.212 412.193 116.22 412.07C116.22 411.8 116.22 411.44 116.14 410.98C116.07 409.98 115.98 408.59 115.85 406.78C115.61 403.14 115.3 397.86 114.94 391.35C114.22 378.35 113.37 360.29 112.5 340.35C111.63 320.41 110.83 302.43 110.18 289.35C109.85 282.85 109.58 277.57 109.39 273.91C109.3 272.1 109.23 270.69 109.18 269.71C109.18 269.24 109.18 268.88 109.18 268.62C109.175 268.507 109.175 268.393 109.18 268.28Z" fill="#E0E0E0"/>
<path d="M96.8098 303.9C97.0498 304.058 97.2713 304.242 97.4698 304.45C97.8698 304.82 98.4698 305.37 99.1398 306.06C100.54 307.44 102.41 309.4 104.44 311.6L109.61 317.26L111.19 318.97C111.398 319.164 111.583 319.382 111.74 319.62C111.494 319.47 111.268 319.289 111.07 319.08C110.67 318.71 110.07 318.15 109.41 317.46C108.02 316.06 106.17 314.08 104.15 311.88L98.9398 306.26L97.3598 304.56C97.1494 304.364 96.9646 304.142 96.8098 303.9Z" fill="#E0E0E0"/>
<path d="M112.79 319.27C112.71 319.19 116.57 315.14 121.42 310.27C126.27 305.4 130.26 301.44 130.34 301.51C130.42 301.58 126.55 305.64 121.71 310.51C116.87 315.38 112.86 319.35 112.79 319.27Z" fill="#E0E0E0"/>
<path d="M112.74 349.9C112.966 349.713 113.215 349.555 113.48 349.43L115.55 348.27C117.29 347.27 119.69 345.93 122.29 344.33C124.89 342.73 127.2 341.22 128.87 340.1L130.87 338.79C131.102 338.612 131.354 338.461 131.62 338.34C131.62 338.34 131.4 338.57 130.96 338.92C130.52 339.27 129.87 339.75 129.06 340.34C127.44 341.51 125.15 343.08 122.54 344.67C119.93 346.26 117.49 347.6 115.71 348.52C114.82 348.98 114.09 349.34 113.58 349.57C113.311 349.707 113.03 349.818 112.74 349.9Z" fill="#E0E0E0"/>
<path d="M95.23 339.18C95.4869 339.261 95.7322 339.376 95.96 339.52L97.88 340.59C99.49 341.5 101.7 342.79 104.12 344.23C106.54 345.67 108.74 347 110.31 347.98L112.16 349.15C112.393 349.287 112.611 349.447 112.81 349.63C112.551 349.554 112.305 349.439 112.08 349.29C111.62 349.05 110.97 348.68 110.16 348.22C108.55 347.31 106.34 346.02 103.92 344.58C101.5 343.14 99.3 341.81 97.73 340.83C96.95 340.35 96.32 339.94 95.88 339.66C95.6469 339.523 95.4291 339.362 95.23 339.18Z" fill="#E0E0E0"/>
<path d="M91.76 366.21C92.0821 366.334 92.3932 366.484 92.69 366.66L95.15 368C97.22 369.16 100.06 370.79 103.15 372.61C106.24 374.43 109.15 376.1 111.15 377.32L113.54 378.79C113.843 378.954 114.127 379.148 114.39 379.37C114.064 379.259 113.752 379.111 113.46 378.93L111 377.59C108.94 376.43 106.09 374.8 103 372.98C99.91 371.16 97.06 369.49 95 368.27L92.61 366.8C92.3028 366.64 92.0172 366.442 91.76 366.21Z" fill="#E0E0E0"/>
<path d="M114 378.93C114.282 378.689 114.591 378.481 114.92 378.31L117.49 376.75C119.66 375.43 122.64 373.59 125.89 371.48C129.14 369.37 132.03 367.38 134.11 365.93C135.11 365.23 135.93 364.66 136.58 364.21C136.869 363.982 137.181 363.784 137.51 363.62C137.252 363.885 136.971 364.126 136.67 364.34C136.12 364.78 135.3 365.4 134.28 366.16C132.23 367.67 129.36 369.7 126.11 371.81C122.86 373.92 119.84 375.73 117.63 376.99C116.53 377.62 115.63 378.12 115 378.45C114.681 378.637 114.346 378.798 114 378.93Z" fill="#E0E0E0"/>
<path d="M129.84 397.17H100.61L110.15 469.41H120.3L129.84 397.17Z" fill="#E0E0E0"/>
<path d="M102.12 406.05C102.12 406.05 102.12 406.15 102.28 406.3C102.466 406.526 102.707 406.702 102.98 406.81C103.49 406.986 104.033 407.044 104.569 406.978C105.104 406.912 105.618 406.725 106.07 406.43C107.25 405.78 108.28 404.5 109.86 403.93C111.616 403.373 113.508 403.411 115.24 404.04C116.999 404.643 118.678 405.459 120.24 406.47C121.547 407.286 122.906 408.014 124.31 408.65C125.264 409.08 126.274 409.373 127.31 409.52C127.592 409.559 127.876 409.579 128.16 409.58C128.35 409.58 128.46 409.58 128.46 409.58C127.076 409.368 125.729 408.96 124.46 408.37C123.084 407.697 121.749 406.946 120.46 406.12C118.88 405.068 117.168 404.227 115.37 403.62C113.543 402.953 111.543 402.928 109.7 403.55C108.919 403.869 108.196 404.315 107.56 404.87C107.031 405.338 106.474 405.772 105.89 406.17C105.479 406.453 105.011 406.645 104.519 406.731C104.028 406.817 103.523 406.797 103.04 406.67C102.699 406.519 102.388 406.309 102.12 406.05Z" fill="#F5F5F5"/>
<path d="M103.19 419.35C103.19 419.35 103.42 419.06 103.88 418.58C104.54 417.923 105.335 417.418 106.21 417.1C107.513 416.63 108.896 416.42 110.28 416.48C111.989 416.612 113.689 416.846 115.37 417.18C117.086 417.51 118.842 417.581 120.58 417.39C121.998 417.212 123.381 416.817 124.68 416.22C125.551 415.826 126.377 415.337 127.14 414.76C127.432 414.565 127.695 414.33 127.92 414.06C126.842 414.762 125.712 415.381 124.54 415.91C123.26 416.429 121.913 416.765 120.54 416.91C118.843 417.066 117.133 416.982 115.46 416.66C113.76 416.321 112.04 416.097 110.31 415.99C108.874 415.943 107.443 416.195 106.11 416.73C105.206 417.093 104.4 417.666 103.76 418.4C103.594 418.603 103.447 418.821 103.32 419.05C103.21 419.26 103.18 419.34 103.19 419.35Z" fill="#F5F5F5"/>
<path d="M126.53 426.48C126.295 426.287 126.022 426.144 125.73 426.06C124.95 425.767 124.131 425.592 123.3 425.54C122.076 425.459 120.847 425.529 119.64 425.75C118.28 425.97 116.81 426.34 115.28 426.67C113.851 427.006 112.387 427.17 110.92 427.16C109.732 427.133 108.561 426.879 107.47 426.41C106.464 425.938 105.571 425.256 104.85 424.41C104.956 424.699 105.123 424.961 105.34 425.18C105.9 425.806 106.58 426.312 107.34 426.67C108.461 427.203 109.679 427.503 110.92 427.55C112.423 427.587 113.925 427.433 115.39 427.09C116.94 426.76 118.39 426.37 119.72 426.09C120.896 425.866 122.092 425.763 123.29 425.78C124.396 425.871 125.485 426.106 126.53 426.48Z" fill="#F5F5F5"/>
<path d="M105.77 436.5C106.663 436.107 107.656 436.006 108.61 436.21C109.651 436.458 110.658 436.831 111.61 437.32C112.824 437.899 114.131 438.258 115.47 438.38C117.916 438.595 120.367 438.027 122.47 436.76C123.096 436.377 123.679 435.927 124.21 435.42C124.412 435.239 124.587 435.031 124.73 434.8C123.951 435.4 123.139 435.957 122.3 436.47C120.23 437.603 117.871 438.1 115.52 437.9C112.75 437.75 110.63 436.09 108.71 435.9C107.969 435.77 107.208 435.836 106.5 436.09C106.222 436.153 105.968 436.295 105.77 436.5Z" fill="#F5F5F5"/>
<path d="M107.4 450.36C108.239 450.388 109.074 450.224 109.84 449.88C111.31 449.39 113.13 448.26 115.25 447.41C116.241 447.013 117.293 446.793 118.36 446.76C119.225 446.768 120.077 446.962 120.86 447.33C121.568 447.711 122.182 448.244 122.66 448.89C122.66 448.89 122.66 448.64 122.39 448.28C122.036 447.748 121.559 447.31 121 447C120.187 446.551 119.278 446.304 118.35 446.28C117.222 446.284 116.105 446.504 115.06 446.93C112.86 447.81 111.06 448.93 109.7 449.52C108.34 450.11 107.39 450.28 107.4 450.36Z" fill="#F5F5F5"/>
<path d="M108.84 456.81C109.424 457.099 110.047 457.301 110.69 457.41C113.74 458.143 116.876 458.452 120.01 458.33C120.661 458.343 121.31 458.266 121.94 458.1C121.94 457.96 118.94 458.1 115.36 457.72C111.78 457.34 108.87 456.67 108.84 456.81Z" fill="#F5F5F5"/>
<path d="M650.232 55.7203L640.272 55.7742L640.54 105.313L650.5 105.26L650.232 55.7203Z" fill="#E0E0E0"/>
<path d="M579.814 55.8517L554.034 55.9912L554.182 83.3408L579.962 83.2013L579.814 55.8517Z" fill="#EBEBEB"/>
<path d="M605.473 55.7128L579.693 55.8523L579.841 83.2019L605.621 83.0624L605.473 55.7128Z" fill="#F5F5F5"/>
<path d="M554.07 63.5801C571.2 63.7201 588.38 63.5801 605.51 63.3401C605.574 63.3278 605.632 63.2937 605.673 63.2435C605.715 63.1933 605.737 63.1302 605.737 63.0651C605.737 63 605.715 62.9369 605.673 62.8867C605.632 62.8365 605.574 62.8023 605.51 62.7901C588.38 62.7001 571.2 62.7901 554.08 63.1101C554.026 63.1213 553.977 63.1508 553.943 63.1936C553.908 63.2364 553.889 63.2899 553.889 63.3451C553.889 63.4003 553.908 63.4538 553.943 63.4966C553.977 63.5394 554.026 63.5689 554.08 63.5801H554.07Z" fill="#E0E0E0"/>
<path d="M584.79 82.7444L537.951 82.9978L538.071 105.287L584.911 105.034L584.79 82.7444Z" fill="#EBEBEB"/>
<path d="M631.418 82.4922L584.579 82.7456L584.699 105.035L631.538 104.782L631.418 82.4922Z" fill="#F5F5F5"/>
<path d="M538 89.23C569.11 89.58 600.34 89.23 631.45 88.77C631.514 88.7577 631.572 88.7235 631.613 88.6734C631.655 88.6232 631.677 88.5601 631.677 88.495C631.677 88.4298 631.655 88.3668 631.613 88.3166C631.572 88.2664 631.514 88.2322 631.45 88.22C600.33 88.05 569.1 88.07 537.99 88.76C537.936 88.7712 537.887 88.8007 537.852 88.8435C537.818 88.8863 537.799 88.9398 537.799 88.995C537.799 89.0502 537.818 89.1037 537.852 89.1465C537.887 89.1893 537.936 89.2188 537.99 89.23H538Z" fill="#E0E0E0"/>
<path d="M701.94 105.32H520.47V113.3H701.94V105.32Z" fill="#E0E0E0"/>
<path d="M557.55 109.15H550.18V136.39H557.55V109.15Z" fill="#E0E0E0"/>
<path d="M667.52 109.15H660.15V136.39H667.52V109.15Z" fill="#E0E0E0"/>
<path d="M659.952 37.2479L649.992 37.3018L650.361 105.431L660.321 105.377L659.952 37.2479Z" fill="#EBEBEB"/>
<path d="M675.501 49.9436L660.031 50.0273L660.329 105.237L675.799 105.153L675.501 49.9436Z" fill="#F5F5F5"/>
<path d="M675.39 60.6101C672.822 60.8675 670.239 60.9543 667.66 60.8701C665.077 60.9541 662.491 60.8673 659.92 60.6101C665.07 60.2501 670.24 60.2501 675.39 60.6101Z" fill="#E0E0E0"/>
<path d="M675.39 58.29C672.822 58.5474 670.239 58.6343 667.66 58.55C665.077 58.6341 662.491 58.5472 659.92 58.29C665.07 57.93 670.24 57.93 675.39 58.29Z" fill="#E0E0E0"/>
<path d="M675.39 96.8701C670.24 97.2301 665.07 97.2301 659.92 96.8701C665.07 96.5101 670.24 96.5101 675.39 96.8701Z" fill="#E0E0E0"/>
<path d="M675.39 94.55C670.24 94.91 665.07 94.91 659.92 94.55C665.071 94.2034 670.239 94.2034 675.39 94.55Z" fill="#E0E0E0"/>
<path d="M667.91 89.4899C667.76 89.4899 667.64 83.9199 667.64 77.0499C667.64 70.1799 667.76 64.6099 667.91 64.6099C668.06 64.6099 668.18 70.1799 668.18 77.0499C668.18 83.9199 668.06 89.4899 667.91 89.4899Z" fill="#E0E0E0"/>
<path d="M692.4 63.53H675.56V105.2H692.4V63.53Z" fill="#EBEBEB"/>
<path d="M657.68 48.9201C657.68 49.4857 657.512 50.0387 657.198 50.509C656.884 50.9793 656.437 51.3459 655.914 51.5624C655.392 51.7788 654.817 51.8355 654.262 51.7251C653.707 51.6147 653.198 51.3424 652.798 50.9424C652.398 50.5424 652.125 50.0328 652.015 49.478C651.905 48.9232 651.961 48.3482 652.178 47.8256C652.394 47.303 652.761 46.8563 653.231 46.5421C653.701 46.2278 654.254 46.0601 654.82 46.0601C655.578 46.0601 656.306 46.3614 656.842 46.8977C657.379 47.4341 657.68 48.1615 657.68 48.9201Z" fill="#E0E0E0"/>
<path d="M655.7 56.79H653.93V97.32H655.7V56.79Z" fill="#E0E0E0"/>
<path d="M185.78 38.79H80.22V191.79H185.78V38.79Z" fill="#E0E0E0"/>
<path d="M180.49 38.79H74.9299V191.79H180.49V38.79Z" fill="#F5F5F5"/>
<path d="M167.37 55.3599H88.0398V175.22H167.37V55.3599Z" fill="white"/>
<path d="M167.37 175.22C167.37 175.22 167.37 175.02 167.37 174.63C167.37 174.24 167.37 173.63 167.37 172.93C167.37 171.43 167.37 169.22 167.37 166.36C167.37 160.61 167.37 152.24 167.3 141.67C167.3 120.53 167.22 90.6101 167.17 55.3601L167.43 55.6201H88.11L88.4 55.3301C88.4 100.55 88.4 142.23 88.34 175.19L88 175L145.74 175.12L161.69 175.18H165.88H167.33H165.93H161.78L145.88 175.24L88 175.45H87.77V175.22C87.77 142.22 87.77 100.58 87.77 55.3601V55.0701H88.07H167.39H167.65V55.3301C167.65 90.6501 167.55 120.63 167.52 141.81C167.52 152.36 167.47 160.71 167.45 166.44C167.45 169.28 167.45 171.44 167.45 172.96C167.45 173.69 167.45 174.24 167.45 174.63C167.45 175.02 167.37 175.22 167.37 175.22Z" fill="#E0E0E0"/>
<path d="M180.78 38.79C180.234 39.7531 179.605 40.6665 178.9 41.52C177.67 43.16 175.9 45.39 173.9 47.81C171.9 50.23 170.05 52.35 168.68 53.87C167.975 54.7245 167.199 55.5174 166.36 56.24C166.953 55.3099 167.622 54.4302 168.36 53.61L173.44 47.44L178.52 41.27C179.205 40.3834 179.96 39.554 180.78 38.79Z" fill="#E0E0E0"/>
<path d="M167.77 174.83C171.715 181.104 176.358 186.911 181.61 192.14Z" fill="white"/>
<path d="M181.61 192.14C180.736 191.488 179.929 190.751 179.2 189.94C177.359 188.072 175.617 186.109 173.98 184.06C172.338 182.01 170.803 179.877 169.38 177.67C168.749 176.78 168.21 175.828 167.77 174.83C168.483 175.651 169.135 176.523 169.72 177.44C170.88 179.07 172.52 181.31 174.43 183.7C176.34 186.09 178.16 188.17 179.49 189.7C180.256 190.46 180.965 191.275 181.61 192.14Z" fill="#E0E0E0"/>
<path d="M74.9099 191.67L88.7399 174.61Z" fill="white"/>
<path d="M88.7399 174.61C86.6628 177.628 84.4298 180.535 82.0499 183.32C79.8189 186.227 77.4356 189.014 74.9099 191.67C76.9881 188.666 79.2211 185.772 81.5999 183C83.8333 180.082 86.2165 177.281 88.7399 174.61Z" fill="#E0E0E0"/>
<path d="M74.9299 38.79C77.3112 41.332 79.5512 44.0027 81.6399 46.79C83.8763 49.4684 85.966 52.2658 87.8999 55.17C85.5187 52.628 83.2787 49.9574 81.1899 47.17C78.9498 44.4947 76.8599 41.6971 74.9299 38.79Z" fill="#E0E0E0"/>
<path d="M142.65 79.7H116.09V155.12H142.65V79.7Z" fill="#E0E0E0"/>
<path d="M635.11 333.69H450.66V418.76H635.11V333.69Z" fill="#F5F5F5"/>
<path d="M630.72 414.75H454.88V338.17H630.72V414.75ZM456 413.6H629.57V339.31H456V413.6Z" fill="#E0E0E0"/>
<path d="M680.17 333.69H635.11V418.76H680.17V333.69Z" fill="#E0E0E0"/>
<path d="M455.45 361.87H630.14C630.194 361.859 630.242 361.829 630.277 361.786C630.312 361.744 630.331 361.69 630.331 361.635C630.331 361.58 630.312 361.526 630.277 361.483C630.242 361.441 630.194 361.411 630.14 361.4H455.45C455.396 361.411 455.347 361.441 455.312 361.483C455.278 361.526 455.259 361.58 455.259 361.635C455.259 361.69 455.278 361.744 455.312 361.786C455.347 361.829 455.396 361.859 455.45 361.87Z" fill="#E0E0E0"/>
<path d="M543.37 361.64C543.855 353.945 543.875 346.227 543.43 338.53C543.419 338.476 543.389 338.427 543.346 338.392C543.304 338.358 543.25 338.339 543.195 338.339C543.14 338.339 543.086 338.358 543.043 338.392C543.001 338.427 542.971 338.476 542.96 338.53C542.51 346.227 542.53 353.945 543.02 361.64C543.029 361.679 543.052 361.714 543.083 361.739C543.115 361.764 543.154 361.778 543.195 361.778C543.235 361.778 543.274 361.764 543.306 361.739C543.338 361.714 543.36 361.679 543.37 361.64Z" fill="#E0E0E0"/>
<path d="M590.39 350.08C590.39 350.55 590.251 351.01 589.989 351.401C589.728 351.792 589.357 352.097 588.923 352.278C588.489 352.458 588.011 352.506 587.549 352.415C587.088 352.324 586.664 352.098 586.331 351.766C585.997 351.435 585.77 351.011 585.677 350.55C585.584 350.089 585.63 349.611 585.808 349.176C585.987 348.741 586.29 348.369 586.68 348.106C587.07 347.843 587.53 347.702 588 347.7C588.313 347.699 588.624 347.759 588.914 347.878C589.204 347.997 589.467 348.172 589.689 348.394C589.911 348.615 590.088 348.877 590.208 349.167C590.328 349.456 590.39 349.767 590.39 350.08Z" fill="#E0E0E0"/>
<path d="M498.71 350.08C498.71 350.551 498.57 351.011 498.309 351.402C498.047 351.794 497.676 352.099 497.241 352.279C496.806 352.459 496.327 352.506 495.866 352.414C495.404 352.322 494.98 352.096 494.647 351.763C494.314 351.43 494.088 351.006 493.996 350.544C493.904 350.083 493.951 349.604 494.131 349.169C494.311 348.734 494.616 348.363 495.008 348.101C495.399 347.84 495.859 347.7 496.33 347.7C496.643 347.699 496.953 347.759 497.242 347.878C497.532 347.998 497.795 348.173 498.016 348.394C498.237 348.615 498.412 348.878 498.531 349.168C498.651 349.457 498.711 349.767 498.71 350.08Z" fill="#E0E0E0"/>
<path d="M545.18 376.46C545.18 376.931 545.04 377.391 544.779 377.782C544.517 378.174 544.146 378.479 543.711 378.659C543.276 378.839 542.797 378.886 542.336 378.794C541.874 378.703 541.45 378.476 541.117 378.143C540.784 377.81 540.557 377.386 540.466 376.924C540.374 376.463 540.421 375.984 540.601 375.549C540.781 375.114 541.086 374.743 541.478 374.481C541.869 374.22 542.329 374.08 542.8 374.08C543.43 374.083 544.034 374.334 544.48 374.78C544.926 375.226 545.177 375.83 545.18 376.46Z" fill="#E0E0E0"/>
<path d="M472.71 418.76L463.21 472.16H468.56L486.06 418.76H472.71Z" fill="#E0E0E0"/>
<path d="M622.06 418.76L630 472.26H624.66L608.7 418.76H622.06Z" fill="#E0E0E0"/>
<path d="M657.72 418.76L666.71 472.26H661.37L644.36 418.76H657.72Z" fill="#E0E0E0"/>
<path d="M545 400.53C545 401.001 544.86 401.461 544.599 401.852C544.337 402.244 543.966 402.549 543.531 402.729C543.096 402.909 542.617 402.956 542.156 402.864C541.694 402.772 541.27 402.546 540.937 402.213C540.604 401.88 540.378 401.456 540.286 400.994C540.194 400.533 540.241 400.054 540.421 399.619C540.601 399.184 540.906 398.813 541.298 398.551C541.689 398.29 542.149 398.15 542.62 398.15C543.251 398.15 543.857 398.401 544.303 398.847C544.749 399.293 545 399.899 545 400.53Z" fill="#E0E0E0"/>
<path d="M455.45 388.21H630.14C630.201 388.21 630.259 388.186 630.303 388.143C630.346 388.1 630.37 388.041 630.37 387.98C630.37 387.919 630.346 387.86 630.303 387.817C630.259 387.774 630.201 387.75 630.14 387.75H455.45C455.389 387.75 455.33 387.774 455.287 387.817C455.244 387.86 455.22 387.919 455.22 387.98C455.22 388.041 455.244 388.1 455.287 388.143C455.33 388.186 455.389 388.21 455.45 388.21Z" fill="#E0E0E0"/>
<path d="M296.31 439.47V471.81H343.6H395.76V439.47H296.31Z" fill="#F5F5F5"/>
<path d="M292.14 430.43V439.47H399.24V430.43H343.6H292.14Z" fill="#E0E0E0"/>
<path d="M345.69 471.81H395.76V439.47H399.24V430.43H343.6V438.64L345.69 471.81Z" fill="#E0E0E0"/>
<path d="M330.39 444.69H310.22V449.56H330.39V444.69Z" fill="#E0E0E0"/>
<path d="M333.53 455.64H307.63V465.92H333.53V455.64Z" fill="white"/>
<path d="M311.61 398.14V430.48H358.9H411.06V398.14H311.61Z" fill="#F5F5F5"/>
<path d="M307.44 389.1V398.14H414.54V389.1H358.9H307.44Z" fill="#E0E0E0"/>
<path d="M360.99 430.48H411.06V398.14H414.54V389.1H358.9V397.3L360.99 430.48Z" fill="#E0E0E0"/>
<path d="M345.69 403.35H325.52V408.22H345.69V403.35Z" fill="#E0E0E0"/>
<path d="M348.83 414.31H322.93V424.59H348.83V414.31Z" fill="white"/>
<path d="M612.06 271.23C613.847 270.151 615.771 269.317 617.78 268.75L618.96 263.09L628.52 262.92L629.9 268.54C631.927 269.037 633.877 269.804 635.7 270.82L640.53 267.65L647.41 274.29L644.41 279.23C645.498 281.031 646.336 282.972 646.9 285L652.56 286.18L652.73 295.74L647.11 297.12C646.613 299.147 645.846 301.097 644.83 302.92L648 307.7L641.35 314.58L636.41 311.58C634.626 312.659 632.706 313.493 630.7 314.06L629.52 319.72L619.96 319.89L618.58 314.27C616.553 313.774 614.602 313.008 612.78 311.99L608 315.17L601.12 308.53L604.12 303.59C603.043 301.802 602.209 299.878 601.64 297.87L595.98 296.69L595.81 287.13L601.42 285.75C601.925 283.724 602.695 281.774 603.71 279.95L600.54 275.12L607.18 268.24L612.12 271.24L612.06 271.23ZM617.16 283.97C615.75 285.429 614.805 287.274 614.444 289.271C614.083 291.267 614.322 293.326 615.13 295.187C615.939 297.048 617.282 298.628 618.988 299.726C620.694 300.824 622.688 301.391 624.717 301.356C626.746 301.321 628.718 300.685 630.386 299.529C632.053 298.373 633.341 296.748 634.085 294.861C634.829 292.973 634.997 290.907 634.567 288.924C634.137 286.941 633.129 285.13 631.67 283.72C630.699 282.785 629.553 282.051 628.299 281.559C627.044 281.068 625.705 280.828 624.357 280.854C623.01 280.88 621.68 281.171 620.446 281.711C619.211 282.251 618.094 283.029 617.16 284V283.97Z" fill="#EBEBEB"/>
<path d="M309.15 274.67C312.273 272.782 315.637 271.326 319.15 270.34L321.21 260.47L337.88 260.18L340.27 269.97C343.806 270.846 347.21 272.191 350.39 273.97L358.81 268.45L370.81 280.03L365.59 288.64C367.475 291.764 368.932 295.128 369.92 298.64L379.79 300.69L380 317.3L370.22 319.7C369.339 323.232 367.994 326.631 366.22 329.81L371.74 338.24L360.16 350.24L351.6 345C348.475 346.883 345.112 348.339 341.6 349.33L339.55 359.2L322.88 359.49L320.48 349.7C316.947 348.823 313.547 347.478 310.37 345.7L302 351.25L290 339.68L295.22 331.06C293.336 327.935 291.88 324.572 290.89 321.06L281 319L280.7 302.34L290.49 299.94C291.367 296.404 292.712 293 294.49 289.82L289 281.44L300.57 269.44L309.19 274.66L309.15 274.67ZM318.03 296.87C315.574 299.414 313.928 302.629 313.3 306.109C312.671 309.588 313.088 313.176 314.498 316.418C315.909 319.661 318.249 322.412 321.222 324.325C324.196 326.238 327.671 327.226 331.206 327.165C334.741 327.103 338.179 325.995 341.084 323.98C343.99 321.965 346.233 319.133 347.529 315.844C348.826 312.554 349.118 308.954 348.369 305.499C347.62 302.043 345.863 298.887 343.32 296.43C341.63 294.793 339.634 293.506 337.446 292.642C335.258 291.778 332.921 291.354 330.569 291.395C328.216 291.436 325.895 291.94 323.739 292.88C321.582 293.819 319.632 295.175 318 296.87H318.03Z" fill="#EBEBEB"/>
<path d="M414.1 176.81C415.612 175.896 417.24 175.19 418.94 174.71L419.94 169.91L428.05 169.76L429.22 174.52C430.939 174.945 432.593 175.598 434.14 176.46L438.24 173.77L444.08 179.41L441.54 183.6C442.454 185.116 443.16 186.747 443.64 188.45L448.44 189.45L448.59 197.56L443.83 198.73C443.403 200.448 442.751 202.103 441.89 203.65L444.58 207.75L438.94 213.58L434.75 211C433.235 211.917 431.604 212.627 429.9 213.11L428.9 217.91L420.79 218.05L419.62 213.29C417.9 212.868 416.245 212.215 414.7 211.35L410.6 214.04L404.77 208.41L407.31 204.22C406.395 202.704 405.686 201.073 405.2 199.37L400.4 198.37L400.26 190.26L405.02 189.09C405.441 187.37 406.093 185.715 406.96 184.17L404.27 180.07L409.9 174.23L414.1 176.77V176.81ZM418.42 187.62C417.225 188.858 416.424 190.423 416.118 192.116C415.813 193.81 416.016 195.556 416.703 197.134C417.39 198.712 418.529 200.05 419.976 200.981C421.424 201.911 423.115 202.391 424.836 202.36C426.556 202.33 428.229 201.789 429.642 200.808C431.056 199.826 432.146 198.448 432.776 196.846C433.406 195.245 433.547 193.493 433.181 191.811C432.815 190.13 431.959 188.595 430.72 187.4C429.06 185.798 426.831 184.922 424.524 184.963C422.218 185.004 420.022 185.96 418.42 187.62Z" fill="#F5F5F5"/>
<path d="M464 199.52C466.658 197.92 469.516 196.679 472.5 195.83L474.25 187.41L488.47 187.16L490.52 195.51C493.532 196.255 496.43 197.399 499.14 198.91L506.33 194.2L516.56 204.07L512.11 211.42C513.71 214.078 514.951 216.936 515.8 219.92L524.22 221.68L524.47 235.89L516.12 237.94C515.373 240.954 514.229 243.856 512.72 246.57L517.43 253.75L507.51 264L500.16 259.55C497.504 261.154 494.645 262.395 491.66 263.24L489.91 271.66L475.69 271.91L473.64 263.56C470.626 262.816 467.724 261.676 465.01 260.17L457.83 264.88L447.6 255L452.05 247.65C450.446 244.994 449.204 242.135 448.36 239.15L439.94 237.4L439.69 223.18L448.04 221.18C448.782 218.169 449.922 215.27 451.43 212.56L446.72 205.37L456.6 195.14L463.95 199.59L464 199.52ZM471.58 218.47C469.486 220.64 468.083 223.383 467.547 226.351C467.012 229.318 467.368 232.378 468.572 235.144C469.775 237.909 471.771 240.255 474.308 241.886C476.845 243.517 479.808 244.359 482.823 244.306C485.839 244.253 488.771 243.307 491.248 241.588C493.726 239.869 495.638 237.453 496.744 234.647C497.849 231.841 498.098 228.771 497.458 225.824C496.818 222.876 495.319 220.185 493.15 218.09C491.707 216.692 490.003 215.592 488.134 214.854C486.266 214.116 484.27 213.754 482.261 213.79C480.252 213.825 478.27 214.257 476.429 215.06C474.587 215.863 472.923 217.022 471.53 218.47H471.58Z" fill="#EBEBEB"/>
<path d="M470.88 126.75C472.208 125.947 473.637 125.324 475.13 124.9L476 120.7L483.11 120.57L484.11 124.74C485.615 125.115 487.064 125.687 488.42 126.44L492.01 124.09L497.13 129.03L494.9 132.7C495.703 134.028 496.325 135.457 496.75 136.95L500.96 137.83L501.08 144.94L496.91 145.94C496.539 147.447 495.967 148.896 495.21 150.25L497.57 153.85L492.66 159L489 156.75C487.674 157.558 486.244 158.18 484.75 158.6L483.88 162.81L476.77 162.93L475.77 158.76C474.263 158.39 472.814 157.818 471.46 157.06L467.87 159.42L462.75 154.48L464.98 150.81C464.178 149.478 463.556 148.045 463.13 146.55L458.92 145.68L458.8 138.57L462.97 137.57C463.345 136.062 463.916 134.609 464.67 133.25L462.32 129.66L467.25 124.54L470.93 126.77L470.88 126.75ZM474.67 136.22C473.62 137.305 472.917 138.677 472.647 140.163C472.378 141.648 472.555 143.18 473.157 144.565C473.759 145.949 474.758 147.124 476.027 147.941C477.297 148.758 478.78 149.179 480.289 149.153C481.799 149.126 483.266 148.652 484.506 147.791C485.746 146.93 486.703 145.721 487.256 144.316C487.808 142.911 487.931 141.374 487.61 139.899C487.289 138.424 486.537 137.078 485.45 136.03C483.994 134.627 482.042 133.859 480.021 133.895C477.999 133.931 476.075 134.767 474.67 136.22Z" fill="#EBEBEB"/>
<path d="M385.9 231.55C389.336 229.474 393.036 227.869 396.9 226.78L399.16 215.93L417.5 215.6L420.14 226.37C424.028 227.331 427.77 228.804 431.27 230.75L440.54 224.68L453.74 237.42L448 246.89C450.076 250.326 451.681 254.026 452.77 257.89L463.62 260.15L463.94 278.49L453.17 281.13C452.217 285.019 450.747 288.762 448.8 292.26L454.87 301.53L442.13 314.73L432.61 309C429.172 311.073 425.473 312.677 421.61 313.77L419.35 324.62L401.01 324.94L398.37 314.17C394.481 313.219 390.737 311.749 387.24 309.8L378 315.82L364.8 303.08L370.55 293.6C368.473 290.164 366.869 286.464 365.78 282.6L354.93 280.34L354.61 262L365.38 259.36C366.339 255.472 367.812 251.729 369.76 248.23L363.69 239L376.43 225.8L385.9 231.55Z" fill="#9747FF"/>
<path d="M397.73 252.83H387.65V284.3H397.73V252.83Z" fill="white"/>
<path d="M412.78 260.02H402.7V284.3H412.78V260.02Z" fill="white"/>
<path d="M426.7 269.88H416.62V284.3H426.7V269.88Z" fill="white"/>
<path d="M234.86 229.32C238.298 227.25 241.998 225.649 245.86 224.56L248.12 213.7L266.46 213.38L269.1 224.15C272.99 225.105 276.733 226.578 280.23 228.53L289.5 222.45L302.7 235.19L296.95 244.67C299.026 248.106 300.631 251.806 301.72 255.67L312.57 257.93L312.89 276.27L302.13 278.91C301.153 282.786 299.667 286.515 297.71 290L303.78 299.27L291 312.47L281.53 306.73C278.092 308.799 274.392 310.4 270.53 311.49L268.27 322.35L249.93 322.67L247.29 311.9C243.403 310.939 239.66 309.466 236.16 307.52L227 313.6L213.8 300.86L219.55 291.38C217.474 287.944 215.869 284.244 214.78 280.38L203.93 278.12L203.61 259.78L214.38 257.14C215.32 253.25 216.776 249.503 218.71 246L212.64 236.73L225.38 223.54L234.86 229.28V229.32Z" fill="#9747FF"/>
<path d="M261.13 298.76C254.426 298.731 247.907 296.555 242.53 292.551C237.152 288.547 233.199 282.925 231.25 276.51C231.216 276.383 231.232 276.247 231.295 276.131C231.359 276.016 231.464 275.929 231.59 275.89C231.716 275.852 231.852 275.866 231.968 275.928C232.084 275.989 232.171 276.094 232.21 276.22C234.3 283.221 238.86 289.225 245.043 293.118C251.225 297.012 258.611 298.529 265.827 297.389C273.044 296.248 279.602 292.528 284.283 286.919C288.964 281.309 291.451 274.191 291.281 266.887C291.111 259.583 288.296 252.588 283.359 247.202C278.423 241.816 271.699 238.405 264.437 237.601C257.175 236.798 249.868 238.657 243.873 242.833C237.878 247.01 233.603 253.219 231.84 260.31C231.808 260.443 231.725 260.557 231.609 260.628C231.493 260.7 231.353 260.722 231.22 260.69C231.088 260.658 230.973 260.575 230.902 260.459C230.83 260.342 230.808 260.203 230.84 260.07C232.249 254.401 235.223 249.242 239.423 245.182C243.622 241.122 248.878 238.323 254.591 237.105C260.303 235.887 266.244 236.299 271.734 238.294C277.224 240.289 282.043 243.786 285.642 248.387C289.24 252.988 291.474 258.508 292.087 264.317C292.7 270.126 291.669 275.991 289.111 281.242C286.552 286.493 282.57 290.92 277.617 294.017C272.665 297.115 266.941 298.758 261.1 298.76H261.13Z" fill="white"/>
<path d="M261 289.24C256.276 289.23 251.683 287.681 247.919 284.826C244.154 281.971 241.424 277.967 240.14 273.42C240.122 273.358 240.116 273.292 240.124 273.228C240.131 273.163 240.151 273.1 240.182 273.044C240.214 272.987 240.257 272.937 240.308 272.897C240.359 272.857 240.418 272.827 240.48 272.81C240.607 272.773 240.744 272.788 240.861 272.851C240.977 272.915 241.063 273.023 241.1 273.15C242.446 277.955 245.486 282.11 249.658 284.847C253.831 287.583 258.853 288.717 263.796 288.038C268.739 287.358 273.269 284.912 276.549 281.151C279.828 277.391 281.635 272.57 281.635 267.58C281.635 262.59 279.828 257.769 276.549 254.008C273.269 250.248 268.739 247.801 263.796 247.122C258.853 246.443 253.831 247.576 249.658 250.313C245.486 253.05 242.446 257.205 241.1 262.01C241.082 262.076 241.052 262.137 241.01 262.191C240.969 262.245 240.917 262.29 240.858 262.324C240.799 262.358 240.734 262.38 240.667 262.388C240.599 262.397 240.531 262.393 240.465 262.375C240.4 262.357 240.338 262.327 240.284 262.285C240.23 262.244 240.185 262.192 240.151 262.133C240.117 262.074 240.095 262.009 240.087 261.942C240.078 261.874 240.082 261.806 240.1 261.74C241.187 257.858 243.335 254.357 246.303 251.63C249.271 248.903 252.941 247.058 256.901 246.303C260.86 245.548 264.951 245.913 268.715 247.356C272.478 248.8 275.764 251.265 278.203 254.474C280.642 257.683 282.137 261.509 282.52 265.521C282.903 269.534 282.159 273.573 280.371 277.186C278.584 280.799 275.824 283.841 272.402 285.97C268.979 288.1 265.031 289.232 261 289.24Z" fill="white"/>
<path d="M261 272.44C259.896 272.444 258.816 272.116 257.9 271.5C257.793 271.422 257.721 271.306 257.696 271.176C257.672 271.046 257.699 270.911 257.77 270.8C257.845 270.692 257.959 270.618 258.088 270.594C258.218 270.569 258.351 270.597 258.46 270.67C259.047 271.065 259.718 271.316 260.42 271.405C261.122 271.493 261.835 271.416 262.501 271.179C263.168 270.943 263.77 270.554 264.259 270.043C264.748 269.532 265.111 268.913 265.318 268.237C265.525 267.561 265.571 266.846 265.452 266.148C265.333 265.451 265.053 264.791 264.633 264.222C264.213 263.653 263.666 263.19 263.035 262.87C262.404 262.55 261.707 262.382 261 262.38C260.25 262.382 259.512 262.568 258.85 262.92C258.793 262.952 258.73 262.971 258.666 262.978C258.601 262.985 258.536 262.979 258.473 262.961C258.411 262.942 258.353 262.911 258.302 262.87C258.252 262.829 258.21 262.778 258.18 262.72C258.148 262.662 258.128 262.599 258.121 262.533C258.114 262.468 258.12 262.402 258.139 262.339C258.157 262.275 258.188 262.216 258.23 262.165C258.271 262.114 258.322 262.072 258.38 262.04C259.121 261.642 259.943 261.417 260.783 261.384C261.624 261.351 262.461 261.511 263.231 261.85C264 262.189 264.683 262.7 265.225 263.343C265.768 263.985 266.157 264.743 266.362 265.559C266.568 266.375 266.585 267.227 266.411 268.05C266.238 268.873 265.879 269.646 265.362 270.309C264.845 270.973 264.183 271.51 263.427 271.879C262.671 272.248 261.841 272.44 261 272.44Z" fill="white"/>
<path d="M261.13 266.72L253.05 262.79L253.2 266.29L231.74 266.8L231.97 268.37L253.47 268.02L253.53 271.58L261.13 266.72Z" fill="white"/>
<path d="M237.64 267.32L237.53 267.1C237.244 266.547 236.815 266.081 236.287 265.75C235.759 265.419 235.153 265.236 234.53 265.22L227.42 264.95L230.5 267.73L227.77 271.1L234.57 270.96C235.317 270.945 236.039 270.69 236.63 270.232C237.221 269.775 237.649 269.139 237.85 268.42L237.64 267.32Z" fill="white"/>
<path d="M261.13 280.66C258.303 280.649 255.555 279.726 253.295 278.029C251.034 276.332 249.38 273.951 248.58 271.24C248.56 271.178 248.554 271.112 248.56 271.047C248.567 270.982 248.587 270.919 248.619 270.862C248.65 270.805 248.694 270.755 248.745 270.715C248.797 270.675 248.857 270.646 248.92 270.63C248.983 270.612 249.049 270.606 249.114 270.613C249.18 270.62 249.243 270.64 249.301 270.672C249.358 270.703 249.409 270.746 249.45 270.797C249.491 270.848 249.522 270.907 249.54 270.97C250.366 273.753 252.166 276.146 254.611 277.711C257.057 279.275 259.984 279.907 262.857 279.49C265.73 279.073 268.357 277.635 270.256 275.44C272.156 273.244 273.201 270.438 273.201 267.535C273.201 264.632 272.156 261.826 270.256 259.631C268.357 257.435 265.73 255.997 262.857 255.58C259.984 255.163 257.057 255.795 254.611 257.359C252.166 258.924 250.366 261.317 249.54 264.1C249.522 264.163 249.491 264.222 249.45 264.273C249.409 264.324 249.358 264.367 249.301 264.398C249.243 264.43 249.18 264.45 249.114 264.457C249.049 264.464 248.983 264.458 248.92 264.44C248.856 264.422 248.796 264.391 248.744 264.349C248.692 264.307 248.649 264.255 248.617 264.197C248.586 264.138 248.566 264.074 248.56 264.007C248.553 263.941 248.56 263.874 248.58 263.81C249.28 261.492 250.611 259.414 252.423 257.808C254.236 256.202 256.459 255.131 258.844 254.715C261.23 254.298 263.684 254.553 265.933 255.45C268.183 256.347 270.138 257.851 271.583 259.795C273.027 261.739 273.903 264.045 274.112 266.458C274.322 268.87 273.858 271.294 272.771 273.457C271.683 275.621 270.017 277.441 267.956 278.712C265.895 279.984 263.522 280.658 261.1 280.66H261.13Z" fill="white"/>
<path d="M535.32 228.48C538.759 226.411 542.458 224.81 546.32 223.72L548.58 212.86L566.92 212.54L569.56 223.31C573.45 224.262 577.194 225.735 580.69 227.69L589.96 221.61L603.16 234.35L597.41 243.83C599.486 247.266 601.091 250.966 602.18 254.83L613 257.06L613.32 275.4L602.55 278C601.597 281.885 600.127 285.625 598.18 289.12L604.25 298.39L591.51 311.59L582 305.88C578.563 307.955 574.863 309.559 571 310.65L568.74 321.51L550.4 321.83L547.76 311.06C543.872 310.101 540.129 308.628 536.63 306.68L527.36 312.76L514.23 300L519.98 290.52C517.904 287.084 516.299 283.384 515.21 279.52L504.36 277.26L504 259L514.76 256.36C515.721 252.472 517.194 248.73 519.14 245.23L513.07 235.96L525.81 222.77L535.28 228.51L535.32 228.48Z" fill="#9747FF"/>
<path d="M531.82 268.76L538.85 261.73L552.4 273.78L579.01 248.18L585.54 255.21L551.4 287.34L531.82 268.76Z" fill="white"/>
<path d="M350.17 234.2C350.196 234.088 350.236 233.981 350.29 233.88L350.69 232.98C350.87 232.57 351.09 232.09 351.35 231.52C351.637 230.831 351.971 230.163 352.35 229.52L353.67 227.12C354.19 226.25 354.81 225.36 355.44 224.37C356.07 223.38 356.86 222.37 357.65 221.37C358.496 220.249 359.397 219.171 360.35 218.14C361.29 217 362.45 215.96 363.57 214.81C364.13 214.22 364.78 213.72 365.4 213.16C366.02 212.6 366.67 212.04 367.34 211.49L369.45 209.89C369.81 209.62 370.16 209.34 370.53 209.08L371.68 208.32C372.46 207.81 373.23 207.32 374.04 206.78L376.56 205.35C377.39 204.84 378.3 204.45 379.2 204.01C380.1 203.57 381 203.1 381.96 202.75L384.83 201.59L387.83 200.59C396.246 197.987 405.165 197.455 413.83 199.04L416.93 199.65L419.93 200.46C420.93 200.7 421.87 201.07 422.82 201.38C423.77 201.69 424.71 202 425.6 202.38L428.26 203.5C429.13 203.89 429.96 204.34 430.79 204.74L432.02 205.36C432.42 205.58 432.81 205.82 433.19 206.04L435.48 207.38C436.21 207.84 436.91 208.38 437.6 208.81C438.29 209.24 438.99 209.72 439.6 210.23C440.86 211.23 442.13 212.13 443.19 213.16C444.25 214.19 445.36 215.06 446.26 216.04C447.16 217.02 448.09 217.87 448.81 218.79C449.53 219.71 450.28 220.52 450.89 221.31L452.49 223.54C452.931 224.125 453.335 224.736 453.7 225.37L454.53 226.74C454.73 227.09 454.9 227.38 455.03 227.59C455.095 227.682 455.146 227.783 455.18 227.89C455.108 227.804 455.041 227.714 454.98 227.62L454.44 226.79L453.57 225.45C453.189 224.828 452.775 224.228 452.33 223.65L450.69 221.46C450.07 220.68 449.34 219.88 448.59 218.99C447.84 218.1 446.94 217.23 446.02 216.28C445.1 215.33 444.02 214.41 442.95 213.43C441.88 212.45 440.61 211.55 439.36 210.56C438.74 210.05 438.04 209.63 437.36 209.15C436.68 208.67 435.97 208.2 435.24 207.75C434.51 207.3 433.74 206.87 432.96 206.43C432.58 206.21 432.2 205.97 431.8 205.76L430.57 205.15C429.74 204.75 428.92 204.32 428.06 203.93L425.41 202.82C424.53 202.42 423.58 202.15 422.65 201.82C421.72 201.49 420.77 201.14 419.78 200.91L416.78 200.11L413.7 199.51C409.408 198.777 405.049 198.516 400.7 198.73C396.392 199.058 392.133 199.86 388 201.12L385 202.12L382.14 203.26C381.19 203.6 380.3 204.08 379.4 204.5C378.5 204.92 377.61 205.32 376.78 205.82L374.28 207.23C373.47 207.72 372.7 208.23 371.93 208.75L370.78 209.5C370.41 209.75 370.06 210.03 369.7 210.3L367.6 211.88C366.93 212.42 366.3 212.98 365.66 213.52C365.02 214.06 364.39 214.57 363.84 215.15C362.71 216.29 361.55 217.31 360.61 218.44C359.67 219.57 358.68 220.55 357.9 221.62C357.12 222.69 356.29 223.62 355.67 224.62C355.05 225.62 354.4 226.47 353.88 227.32L352.51 229.69C352.143 230.315 351.809 230.959 351.51 231.62L350.8 233.06C350.62 233.43 350.47 233.72 350.36 233.94C350.306 234.033 350.243 234.12 350.17 234.2Z" fill="#263238"/>
<path d="M370.87 201.13C371.226 200.834 371.608 200.569 372.01 200.34C372.76 199.86 373.88 199.22 375.29 198.5C382.728 194.742 390.958 192.822 399.29 192.9C400.88 192.9 402.17 193 403.05 193.1C403.513 193.123 403.972 193.193 404.42 193.31C403.961 193.349 403.499 193.349 403.04 193.31C402.15 193.26 400.87 193.24 399.29 193.31C391.032 193.423 382.897 195.32 375.44 198.87C374.02 199.54 372.88 200.13 372.1 200.56C371.709 200.788 371.297 200.979 370.87 201.13Z" fill="#263238"/>
<path d="M611.2 302.81C611.174 302.92 611.137 303.027 611.09 303.13C610.99 303.35 610.85 303.65 610.69 304.03L610.03 305.49C609.737 306.176 609.403 306.844 609.03 307.49C608.63 308.21 608.19 309.02 607.7 309.89C607.21 310.76 606.57 311.65 605.93 312.64C605.29 313.63 604.52 314.64 603.72 315.64C602.92 316.64 601.99 317.75 601.02 318.87C600.05 319.99 598.93 321.04 597.8 322.2C597.25 322.78 596.6 323.29 595.98 323.85C595.36 324.41 594.71 324.97 594.04 325.52C593.37 326.07 592.64 326.58 591.93 327.12C591.57 327.39 591.21 327.67 590.84 327.93L589.69 328.69C588.92 329.19 588.14 329.69 587.33 330.23L584.82 331.66C583.98 332.16 583.07 332.56 582.18 333C581.29 333.44 580.38 333.91 579.42 334.26L576.54 335.41L573.54 336.41C565.125 339.013 556.205 339.545 547.54 337.96L544.44 337.34L541.44 336.54C540.44 336.3 539.5 335.93 538.55 335.61C537.6 335.29 536.66 335 535.77 334.61L533.1 333.49C532.24 333.09 531.41 332.65 530.58 332.24L529.35 331.63C528.94 331.41 528.56 331.17 528.17 330.95L525.89 329.61C525.15 329.14 524.46 328.61 523.76 328.18C523.06 327.75 522.37 327.27 521.76 326.75C520.51 325.75 519.24 324.86 518.17 323.83C517.1 322.8 516 321.93 515.11 320.94C514.22 319.95 513.28 319.12 512.56 318.19C511.84 317.26 511.09 316.47 510.47 315.68C509.85 314.89 509.36 314.12 508.87 313.45C508.433 312.865 508.032 312.254 507.67 311.62C507.34 311.09 507.07 310.62 506.84 310.25C506.61 309.88 506.47 309.61 506.34 309.4L506.18 309.1C506.18 309.1 506.26 309.19 506.39 309.37C506.52 309.55 506.7 309.85 506.93 310.19L507.8 311.54C508.178 312.161 508.592 312.758 509.04 313.33L510.67 315.53C511.29 316.31 512.02 317.11 512.77 318C513.52 318.89 514.43 319.76 515.34 320.71C516.25 321.66 517.34 322.58 518.41 323.55C519.48 324.52 520.75 325.43 522 326.43C522.62 326.94 523.32 327.36 524 327.84C524.68 328.32 525.38 328.78 526.12 329.24L528.39 330.56C528.78 330.78 529.16 331.02 529.56 331.23L530.78 331.84C531.61 332.24 532.44 332.67 533.29 333.06L535.94 334.16C536.83 334.56 537.77 334.84 538.71 335.16C539.65 335.48 540.59 335.84 541.58 336.07L544.58 336.86L547.65 337.46C556.252 339.031 565.105 338.506 573.46 335.93L576.46 334.93L579.31 333.79C580.31 333.44 581.16 332.97 582.05 332.55C582.94 332.13 583.85 331.73 584.68 331.22L587.18 329.81C587.99 329.33 588.75 328.81 589.53 328.3L590.67 327.55C591.04 327.3 591.39 327.02 591.75 326.75L593.86 325.17C594.53 324.63 595.16 324.06 595.79 323.53C596.42 323 597.06 322.47 597.62 321.9C598.74 320.76 599.9 319.74 600.84 318.61C601.78 317.48 602.78 316.5 603.55 315.43C604.32 314.36 605.17 313.43 605.78 312.43C606.39 311.43 607.06 310.57 607.58 309.72C608.1 308.87 608.58 308.07 608.94 307.35C609.311 306.727 609.645 306.082 609.94 305.42L610.64 303.99L611.09 303.1L611.2 302.81Z" fill="#263238"/>
<path d="M590.91 338.92C590.556 339.219 590.175 339.484 589.77 339.71C588.708 340.378 587.614 340.992 586.49 341.55C579.053 345.308 570.823 347.228 562.49 347.15C561.234 347.146 559.979 347.075 558.73 346.94C558.271 346.926 557.814 346.858 557.37 346.74C557.829 346.701 558.291 346.701 558.75 346.74C559.63 346.79 560.91 346.8 562.49 346.74C570.748 346.629 578.885 344.733 586.34 341.18C587.77 340.5 588.91 339.92 589.68 339.49C590.071 339.262 590.483 339.071 590.91 338.92Z" fill="#263238"/>
<path d="M312 300.59C311.974 300.698 311.933 300.802 311.88 300.9C311.78 301.13 311.65 301.43 311.48 301.8L310.82 303.27C310.529 303.957 310.195 304.625 309.82 305.27L308.5 307.67C307.98 308.53 307.36 309.43 306.73 310.41C306.1 311.39 305.31 312.41 304.52 313.41C303.73 314.41 302.79 315.52 301.82 316.63C300.85 317.74 299.72 318.81 298.6 319.96C298.04 320.55 297.39 321.06 296.77 321.62C296.15 322.18 295.5 322.74 294.83 323.28L292.72 324.89C292.36 325.15 292.01 325.44 291.63 325.7L290.49 326.46C289.71 326.96 288.94 327.46 288.13 327.99L285.61 329.42C284.78 329.93 283.87 330.32 282.97 330.77C282.07 331.22 281.17 331.67 280.21 332.02L277.34 333.18L274.34 334.18C265.927 336.796 257.004 337.328 248.34 335.73L245.24 335.12L242.24 334.31C241.24 334.08 240.3 333.71 239.35 333.39C238.4 333.07 237.46 332.77 236.57 332.39L233.91 331.26C233.04 330.87 232.21 330.43 231.38 330.02L230.15 329.4C229.75 329.19 229.36 328.95 228.98 328.72L226.69 327.38C225.96 326.92 225.26 326.38 224.57 325.96C223.88 325.54 223.18 325.05 222.57 324.53C221.31 323.53 220.04 322.63 218.97 321.61C217.9 320.59 216.81 319.71 215.91 318.72C215.01 317.73 214.08 316.9 213.36 315.97C212.64 315.04 211.89 314.25 211.28 313.45L209.68 311.23C209.242 310.644 208.838 310.033 208.47 309.4L207.64 308.02L207.14 307.17C207.075 307.078 207.024 306.977 206.99 306.87C207.064 306.958 207.13 307.052 207.19 307.15L207.73 307.97L208.6 309.31C208.981 309.932 209.395 310.533 209.84 311.11L211.47 313.3C212.1 314.08 212.83 314.89 213.58 315.78C214.33 316.67 215.23 317.53 216.15 318.49C217.07 319.45 218.15 320.35 219.22 321.33C220.29 322.31 221.56 323.21 222.81 324.21C223.43 324.72 224.13 325.14 224.81 325.61C225.49 326.08 226.2 326.56 226.93 327.02L229.2 328.34C229.59 328.56 229.97 328.79 230.37 329L231.6 329.61C232.42 330.01 233.25 330.45 234.11 330.84L236.76 331.94C237.64 332.34 238.59 332.62 239.52 332.94C240.45 333.26 241.4 333.61 242.39 333.84L245.39 334.64L248.47 335.24C257.068 336.81 265.918 336.286 274.27 333.71L277.27 332.71L280.13 331.57C281.13 331.22 281.97 330.74 282.87 330.33C283.77 329.92 284.66 329.5 285.49 329L287.99 327.59C288.8 327.1 289.57 326.59 290.34 326.08L291.49 325.33C291.86 325.07 292.21 324.79 292.57 324.53L294.67 322.95C295.34 322.41 295.97 321.84 296.61 321.3C297.25 320.76 297.88 320.25 298.43 319.67C299.56 318.53 300.72 317.52 301.66 316.39C302.6 315.26 303.59 314.27 304.37 313.2C305.15 312.13 305.98 311.2 306.6 310.2C307.22 309.2 307.87 308.34 308.39 307.49C308.91 306.64 309.39 305.83 309.76 305.12C310.129 304.496 310.463 303.852 310.76 303.19L311.47 301.75L311.91 300.87C311.91 300.68 312 300.58 312 300.59Z" fill="#263238"/>
<path d="M291.68 336.7C291.329 336.995 290.951 337.257 290.55 337.48C289.8 337.97 288.68 338.6 287.27 339.33C279.833 343.088 271.603 345.008 263.27 344.93C261.68 344.93 260.39 344.83 259.51 344.72C259.049 344.692 258.59 344.625 258.14 344.52C258.599 344.468 259.062 344.468 259.52 344.52C260.41 344.52 261.69 344.58 263.27 344.52C271.517 344.406 279.643 342.524 287.1 339C288.53 338.32 289.67 337.74 290.45 337.31C290.837 337.064 291.25 336.859 291.68 336.7Z" fill="#263238"/>
<path d="M525 178.69H323.32C318.795 178.69 314.456 176.893 311.257 173.693C308.057 170.494 306.26 166.155 306.26 161.63C306.26 157.105 308.057 152.766 311.257 149.567C314.456 146.367 318.795 144.57 323.32 144.57H525C529.525 144.57 533.864 146.367 537.063 149.567C540.263 152.766 542.06 157.105 542.06 161.63C542.06 166.155 540.263 170.494 537.063 173.693C533.864 176.893 529.525 178.69 525 178.69Z" fill="#FAFAFA"/>
<path d="M525 178.69L526.31 178.6C527.593 178.489 528.86 178.241 530.09 177.86C532.084 177.195 533.943 176.179 535.58 174.86C537.807 173.062 539.553 170.739 540.66 168.1C541.287 166.527 541.695 164.875 541.87 163.19C542.025 161.326 541.883 159.45 541.45 157.63C540.669 154.423 538.963 151.515 536.543 149.27C534.123 147.024 531.097 145.54 527.84 145C525.336 144.742 522.816 144.662 520.3 144.76H503.83L323.34 144.83C320.13 144.834 316.988 145.756 314.286 147.489C311.584 149.221 309.434 151.691 308.091 154.606C306.748 157.522 306.267 160.761 306.707 163.941C307.146 167.121 308.487 170.108 310.57 172.55C313.273 175.733 317.075 177.783 321.22 178.29C323.22 178.52 325.33 178.41 327.38 178.44H369.1L450.25 178.5L504.95 178.58H519.82L505 178.8L450.3 178.88L369.15 178.93H327.38C325.33 178.93 323.26 179.01 321.16 178.78C317.925 178.371 314.871 177.057 312.35 174.988C309.829 172.919 307.944 170.181 306.911 167.087C305.879 163.994 305.741 160.672 306.514 157.504C307.287 154.336 308.939 151.45 311.28 149.18C314.514 146.049 318.838 144.296 323.34 144.29L503.83 144.37H520.3C522.833 144.277 525.37 144.368 527.89 144.64C530.261 145.031 532.522 145.924 534.52 147.26C538.141 149.661 540.712 153.351 541.71 157.58C542.138 159.427 542.27 161.331 542.1 163.22C541.92 164.937 541.499 166.62 540.85 168.22C539.885 170.534 538.425 172.608 536.573 174.297C534.721 175.987 532.522 177.251 530.13 178C528.894 178.374 527.619 178.605 526.33 178.69C525.46 178.69 525 178.69 525 178.69Z" fill="#263238"/>
<path d="M436.05 174.64H323.42C319.972 174.64 316.665 173.27 314.228 170.833C311.79 168.395 310.42 165.088 310.42 161.64C310.42 158.192 311.79 154.886 314.228 152.448C316.665 150.01 319.972 148.64 323.42 148.64H436.05C439.498 148.64 442.804 150.01 445.242 152.448C447.68 154.886 449.05 158.192 449.05 161.64C449.05 165.088 447.68 168.395 445.242 170.833C442.804 173.27 439.498 174.64 436.05 174.64Z" fill="#9747FF"/>
<g opacity="0.4">
<path d="M327.18 174.64L343.34 148.63H360.66L344.83 174.64H327.18Z" fill="white"/>
</g>
<g opacity="0.4">
<path d="M361.9 174.64L378.07 148.63H395.38L379.55 174.64H361.9Z" fill="white"/>
</g>
<g opacity="0.4">
<path d="M399.18 174.64L415.34 148.63H432.66L416.82 174.64H399.18Z" fill="white"/>
</g>
<path d="M397.68 133.68C397.68 135.68 396.2 136.88 393.83 136.88H392.05V139.33H390V130.47H393.83C396.2 130.47 397.68 131.7 397.68 133.68ZM395.6 133.68C395.6 132.68 394.97 132.14 393.72 132.14H392.05V135.21H393.72C395 135.21 395.6 134.65 395.6 133.68Z" fill="#263238"/>
<path d="M404.77 139.33L403.07 136.86H401.18V139.33H399.13V130.47H403C405.37 130.47 406.85 131.7 406.85 133.68C406.875 134.278 406.713 134.869 406.387 135.371C406.061 135.873 405.587 136.26 405.03 136.48L407.03 139.33H404.77ZM402.85 132.14H401.18V135.23H402.85C404.1 135.23 404.73 134.65 404.73 133.68C404.73 132.71 404.1 132.14 402.85 132.14Z" fill="#263238"/>
<path d="M407.87 134.9C407.816 133.931 408.054 132.967 408.554 132.135C409.053 131.302 409.791 130.639 410.672 130.23C411.552 129.822 412.535 129.687 413.494 129.843C414.452 130 415.341 130.44 416.046 131.107C416.751 131.775 417.24 132.638 417.449 133.586C417.658 134.534 417.577 135.523 417.218 136.425C416.859 137.327 416.237 138.1 415.433 138.645C414.63 139.19 413.681 139.481 412.71 139.48C412.087 139.515 411.463 139.423 410.877 139.209C410.291 138.995 409.755 138.663 409.302 138.234C408.849 137.805 408.488 137.288 408.242 136.715C407.996 136.142 407.869 135.524 407.87 134.9ZM415.48 134.9C415.468 134.355 415.296 133.825 414.984 133.378C414.673 132.93 414.236 132.585 413.729 132.384C413.222 132.184 412.667 132.137 412.134 132.251C411.601 132.364 411.113 132.633 410.731 133.022C410.35 133.412 410.092 133.906 409.99 134.441C409.888 134.977 409.946 135.531 410.157 136.033C410.368 136.536 410.723 136.965 411.178 137.267C411.632 137.569 412.165 137.73 412.71 137.73C413.082 137.74 413.451 137.673 413.796 137.534C414.141 137.394 414.453 137.185 414.713 136.92C414.973 136.654 415.175 136.337 415.307 135.99C415.439 135.642 415.498 135.271 415.48 134.9Z" fill="#263238"/>
<path d="M418.54 134.9C418.597 133.945 418.934 133.029 419.509 132.265C420.084 131.501 420.871 130.923 421.772 130.603C422.673 130.283 423.648 130.235 424.576 130.466C425.504 130.697 426.344 131.195 426.99 131.9L425.68 133.11C425.405 132.789 425.062 132.534 424.677 132.361C424.291 132.188 423.872 132.102 423.45 132.11C422.727 132.153 422.048 132.47 421.552 132.997C421.055 133.524 420.778 134.221 420.778 134.945C420.778 135.669 421.055 136.366 421.552 136.893C422.048 137.42 422.727 137.737 423.45 137.78C423.873 137.791 424.293 137.707 424.679 137.534C425.065 137.361 425.407 137.103 425.68 136.78L427 137.9C426.354 138.605 425.514 139.103 424.586 139.334C423.658 139.565 422.683 139.517 421.782 139.197C420.881 138.877 420.094 138.299 419.519 137.535C418.944 136.771 418.607 135.854 418.55 134.9H418.54Z" fill="#263238"/>
<path d="M435.23 137.68V139.33H428.37V130.47H435.06V132.12H430.41V134H434.52V135.59H430.41V137.64L435.23 137.68Z" fill="#263238"/>
<path d="M436.16 138.45L436.86 136.91C437.719 137.502 438.736 137.822 439.78 137.83C440.99 137.83 441.49 137.43 441.49 136.83C441.49 135.18 436.34 136.32 436.34 133.03C436.34 131.52 437.55 130.27 440.07 130.27C441.145 130.246 442.207 130.516 443.14 131.05L442.51 132.61C441.767 132.169 440.923 131.928 440.06 131.91C438.84 131.91 438.37 132.37 438.37 132.91C438.37 134.54 443.52 133.41 443.52 136.66C443.52 138.14 442.3 139.41 439.77 139.41C438.497 139.464 437.238 139.129 436.16 138.45Z" fill="#263238"/>
<path d="M444.23 138.45L444.92 136.91C445.783 137.502 446.803 137.822 447.85 137.83C449.06 137.83 449.55 137.43 449.55 136.83C449.55 135.18 444.41 136.32 444.41 133.03C444.41 131.52 445.62 130.27 448.14 130.27C449.215 130.246 450.277 130.516 451.21 131.05L450.58 132.61C449.835 132.167 448.987 131.926 448.12 131.91C446.91 131.91 446.44 132.37 446.44 132.91C446.44 134.54 451.59 133.41 451.59 136.66C451.59 138.14 450.36 139.41 447.83 139.41C446.56 139.462 445.305 139.127 444.23 138.45Z" fill="#263238"/>
<path d="M689.69 471.81C689.69 471.95 548.79 472.07 375.02 472.07C201.25 472.07 60.3101 472 60.3101 471.81C60.3101 471.62 201.18 471.55 375.02 471.55C548.86 471.55 689.69 471.67 689.69 471.81Z" fill="#263238"/>
<path d="M75.3601 447.28L85.1501 426.28L108 439.42L96.1501 458.64C96.1501 458.64 86.9001 460.28 82.7901 457.75C78.6801 455.22 75.3601 447.28 75.3601 447.28Z" fill="#FFBE9D"/>
<path d="M95 460.59L96.17 458.64C88.1679 457.275 80.8508 453.277 75.38 447.28L67.55 461.68L110.8 485.46C112.8 481.19 95 460.59 95 460.59Z" fill="#9747FF"/>
<path d="M67.53 461.68L69.44 458.16L110.28 482.33C110.28 482.33 111.74 484.22 110.78 485.46L67.53 461.68Z" fill="#263238"/>
<path d="M95.8101 460.76C95.6801 460.97 94.5701 460.48 93.1601 460.59C91.7501 460.7 90.7101 461.28 90.5601 461.09C90.4101 460.9 91.4001 459.85 93.1101 459.75C94.8201 459.65 96.0001 460.59 95.8101 460.76Z" fill="#263238"/>
<path d="M99.31 465.13C99.25 465.36 98.13 465.22 96.93 465.71C95.73 466.2 95 467 94.78 466.92C94.56 466.84 95.1 465.53 96.62 464.92C98.14 464.31 99.42 464.92 99.31 465.13Z" fill="#263238"/>
<path d="M98.9 472C98.68 471.94 98.97 470.73 100.15 469.87C101.33 469.01 102.57 469.09 102.56 469.32C102.55 469.55 101.56 469.83 100.65 470.54C99.74 471.25 99.12 472.07 98.9 472Z" fill="#263238"/>
<path d="M77.7801 457.79C77.6502 458.011 77.458 458.189 77.2275 458.301C76.9971 458.413 76.7386 458.454 76.4847 458.42C76.2308 458.385 75.9928 458.276 75.8004 458.107C75.6081 457.938 75.4701 457.715 75.4037 457.468C75.3374 457.221 75.3456 456.959 75.4274 456.716C75.5093 456.473 75.661 456.26 75.8636 456.103C76.0662 455.946 76.3107 455.853 76.5663 455.835C76.8218 455.816 77.0771 455.874 77.3001 456C77.4501 456.085 77.5818 456.199 77.6874 456.336C77.793 456.472 77.8703 456.628 77.915 456.795C77.9597 456.961 77.9708 457.135 77.9476 457.306C77.9244 457.477 77.8675 457.641 77.7801 457.79Z" fill="#263238"/>
<path d="M178.47 455.85L189.81 431.92L212.91 432.28L201.07 455.58C201.07 455.58 193.43 461.5 188.48 461.16C183.53 460.82 178.47 455.85 178.47 455.85Z" fill="#FFBE9D"/>
<path d="M200.94 457.91L201.07 455.58C192.74 458.17 185.88 458.03 177.96 455.2C177.115 456.657 176.657 458.306 176.63 459.99L176.47 472L227.22 472.95C227 468.14 200.94 457.91 200.94 457.91Z" fill="#9747FF"/>
<path d="M176.47 472L176.52 467.88L225.26 470.34C225.26 470.34 227.5 471.34 227.26 472.95L176.47 472Z" fill="#263238"/>
<path d="M201.77 457.67C201.77 457.92 200.52 458.01 199.28 458.78C198.04 459.55 197.38 460.58 197.15 460.48C196.92 460.38 197.32 458.95 198.83 458.04C200.34 457.13 201.83 457.44 201.77 457.67Z" fill="#263238"/>
<path d="M207.05 460C207.05 460.24 206.05 460.64 205.16 461.68C204.27 462.72 204.03 463.81 203.79 463.8C203.55 463.79 203.41 462.38 204.51 461.11C205.61 459.84 207.05 459.74 207.05 460Z" fill="#263238"/>
<path d="M210 466.4C209.78 466.45 209.46 465.2 210.12 463.86C210.78 462.52 211.9 462 212 462.2C212.1 462.4 211.37 463.12 210.84 464.2C210.31 465.28 210.2 466.38 210 466.4Z" fill="#263238"/>
<path d="M183.94 463.59C183.932 463.855 183.845 464.112 183.691 464.328C183.537 464.544 183.322 464.709 183.074 464.803C182.825 464.897 182.555 464.914 182.296 464.854C182.038 464.794 181.803 464.658 181.622 464.464C181.441 464.27 181.321 464.027 181.278 463.765C181.235 463.503 181.271 463.235 181.382 462.993C181.492 462.752 181.671 462.548 181.897 462.409C182.123 462.27 182.385 462.2 182.65 462.21C183.004 462.223 183.338 462.376 183.58 462.634C183.821 462.893 183.951 463.236 183.94 463.59Z" fill="#263238"/>
<path d="M311.25 138C313.239 137.639 315.084 136.72 316.57 135.349C318.055 133.979 319.12 132.213 319.64 130.26C319.633 130.047 319.674 129.835 319.76 129.641C319.846 129.446 319.976 129.273 320.138 129.135C320.301 128.998 320.493 128.899 320.699 128.846C320.905 128.793 321.121 128.788 321.33 128.83C322.397 128.805 323.448 128.563 324.42 128.119C325.391 127.676 326.262 127.04 326.98 126.25C327.687 125.442 328.17 124.463 328.381 123.41C328.591 122.357 328.522 121.268 328.18 120.25C331.44 120.64 334.46 117.47 334.47 114.18C334.48 110.89 331.96 107.93 328.87 106.83C329.701 106.263 330.328 105.443 330.657 104.492C330.987 103.542 331.002 102.51 330.7 101.55C330.044 99.6385 328.775 97.9969 327.09 96.8801C324.94 95.2701 321.95 94.1301 319.6 95.4601C320.21 93.9201 319.23 92.1801 317.97 91.1201C316.229 89.7436 314.041 89.0589 311.826 89.1973C309.611 89.3357 307.526 90.2876 305.97 91.8701C305.277 90.3122 304.117 89.0086 302.65 88.1401C301.907 87.7271 301.049 87.5708 300.208 87.6956C299.367 87.8204 298.591 88.2192 298 88.8301C298 87.1501 296.68 85.8301 295.26 84.9101C294.263 84.2227 293.081 83.8532 291.87 83.8501C291.265 83.868 290.679 84.0687 290.19 84.4256C289.701 84.7826 289.332 85.2792 289.13 85.8501C288.321 85.0003 287.225 84.4821 286.056 84.3964C284.886 84.3106 283.726 84.6636 282.802 85.3864C281.878 86.1092 281.257 87.1501 281.058 88.3062C280.86 89.4624 281.1 90.6509 281.73 91.6401C280.699 91.6853 279.698 91.9954 278.822 92.5404C277.947 93.0855 277.226 93.8471 276.731 94.7518C276.235 95.6565 275.981 96.6736 275.993 97.7051C276.005 98.7365 276.283 99.7474 276.8 100.64C275.86 100.27 274.8 101.27 274.8 102.28C274.849 102.786 275.016 103.274 275.289 103.703C275.562 104.132 275.932 104.491 276.37 104.75C274.47 107.703 272.563 110.65 270.65 113.59C269.322 115.418 268.29 117.442 267.59 119.59C267.25 120.671 267.168 121.816 267.351 122.935C267.533 124.053 267.975 125.113 268.64 126.03" fill="#263238"/>
<path d="M316.7 129.48C320.94 122.11 318.03 110.01 310.53 106.1L284.9 95.3601L282.46 99.2101L250.63 148.8L268.19 175L281.46 158.78C281.46 158.78 291.46 163.25 301.11 152.69C305.92 147.47 312 137.66 316.7 129.48Z" fill="#FFBE9D"/>
<path d="M308.78 135.9C308.525 136.297 308.125 136.578 307.665 136.683C307.204 136.788 306.722 136.708 306.32 136.46C306.118 136.348 305.941 136.197 305.799 136.015C305.656 135.833 305.552 135.625 305.491 135.402C305.431 135.179 305.415 134.947 305.446 134.718C305.477 134.489 305.553 134.269 305.67 134.07C305.925 133.673 306.325 133.392 306.784 133.285C307.244 133.179 307.727 133.256 308.13 133.5C308.332 133.613 308.51 133.766 308.652 133.948C308.794 134.131 308.899 134.34 308.959 134.563C309.02 134.787 309.035 135.02 309.004 135.25C308.974 135.479 308.897 135.7 308.78 135.9Z" fill="#263238"/>
<path d="M311.32 133.1C311 133.17 310.42 131.57 308.8 130.5C307.18 129.43 305.45 129.5 305.41 129.14C305.41 128.99 305.8 128.76 306.57 128.73C307.594 128.709 308.599 129.002 309.45 129.57C310.295 130.128 310.939 130.941 311.29 131.89C311.53 132.6 311.47 133.07 311.32 133.1Z" fill="#263238"/>
<path d="M293.64 127.07C293.385 127.467 292.985 127.749 292.526 127.855C292.066 127.961 291.583 127.884 291.18 127.64C290.978 127.527 290.8 127.375 290.658 127.192C290.516 127.01 290.411 126.8 290.351 126.577C290.29 126.353 290.275 126.12 290.306 125.89C290.336 125.661 290.413 125.44 290.53 125.24C290.787 124.845 291.187 124.565 291.646 124.461C292.106 124.356 292.588 124.435 292.99 124.68C293.192 124.792 293.369 124.944 293.511 125.125C293.654 125.307 293.758 125.515 293.819 125.738C293.879 125.961 293.895 126.193 293.864 126.422C293.833 126.651 293.757 126.871 293.64 127.07Z" fill="#263238"/>
<path d="M295 123.22C294.68 123.3 294.1 121.69 292.48 120.62C290.86 119.55 289.14 119.62 289.09 119.26C289.09 119.12 289.49 118.89 290.26 118.85C291.282 118.825 292.287 119.122 293.13 119.7C293.986 120.244 294.642 121.051 295 122C295.23 122.73 295.16 123.19 295 123.22Z" fill="#263238"/>
<path d="M293.09 138.81C294.119 139.111 295.106 139.537 296.03 140.08C296.47 140.31 296.92 140.49 297.18 140.25C297.497 139.845 297.685 139.353 297.72 138.84C297.99 137.57 298.28 136.25 298.59 134.84C299.87 129.21 301.1 124.69 301.32 124.74C301.54 124.79 300.69 129.4 299.4 135.03C299.08 136.42 298.77 137.74 298.47 139.03C298.397 139.704 298.089 140.33 297.6 140.8C297.444 140.907 297.266 140.978 297.079 141.005C296.891 141.033 296.7 141.018 296.52 140.96C296.251 140.865 295.993 140.741 295.75 140.59C294.788 140.119 293.893 139.52 293.09 138.81Z" fill="#263238"/>
<path d="M281.46 158.81C275.874 155.226 271.396 150.157 268.53 144.17C268.53 144.17 266.68 154.95 279.15 161.63L281.46 158.81Z" fill="#EB996E"/>
<path d="M289.81 142.28C289.761 141.687 289.561 141.116 289.228 140.622C288.895 140.129 288.441 139.728 287.91 139.46C287.53 139.256 287.113 139.13 286.683 139.091C286.254 139.051 285.821 139.099 285.41 139.23C285.016 139.361 284.671 139.607 284.419 139.937C284.167 140.267 284.021 140.666 284 141.08C284.067 141.545 284.271 141.979 284.586 142.326C284.902 142.674 285.314 142.919 285.77 143.03C286.715 143.264 287.698 143.308 288.66 143.16C288.929 143.155 289.194 143.097 289.44 142.99C289.56 142.94 289.662 142.855 289.734 142.747C289.805 142.638 289.842 142.51 289.84 142.38" fill="#EB996E"/>
<path d="M287.58 136.78C287.85 136.94 286.68 138.7 287.36 140.96C288.04 143.22 290.03 144.26 289.88 144.51C289.73 144.76 289.24 144.58 288.43 144.07C287.389 143.406 286.619 142.392 286.26 141.21C285.911 140.071 286.019 138.841 286.56 137.78C287 137 287.46 136.69 287.58 136.78Z" fill="#263238"/>
<path d="M299.35 117.73C298.89 118.07 297.42 116.79 295.35 115.73C293.28 114.67 291.41 114.2 291.42 113.63C291.42 113.37 291.98 113.13 292.88 113.11C294.05 113.135 295.2 113.427 296.24 113.964C297.28 114.502 298.183 115.27 298.88 116.21C299.43 117 299.56 117.57 299.35 117.73Z" fill="#263238"/>
<path d="M313.84 128C313.31 128.18 312.45 127 311.12 126.14C309.79 125.28 308.48 124.75 308.47 124.14C308.47 123.88 308.9 123.62 309.63 123.6C310.574 123.628 311.489 123.934 312.259 124.48C313.03 125.027 313.621 125.789 313.96 126.67C314.18 127.41 314.08 127.9 313.84 128Z" fill="#263238"/>
<path d="M320.86 112.68C320.532 114.013 319.811 115.216 318.791 116.134C317.77 117.052 316.497 117.641 315.137 117.825C313.777 118.01 312.393 117.781 311.164 117.168C309.936 116.556 308.921 115.588 308.25 114.39C308.33 115.034 308.17 115.686 307.802 116.22C307.433 116.755 306.881 117.136 306.25 117.29C304.967 117.545 303.635 117.286 302.54 116.57C301.364 115.879 300.351 114.942 299.569 113.824C298.787 112.705 298.255 111.432 298.01 110.09C297.289 110.912 296.388 111.556 295.376 111.97C294.364 112.385 293.27 112.56 292.18 112.48C291.093 112.381 290.043 112.03 289.116 111.453C288.189 110.877 287.41 110.092 286.84 109.16C287.108 110.453 286.98 111.798 286.474 113.018C285.967 114.237 285.105 115.277 284 116C282.879 116.708 281.565 117.047 280.242 116.968C278.918 116.889 277.653 116.397 276.625 115.56C275.596 114.724 274.856 113.586 274.509 112.307C274.162 111.027 274.225 109.671 274.69 108.43C274.089 107.514 273.706 106.473 273.572 105.385C273.437 104.298 273.555 103.194 273.916 102.16C274.276 101.126 274.87 100.188 275.651 99.4197C276.432 98.6515 277.38 98.0734 278.42 97.73C277.984 97.1243 277.715 96.4142 277.642 95.6715C277.568 94.9287 277.691 94.1797 278 93.5C278.616 92.1336 279.582 90.9539 280.8 90.08C282.198 88.9169 283.814 88.0452 285.554 87.5162C287.293 86.9872 289.121 86.8117 290.93 87C294.53 87.53 297.88 90.22 298.58 93.8C298.611 94.2108 298.768 94.6019 299.03 94.92C299.265 95.0751 299.535 95.1707 299.815 95.1985C300.096 95.2264 300.379 95.1857 300.64 95.08C303.06 94.51 305.64 93.87 308 94.64C309.422 95.1488 310.63 96.123 311.428 97.4044C312.227 98.6859 312.569 100.2 312.4 101.7C315.4 100.21 319.4 100.7 321.57 103.2C323.74 105.7 323.29 110.26 320.38 111.92" fill="#263238"/>
<path d="M279 114.57C277.3 116.884 275.279 118.944 273 120.69C272 121.43 270.8 122.14 269.66 121.69C269.164 121.443 268.759 121.044 268.505 120.551C268.252 120.059 268.162 119.497 268.25 118.95C268.451 117.854 268.918 116.823 269.61 115.95C271.91 112.745 274.419 109.695 277.12 106.82" fill="#263238"/>
<path d="M275.18 114.73C275.08 114.57 270.63 108.73 266.55 114.73C262.47 120.73 269.26 123.54 269.39 123.38C269.52 123.22 275.18 114.73 275.18 114.73Z" fill="#FFBE9D"/>
<path d="M269.12 119.83C269.12 119.83 268.97 119.83 268.74 119.83C268.424 119.768 268.144 119.585 267.96 119.32C267.744 118.811 267.668 118.254 267.738 117.706C267.808 117.158 268.023 116.638 268.36 116.2C268.691 115.68 269.135 115.243 269.66 114.92C269.844 114.772 270.061 114.672 270.293 114.626C270.525 114.581 270.764 114.593 270.99 114.66C271.13 114.71 271.248 114.807 271.323 114.935C271.398 115.063 271.425 115.214 271.4 115.36C271.4 115.58 271.25 115.67 271.27 115.7C271.29 115.73 271.47 115.7 271.59 115.41C271.647 115.238 271.647 115.052 271.59 114.88C271.552 114.763 271.491 114.655 271.41 114.562C271.33 114.469 271.231 114.394 271.12 114.34C270.844 114.217 270.541 114.17 270.241 114.201C269.941 114.233 269.654 114.343 269.41 114.52C268.805 114.861 268.294 115.345 267.92 115.93C267.13 117.16 266.97 118.7 267.66 119.54C267.789 119.693 267.95 119.816 268.131 119.901C268.312 119.985 268.51 120.029 268.71 120.03C269 120 269.14 119.86 269.12 119.83Z" fill="#EB996E"/>
<path d="M298.5 108.7C298.5 108.7 298.55 108.77 298.65 108.87C298.75 108.97 298.93 109.13 299.15 109.32C299.796 109.878 300.512 110.349 301.28 110.72C301.829 110.99 302.411 111.188 303.01 111.31C303.778 111.472 304.573 111.456 305.334 111.263C306.094 111.071 306.801 110.707 307.4 110.2C308.122 109.586 308.595 108.729 308.73 107.79H308.43C309.168 109.707 310.508 111.332 312.25 112.42C313.193 113.017 314.237 113.437 315.33 113.66C315.905 113.782 316.494 113.819 317.08 113.77C317.694 113.704 318.278 113.472 318.77 113.1C319.32 112.652 319.764 112.089 320.07 111.45C320.366 110.846 320.617 110.221 320.82 109.58C321.044 108.956 321.176 108.302 321.21 107.64C321.234 107.306 321.184 106.971 321.065 106.659C320.946 106.346 320.76 106.063 320.52 105.83L320.26 106.07C321.075 107.043 322.19 107.719 323.43 107.99C324.551 108.247 325.721 108.188 326.81 107.82C327.78 107.483 328.626 106.863 329.24 106.04C329.761 105.34 330.122 104.534 330.3 103.68C330.564 102.476 330.442 101.22 329.95 100.09C329.781 99.6856 329.548 99.3109 329.26 98.98C329.26 98.98 329.53 99.36 329.85 100.13C330.279 101.25 330.363 102.472 330.09 103.64C329.919 104.452 329.578 105.219 329.09 105.89C328.49 106.655 327.681 107.228 326.76 107.54C325.723 107.88 324.611 107.925 323.55 107.67C322.374 107.419 321.316 106.777 320.55 105.85L320.3 106.09C320.498 106.294 320.651 106.537 320.747 106.805C320.844 107.072 320.882 107.357 320.86 107.64C320.828 108.265 320.703 108.882 320.49 109.47C320.179 110.745 319.509 111.904 318.56 112.81C318.103 113.115 317.587 113.317 317.045 113.403C316.503 113.489 315.949 113.458 315.42 113.31C314.356 113.097 313.34 112.694 312.42 112.12C310.739 111.076 309.439 109.519 308.71 107.68L308.48 107.08L308.41 107.72C308.288 108.582 307.858 109.371 307.2 109.94C306.601 110.462 305.884 110.829 305.11 111.01C304.427 111.149 303.723 111.149 303.04 111.01C302.457 110.904 301.889 110.726 301.35 110.48C300.586 110.126 299.865 109.686 299.2 109.17C298.75 108.89 298.51 108.69 298.5 108.7Z" fill="white"/>
<path d="M318.75 118.34C318.75 118.34 318.81 118.52 319.02 118.79C319.329 119.171 319.709 119.487 320.14 119.72C320.788 120.093 321.535 120.257 322.28 120.19C322.747 120.144 323.177 119.918 323.48 119.56C323.65 119.36 323.759 119.114 323.793 118.853C323.827 118.592 323.784 118.327 323.67 118.09L323.37 118.3L323.45 118.4C323.993 119.026 324.667 119.525 325.423 119.862C326.18 120.199 327.002 120.365 327.83 120.35C328.33 120.35 328.826 120.269 329.3 120.11C329.63 120 329.8 119.9 329.79 119.88C329.132 120.015 328.462 120.088 327.79 120.1C327.008 120.078 326.239 119.894 325.532 119.56C324.825 119.226 324.194 118.749 323.68 118.16L323.6 118.07L322.44 116.73L323.3 118.27C323.38 118.444 323.409 118.637 323.382 118.827C323.355 119.017 323.275 119.195 323.15 119.34C322.898 119.638 322.539 119.824 322.15 119.86C321.463 119.934 320.768 119.809 320.15 119.5C319.629 119.184 319.157 118.793 318.75 118.34Z" fill="white"/>
<path d="M304.86 128.49C304.86 128.55 305.4 128.49 306.24 128.49C307.327 128.556 308.384 128.871 309.33 129.41C310.267 129.967 311.058 130.738 311.64 131.66C312.1 132.37 312.27 132.87 312.33 132.85C312.283 132.38 312.125 131.928 311.87 131.53C311.318 130.522 310.503 129.683 309.511 129.102C308.52 128.52 307.389 128.219 306.24 128.23C305.766 128.206 305.293 128.295 304.86 128.49Z" fill="#EB996E"/>
<path d="M289 117.92C289.37 117.942 289.74 117.942 290.11 117.92C290.984 117.974 291.833 118.231 292.59 118.67C293.346 119.115 293.989 119.727 294.47 120.46C294.85 121.02 295 121.46 295.05 121.46C295.032 121.074 294.907 120.7 294.69 120.38C294.254 119.547 293.592 118.854 292.78 118.38C291.969 117.914 291.046 117.675 290.11 117.69C289.726 117.666 289.343 117.745 289 117.92Z" fill="#EB996E"/>
<path d="M285.74 136.44C285.74 136.44 285.92 136.44 286.16 136.36C286.466 136.287 286.784 136.287 287.09 136.36C287.82 136.57 288.39 136.95 288.45 136.84C288.51 136.73 288.04 136.27 287.19 136.01C286.82 135.902 286.424 135.927 286.07 136.08C285.8 136.24 285.71 136.41 285.74 136.44Z" fill="#EB996E"/>
<path d="M284 136.56C284.08 136.63 284.5 136.26 285.08 135.9C285.66 135.54 286.16 135.3 286.08 135.2C286 135.1 285.45 135.2 284.83 135.59C284.21 135.98 284 136.5 284 136.56Z" fill="#EB996E"/>
<path d="M264.14 119C263.67 118.891 263.18 118.891 262.71 119C261.407 119.238 260.19 119.814 259.18 120.67C258.426 121.326 257.828 122.142 257.432 123.06C257.035 123.977 256.85 124.972 256.89 125.97C256.942 127.202 257.347 128.393 258.056 129.402C258.765 130.41 259.749 131.194 260.89 131.66C262.088 132.147 263.412 132.228 264.66 131.89C265.802 131.592 266.86 131.035 267.75 130.26C268.52 129.624 269.138 128.825 269.56 127.92C269.982 127.016 270.197 126.028 270.19 125.03C270.155 123.691 269.664 122.404 268.8 121.38C268.18 120.67 267.7 120.45 267.68 120.48C267.66 120.51 268.06 120.83 268.58 121.55C269.303 122.566 269.688 123.783 269.68 125.03C269.653 125.941 269.427 126.835 269.02 127.65C268.612 128.465 268.032 129.182 267.32 129.75C266.502 130.496 265.497 131.006 264.413 131.226C263.328 131.447 262.204 131.368 261.16 131C260.135 130.585 259.249 129.889 258.603 128.992C257.957 128.095 257.578 127.033 257.51 125.93C257.464 125.02 257.62 124.11 257.965 123.267C258.311 122.423 258.838 121.667 259.51 121.05C260.44 120.206 261.557 119.596 262.77 119.27C263.64 119.11 264.14 119.08 264.14 119Z" fill="#455A64"/>
<path d="M159.28 239.3C141.1 253.4 138.34 275.79 137.09 288.63C135.84 301.47 125.92 352.8 125.92 352.8C125.92 352.8 105.15 385.05 97.6901 398.72C90.2301 412.39 75.3601 440.93 75.3601 440.93L100.25 456.31C100.25 456.31 144.96 395.45 152.83 383.44C160.7 371.43 200.83 270.32 200.83 270.32L159.28 239.3Z" fill="#263238"/>
<path d="M218.44 272.57C219.69 274.97 252.7 356.41 251.84 364.57C250.98 372.73 209.84 456.33 209.84 456.33L179.4 443.42L210.69 374L211.55 364.46L182.4 309.26L191.83 268.54L218.44 272.57Z" fill="#263238"/>
<path d="M196.76 283.26C196.9 283.32 193.45 291.51 189.07 301.56C184.69 311.61 181.07 319.7 180.9 319.64C180.73 319.58 184.21 311.4 188.59 301.35C192.97 291.3 196.63 283.2 196.76 283.26Z" fill="#455A64"/>
<path d="M222.94 367.25C221.061 367.787 219.069 367.787 217.19 367.25C215.271 366.876 213.492 365.98 212.05 364.66C213.735 365.519 215.496 366.218 217.31 366.75C219.168 367.088 221.052 367.255 222.94 367.25Z" fill="#455A64"/>
<path d="M221.63 375.26C221.63 375.4 219.38 374.59 216.56 374.09C213.74 373.59 211.4 373.57 211.4 373.41C213.144 373.125 214.928 373.182 216.65 373.58C218.404 373.806 220.097 374.377 221.63 375.26Z" fill="#455A64"/>
<path d="M167.31 254.56C167.31 254.56 167.12 254.77 166.72 255.08C166.32 255.39 165.72 255.8 164.94 256.28C160.857 258.707 156.236 260.082 151.49 260.28C150.777 260.324 150.063 260.324 149.35 260.28C148.84 260.28 148.56 260.21 148.57 260.17C148.58 260.13 149.68 260.09 151.47 259.94C153.791 259.728 156.085 259.29 158.32 258.63C160.55 257.957 162.708 257.062 164.76 255.96C165.584 255.447 166.435 254.98 167.31 254.56Z" fill="#455A64"/>
<path d="M274.14 171.54L300.77 205.92L356.63 228.8L350.68 240.72L279.28 216.34L255.9 168.41L274.14 171.54Z" fill="#455A64"/>
<g opacity="0.2">
<path d="M274.14 171.54L300.77 205.92L356.63 228.8L350.68 240.72L279.28 216.34L255.9 168.41L274.14 171.54Z" fill="black"/>
</g>
<path d="M248.23 151.18C247.665 150.634 247.338 149.888 247.317 149.103C247.296 148.317 247.585 147.555 248.12 146.98L251.76 142.91C251.991 142.599 252.336 142.391 252.719 142.331C253.103 142.271 253.495 142.364 253.81 142.59C258.88 146.26 278.07 160.83 278.03 165.01C278.03 169.73 269.85 174.49 269.85 174.49L248.23 151.18Z" fill="#455A64"/>
<path d="M235.53 176.62C235.53 176.62 271.2 225.9 280.53 231.62C289.86 237.34 348.23 245.33 348.23 245.33L350.45 228L294.13 210C294.13 210 257.38 155.84 256.44 154.28C255.5 152.72 248.25 146.87 240.25 147.89C232.25 148.91 228.19 161.54 230.95 167.79C232 170.13 235.53 176.62 235.53 176.62Z" fill="#455A64"/>
<path d="M248.46 147.91C248.46 147.91 238.2 143.5 228.35 152.68C223.08 157.61 174.85 225.19 171.44 229.68L157.59 239.25C180.77 260.59 198.73 278.44 223.45 284.64L236.33 242.87L275.9 206.87L248.46 147.91Z" fill="#455A64"/>
<path d="M231.68 171.54C231.816 171.68 231.937 171.834 232.04 172C232.28 172.36 232.59 172.82 232.98 173.37C233.78 174.58 234.98 176.3 236.45 178.37C239.45 182.6 243.72 188.3 248.71 194.42C253.7 200.54 258.38 205.94 261.71 209.86C263.36 211.79 264.71 213.36 265.71 214.52L266.78 215.8C267.02 216.09 267.14 216.26 267.12 216.27C266.967 216.151 266.826 216.017 266.7 215.87L265.56 214.65L261.45 210.1C258.01 206.24 253.29 200.87 248.29 194.74C243.29 188.61 239.03 182.87 236.13 178.58C234.67 176.43 233.53 174.67 232.79 173.43C232.44 172.85 232.15 172.43 231.93 172C231.83 171.857 231.746 171.702 231.68 171.54Z" fill="#263238"/>
<path d="M350.45 228L350.17 227.93L349.35 227.67L346.2 226.67L334.42 222.75L294.05 209.16H293.97L293.92 209.08C290.27 203.7 286.36 197.92 282.33 191.96L264.86 166.1L257.25 154.81C256.698 153.934 256.097 153.089 255.45 152.28C255.115 151.917 254.75 151.583 254.36 151.28C253.97 150.97 253.63 150.61 253.22 150.34C251.649 149.298 249.881 148.589 248.025 148.256C246.17 147.923 244.266 147.974 242.43 148.405C240.595 148.836 238.868 149.638 237.354 150.762C235.841 151.886 234.573 153.308 233.63 154.94C233.227 155.73 232.892 156.553 232.63 157.4C232.415 158.017 232.261 158.653 232.17 159.3C232.04 160.19 231.98 160.63 231.94 160.91C231.934 160.367 231.978 159.825 232.07 159.29C232.136 158.63 232.277 157.979 232.49 157.35C232.737 156.482 233.072 155.641 233.49 154.84C234.721 152.666 236.505 150.855 238.66 149.59C241.54 147.916 244.91 147.287 248.2 147.81C250.094 148.177 251.894 148.925 253.49 150.01C253.9 150.323 254.294 150.657 254.67 151.01C255.078 151.329 255.456 151.684 255.8 152.07C256.465 152.891 257.082 153.749 257.65 154.64L265.3 165.91L282.8 191.74L294.38 208.87L294.25 208.78L334.57 222.54L346.29 226.59L349.42 227.7L350.23 228C350.37 228 350.46 228 350.45 228Z" fill="#263238"/>
<path d="M255.9 205.92C255.758 206.169 255.583 206.398 255.38 206.6C255.02 207.02 254.47 207.6 253.76 208.26C249.994 211.763 245.449 214.319 240.5 215.72C239.754 215.939 238.996 216.116 238.23 216.25C237.953 216.321 237.666 216.351 237.38 216.34C237.38 216.25 238.54 215.98 240.38 215.34C245.192 213.77 249.652 211.277 253.51 208C255 206.72 255.83 205.86 255.9 205.92Z" fill="#263238"/>
<path d="M232.92 235.71C232.348 235.837 231.766 235.918 231.18 235.95C230.06 236.08 228.43 236.18 226.41 236.25C215.86 236.548 205.347 234.876 195.41 231.32C193.51 230.63 191.99 230.03 190.96 229.56C190.416 229.344 189.888 229.09 189.38 228.8C189.949 228.94 190.505 229.13 191.04 229.37C192.04 229.78 193.62 230.37 195.53 230.97C205.476 234.309 215.909 235.968 226.4 235.88C228.4 235.88 230.03 235.81 231.16 235.75C231.745 235.694 232.333 235.681 232.92 235.71Z" fill="#263238"/>
<path d="M234.29 229.66C233.393 230.006 232.455 230.238 231.5 230.35C226.911 231.109 222.214 230.922 217.7 229.8C216.758 229.614 215.844 229.308 214.98 228.89C215.926 229.021 216.864 229.205 217.79 229.44C220.032 229.89 222.305 230.164 224.59 230.26C226.88 230.342 229.174 230.249 231.45 229.98C232.39 229.82 233.338 229.713 234.29 229.66Z" fill="#263238"/>
<g opacity="0.2">
<path d="M237.89 180.78L253.89 207.91C253.89 207.91 244.89 214.33 241.16 215.33C246.222 213.89 251.158 212.04 255.92 209.8L264.35 213.62L237.89 180.78Z" fill="black"/>
</g>
<g opacity="0.2">
<path d="M228.21 235.89C222.612 238.796 216.246 239.884 210 239C203.966 238.243 198.371 235.449 194.14 231.08C194.14 231.08 207.2 234.63 212.21 235.19C217.22 235.75 228.21 235.89 228.21 235.89Z" fill="black"/>
</g>
<path d="M175.06 242C173.312 242.54 171.633 243.285 170.06 244.22C168.716 245.117 167.516 246.213 166.5 247.47L166.3 247.32C166.6 246.99 166.77 246.82 166.81 246.85C166.85 246.88 166.74 247.09 166.5 247.47L166.3 247.33C167.175 245.901 168.361 244.687 169.77 243.78C171.314 242.668 173.158 242.048 175.06 242Z" fill="#263238"/>
<path d="M188.24 252.69C186.429 255.708 183.801 258.152 180.66 259.74C180.57 259.61 182.51 258.31 184.59 256.36C186.67 254.41 188.11 252.59 188.24 252.69Z" fill="#263238"/>
<path d="M202.16 264.4C201.46 266.094 200.441 267.639 199.16 268.95C198.023 270.373 196.628 271.571 195.05 272.48C194.95 272.35 196.83 270.83 198.77 268.6C200.71 266.37 202 264.32 202.16 264.4Z" fill="#263238"/>
<path d="M216.79 270.25C216.527 273.854 214.984 277.245 212.44 279.81C212.32 279.71 213.81 277.81 215 275.2C216.19 272.59 216.63 270.22 216.79 270.25Z" fill="#263238"/>
<path d="M252 149.25C252 149.25 252.05 148.83 252.38 148.25C252.819 147.502 253.425 146.865 254.15 146.39C254.877 145.93 255.674 145.592 256.51 145.39C257.15 145.24 257.51 145.21 257.56 145.28C257.61 145.35 256.04 145.82 254.44 146.81C252.84 147.8 252.11 149.34 252 149.25Z" fill="#263238"/>
<path d="M258.94 156.12C259.318 154.922 260.063 153.872 261.07 153.12C261.955 152.24 263.096 151.663 264.33 151.47C264.39 151.61 262.88 152.23 261.41 153.47C259.94 154.71 259.08 156.19 258.94 156.12Z" fill="#263238"/>
<path d="M272.69 159C272.046 160.597 271.048 162.026 269.77 163.18C268.614 164.453 267.18 165.442 265.58 166.07C265.5 165.93 267.45 164.77 269.41 162.81C271.37 160.85 272.55 158.93 272.69 159Z" fill="#263238"/>
<path d="M349.69 228.78L357.77 217.7L363.77 216.39L376.7 213.76C376.7 213.76 378.2 214.65 376.38 216.92L375.33 217.77L380.33 217.64C380.367 218.416 380.168 219.185 379.76 219.846C379.351 220.506 378.751 221.027 378.04 221.34L369.6 223.79L366.42 224.79C366.42 224.79 373.07 225.25 375.42 224.42C376.825 223.92 378.309 223.676 379.8 223.7C379.8 223.7 381.19 225.11 379.47 226.96C377.75 228.81 372.69 229.36 371.47 229.66C369.655 229.886 367.829 229.999 366 230C367.392 230.782 368.974 231.163 370.57 231.1C373.45 231.1 376.42 231.16 376.42 231.16C376.42 231.16 376.56 233.9 374.81 234.43C373.06 234.96 365.3 234.82 365.3 234.82L363.15 236C363.15 236 357.44 242 355.43 242.88C353.42 243.76 348.19 245.29 348.19 245.29L349.69 228.78Z" fill="#FFBE9D"/>
<path d="M376 217.92C375.398 218.312 374.741 218.612 374.05 218.81C372.429 219.395 370.754 219.82 369.05 220.08C367.35 220.346 365.63 220.454 363.91 220.4C363.195 220.428 362.479 220.344 361.79 220.15C361.79 219.99 365.04 220.15 368.97 219.57C372.9 218.99 375.93 217.77 376 217.92Z" fill="#EB996E"/>
<path d="M479.81 431.4C479.81 431.4 458.53 406.91 450.49 382.4C442.45 357.89 446.28 360.72 446.28 360.72C446.28 360.72 457.12 384.51 465.35 396.01C473.58 407.51 488.24 424.36 488.24 424.36L479.81 431.4Z" fill="#455A64"/>
<path d="M484.05 364.55C483.909 364.295 483.682 364.099 483.411 363.994C483.139 363.89 482.839 363.884 482.564 363.978C482.289 364.072 482.055 364.26 481.905 364.509C481.754 364.758 481.695 365.052 481.74 365.34C483.04 373.94 485.84 394.13 485.74 407.22C485.6 424.22 485.74 430.81 485.74 430.81H494.59C494.59 430.81 493 395.64 491 384.92C489.62 377.4 486.64 369.06 484.05 364.55Z" fill="#455A64"/>
<path d="M488.88 428C492.59 419.587 495.047 410.676 496.17 401.55C496.9 395.29 495.59 386.83 493.66 375.55C492.909 371.409 492.535 367.209 492.54 363C492.525 362.519 492.676 362.047 492.966 361.663C493.257 361.279 493.67 361.006 494.137 360.889C494.604 360.772 495.097 360.819 495.534 361.021C495.971 361.223 496.326 361.569 496.54 362C497.61 363.91 500.7 370.42 501.48 374.51C503.63 385.66 506.06 391.23 504.2 401.81C502.34 412.39 495.48 428.68 495.48 428.68L488.88 428Z" fill="#455A64"/>
<path d="M496.85 428.66C496.85 428.66 520.22 378.45 521.85 371C523.48 363.55 528.97 346.39 529.62 347.36C530.27 348.33 531.24 357.36 527.03 367.76C522.82 378.16 504.84 430.19 504.84 430.19H496.84" fill="#455A64"/>
<path d="M486.32 426.42C486.088 426.289 485.867 426.138 485.66 425.97C485.25 425.65 484.66 425.21 483.85 424.59C482.3 423.36 480.11 421.51 477.57 419.04C470.992 412.563 465.294 405.251 460.62 397.29C455.965 389.325 452.091 380.93 449.05 372.22C447.88 368.89 447.05 366.16 446.46 364.22C446.18 363.27 445.98 362.53 445.84 362.03C445.759 361.779 445.699 361.521 445.66 361.26C445.776 361.498 445.869 361.746 445.94 362C446.11 362.54 446.35 363.26 446.65 364.16C447.26 366.04 448.17 368.75 449.38 372.06C452.506 380.71 456.412 389.058 461.05 397C465.706 404.928 471.34 412.238 477.82 418.76C480.32 421.25 482.46 423.14 483.98 424.41C484.72 425.05 485.33 425.52 485.72 425.86C485.938 426.027 486.139 426.215 486.32 426.42Z" fill="#263238"/>
<path d="M488.87 402.33C488.764 401.846 488.694 401.354 488.66 400.86C488.55 399.86 488.41 398.46 488.23 396.86C487.86 393.46 487.29 388.78 486.46 383.63C485.63 378.48 484.71 373.85 484 370.51C483.65 368.91 483.37 367.58 483.15 366.51C483.017 366.029 482.926 365.537 482.88 365.04C483.074 365.498 483.224 365.974 483.33 366.46C483.6 367.38 483.94 368.72 484.33 370.39C485.13 373.71 486.11 378.34 486.94 383.5C487.77 388.66 488.29 393.37 488.57 396.78C488.72 398.48 488.81 399.86 488.85 400.78C488.908 401.295 488.915 401.814 488.87 402.33Z" fill="#263238"/>
<path d="M494.35 361.59C494.459 361.791 494.549 362.002 494.62 362.22L495.32 364.09C495.63 364.9 495.99 365.9 496.32 367.09C496.65 368.28 497.11 369.6 497.45 371.09C497.64 371.84 497.83 372.63 498.03 373.45C498.23 374.27 498.37 375.14 498.54 376.03C498.93 377.82 499.16 379.75 499.45 381.78C499.947 386.202 500.131 390.653 500 395.1C499.813 399.54 499.308 403.962 498.49 408.33C498.07 410.33 497.69 412.25 497.18 414C496.94 414.88 496.74 415.73 496.49 416.54L495.74 418.85C495.29 420.34 494.74 421.63 494.32 422.78C493.9 423.93 493.47 424.91 493.1 425.69L492.27 427.5C492.188 427.719 492.08 427.927 491.95 428.12C492.011 427.895 492.088 427.674 492.18 427.46L492.93 425.62C493.26 424.82 493.66 423.84 494.06 422.68C494.46 421.52 494.98 420.23 495.4 418.74L496.12 416.43C496.36 415.63 496.55 414.77 496.78 413.89C497.27 412.15 497.63 410.24 498.04 408.25C499.668 399.543 499.988 390.642 498.99 381.84C498.72 379.84 498.5 377.9 498.14 376.12C497.97 375.23 497.84 374.36 497.65 373.54C497.46 372.72 497.28 371.94 497.11 371.18C496.79 369.67 496.37 368.34 496.05 367.18C495.73 366.02 495.41 364.99 495.13 364.18C494.85 363.37 494.67 362.77 494.52 362.29C494.435 362.064 494.378 361.829 494.35 361.59Z" fill="#263238"/>
<path d="M529.34 348.37C529.355 348.443 529.355 348.518 529.34 348.59L529.23 349.25C529.13 349.82 529 350.67 528.77 351.74C528.32 353.9 527.57 357.01 526.4 360.74C525.23 364.47 523.64 368.94 521.75 373.8C519.86 378.66 517.67 383.96 515.6 389.59C513.53 395.22 511.87 400.72 510.34 405.7C508.81 410.68 507.4 415.17 506.01 418.87C504.942 421.797 503.71 424.662 502.32 427.45C501.85 428.45 501.41 429.19 501.14 429.7L500.81 430.27C500.775 430.339 500.731 430.403 500.68 430.46C500.702 430.387 500.732 430.316 500.77 430.25C500.84 430.09 500.94 429.89 501.05 429.65C501.3 429.13 501.7 428.37 502.15 427.37C503.09 425.37 504.36 422.45 505.68 418.74C507 415.03 508.42 410.56 509.9 405.57C511.38 400.58 513.02 395.07 515.13 389.42C517.24 383.77 519.41 378.48 521.32 373.63C523.23 368.78 524.86 364.39 526.06 360.63C527.26 356.87 528.06 353.8 528.58 351.63C528.84 350.56 529 349.72 529.13 349.16C529.19 348.9 529.24 348.69 529.29 348.51C529.304 348.463 529.321 348.416 529.34 348.37Z" fill="#263238"/>
<path d="M457.3 337.28C456.982 336.956 456.564 336.749 456.113 336.694C455.662 336.639 455.207 336.739 454.82 336.978C454.434 337.216 454.14 337.579 453.988 338.007C453.835 338.434 453.832 338.901 453.98 339.33C454.784 341.912 455.766 344.435 456.92 346.88C460.13 353.7 469.57 378.2 473.98 391.65C478.39 405.1 484.62 430.19 484.62 430.19L494.06 428.66C494.06 428.66 485.43 387.43 477 372.58C470.22 360.64 463.45 343.39 457.3 337.28Z" fill="#455A64"/>
<path d="M476.57 400.06C476.767 400.42 476.928 400.798 477.05 401.19C477.33 401.93 477.71 403.01 478.14 404.36C479.01 407.05 480.07 410.81 481.14 414.98C482.21 419.15 483.14 422.98 483.72 425.71C484 427.01 484.24 428.11 484.43 428.98C484.543 429.374 484.607 429.78 484.62 430.19C484.457 429.816 484.329 429.428 484.24 429.03L483.38 425.79L480.66 415.1C479.59 410.93 478.58 407.17 477.8 404.46L476.87 401.25C476.719 400.868 476.619 400.468 476.57 400.06Z" fill="#263238"/>
<path d="M489.36 429.43C489.336 429.348 489.319 429.265 489.31 429.18C489.31 428.98 489.25 428.74 489.2 428.43C489.1 427.78 489.01 426.81 488.82 425.58C488.47 423.1 487.82 419.53 486.82 415.17C485.611 410.076 484.135 405.049 482.4 400.11C480.47 394.52 478.04 388.48 475.29 382.23C469.74 369.75 464.2 358.68 460.56 350.49C458.72 346.41 457.29 343.07 456.35 340.75C455.87 339.59 455.53 338.68 455.29 338.07C455.19 337.78 455.1 337.55 455.03 337.37C454.991 337.292 454.968 337.207 454.96 337.12C455.012 337.19 455.052 337.268 455.08 337.35L455.39 338.03C455.66 338.67 456.05 339.55 456.53 340.68C457.53 342.97 459 346.28 460.88 350.35C464.6 358.49 470.19 369.53 475.75 382.03C478.5 388.29 480.92 394.35 482.84 399.96C484.562 404.922 486.004 409.977 487.16 415.1C488.16 419.47 488.7 423.1 488.99 425.55C489.16 426.79 489.22 427.77 489.28 428.42L489.34 429.17C489.36 429.255 489.367 429.343 489.36 429.43Z" fill="#263238"/>
<path d="M494.06 428.66C493.904 428.144 493.797 427.615 493.74 427.08C493.55 425.97 493.3 424.51 493 422.74C492.35 419.09 491.36 414.06 489.93 408.58C488.5 403.1 486.93 398.22 485.71 394.71C485.11 393.02 484.61 391.63 484.23 390.57C484.024 390.07 483.856 389.556 483.73 389.03C483.993 389.502 484.22 389.994 484.41 390.5C484.82 391.5 485.41 392.85 486.04 394.59C487.742 399.13 489.204 403.757 490.42 408.45C491.636 413.144 492.614 417.897 493.35 422.69C493.62 424.53 493.83 426.02 493.93 427.05C494.01 427.583 494.053 428.121 494.06 428.66Z" fill="#263238"/>
<path d="M513.41 427.31H476.6V472.16H513.41V427.31Z" fill="#9747FF"/>
<g opacity="0.3">
<path d="M513.41 427.31H476.6V472.16H513.41V427.31Z" fill="black"/>
</g>
<path d="M501.67 427.31H469.01V472.16H501.67V427.31Z" fill="#9747FF"/>
</svg>
