<svg width="42" height="38" viewBox="0 0 42 38" fill="none" xmlns="http://www.w3.org/2000/svg">
<g clip-path="url(#clip0_934_3322)">
<path fill-rule="evenodd" clip-rule="evenodd" d="M26.25 32.5716C27.6289 32.5716 28.9943 32.2907 30.2681 31.7451C31.5421 31.1994 32.6996 30.3998 33.6747 29.3916C34.6497 28.3834 35.423 27.1865 35.9507 25.8692C36.4784 24.552 36.75 23.1402 36.75 21.7144C36.75 17.3952 35.0906 13.2528 32.1369 10.1987C29.1833 7.14452 25.1771 5.42871 21 5.42871C16.8229 5.42871 12.8167 7.14452 9.86307 10.1987C6.90937 13.2528 5.25 17.3952 5.25 21.7144C5.25 23.1402 5.52159 24.552 6.04926 25.8692C6.57694 27.1865 7.35037 28.3834 8.32538 29.3916C9.3004 30.3998 10.4579 31.1994 11.7319 31.7451C13.0057 32.2907 14.3711 32.5716 15.75 32.5716H26.25ZM21 9.77157C17.9367 9.77157 14.9989 11.0298 12.8329 13.2695C10.6668 15.5092 9.45 18.547 9.45 21.7144C9.45 22.5699 9.61295 23.4169 9.92956 24.2073C10.2462 24.9977 10.7102 25.7158 11.2953 26.3207C11.8802 26.9256 12.5747 27.4054 13.3391 27.7329C14.1035 28.0602 14.9227 28.2287 15.75 28.2287H26.25C27.0773 28.2287 27.8965 28.0602 28.6609 27.7329C29.4253 27.4054 30.1198 26.9256 30.7047 26.3207C31.2898 25.7158 31.7538 24.9977 32.0705 24.2073C32.387 23.4169 32.55 22.5699 32.55 21.7144C32.55 18.547 31.3332 15.5092 29.1671 13.2695C27.0011 11.0298 24.0633 9.77157 21 9.77157Z" fill="#9747FF"/>
<path fill-rule="evenodd" clip-rule="evenodd" d="M13.65 38C11.8574 38 10.0825 37.5787 8.42638 36.7603C6.77032 35.9419 5.26554 34.7423 3.99799 33.23C2.73049 31.7177 1.72503 29.9225 1.03904 27.9466C0.35307 25.9707 0 23.8529 0 21.7143C0 15.9553 2.2125 10.4322 6.15076 6.35996C10.089 2.28775 15.4305 0 21 0C26.5695 0 31.911 2.28775 35.8492 6.35996C39.7875 10.4322 42 15.9553 42 21.7143C42 23.8529 41.6469 25.9707 40.9609 27.9466C40.275 29.9225 39.2695 31.7177 38.002 33.23C36.7345 34.7423 35.2297 35.9419 33.5736 36.7603C31.9175 37.5787 30.1426 38 28.35 38H13.65ZM9.1206 9.43083C12.2712 6.17306 16.5443 4.34286 21 4.34286C25.4557 4.34286 29.7288 6.17306 32.8794 9.43083C36.03 12.6886 37.8 17.1071 37.8 21.7143C37.8 23.3623 37.5274 24.983 37.008 26.4793C36.4885 27.9754 35.7395 29.2984 34.8281 30.3858C33.9177 31.4719 32.8697 32.2948 31.7625 32.842C30.658 33.3879 29.5005 33.6571 28.35 33.6571H13.65C12.4995 33.6571 11.342 33.3879 10.2375 32.842C9.13026 32.2948 8.08227 31.4719 7.17189 30.3858C6.26054 29.2984 5.51148 27.9754 4.99205 26.4793C4.47259 24.983 4.2 23.3623 4.2 21.7143C4.2 17.1071 5.97 12.6886 9.1206 9.43083Z" fill="#9747FF"/>
<path d="M26.25 27.1431H20.9954C20.6426 27.1428 20.2924 27.1057 19.95 27.0335C19.2864 26.8934 18.6519 26.6211 18.0833 26.2282C17.2199 25.6317 16.5469 24.784 16.1496 23.792C16.0208 23.4703 15.9227 23.1382 15.856 22.8003C15.717 22.0962 15.714 21.367 15.8509 20.6555C16.0534 19.6024 16.5535 18.6352 17.2877 17.876C18.0219 17.1168 18.9573 16.5998 19.9757 16.3903C20.0076 16.3837 20.0395 16.3775 20.0714 16.3715C20.3791 16.3144 20.6899 16.286 21 16.286C21.6862 16.286 22.369 16.4251 23.0091 16.6992C23.9684 17.1101 24.7883 17.8059 25.3652 18.6986C25.9421 19.5913 26.25 20.6409 26.25 21.7146H22.05C22.05 21.4998 21.9885 21.2899 21.8731 21.1113C21.7577 20.9329 21.5937 20.7937 21.4018 20.7115C21.21 20.6293 20.9988 20.6078 20.7951 20.6497C20.5914 20.6916 20.4043 20.795 20.2575 20.9469C20.1107 21.0986 20.0107 21.2921 19.9702 21.5027C19.9296 21.7134 19.9504 21.9317 20.0299 22.1301C20.1094 22.3284 20.244 22.498 20.4166 22.6173C20.5893 22.7367 20.7923 22.8003 21 22.8003H26.25C26.3879 22.8003 26.5245 22.7722 26.6518 22.7177C26.7792 22.663 26.8949 22.5831 26.9925 22.4823C27.09 22.3814 27.1673 22.2618 27.2201 22.1301C27.2728 21.9984 27.3 21.8571 27.3 21.7146C27.3 19.9869 26.6363 18.33 25.4547 17.1083C24.2733 15.8866 22.6709 15.2003 21 15.2003C20.8188 15.2003 20.6384 15.2083 20.4593 15.2243C20.019 15.2635 19.5862 15.3503 19.1677 15.4819C18.756 15.6112 18.3582 15.784 17.9805 15.9972C17.5479 16.2415 17.1418 16.539 16.7716 16.8855C16.6946 16.9576 16.6191 17.0319 16.5453 17.1083C16.0284 17.6427 15.6106 18.2606 15.3041 18.9311C15.1509 19.2664 15.0254 19.6148 14.9294 19.9726C14.8196 20.3817 14.7482 20.803 14.7174 21.2308C14.7059 21.3912 14.7 21.5526 14.7 21.7146C14.7 22.5659 14.8614 23.4133 15.1795 24.2075C15.6564 25.3979 16.4639 26.4152 17.4999 27.131C17.5058 27.1351 17.5117 27.1391 17.5176 27.1431H15.75C15.0606 27.1431 14.3779 27.0028 13.7409 26.7299C13.104 26.4571 12.5252 26.0572 12.0377 25.5531C11.5502 25.049 11.1635 24.4506 10.8996 23.792C10.6358 23.1334 10.5 22.4274 10.5 21.7146C10.5 18.835 11.6063 16.0735 13.5753 14.0374C15.5445 12.0013 18.2152 10.8574 21 10.8574C23.7848 10.8574 26.4555 12.0013 28.4247 14.0374C30.3937 16.0735 31.5 18.835 31.5 21.7146C31.5 22.4274 31.3642 23.1334 31.1004 23.792C30.8365 24.4506 30.4498 25.049 29.9623 25.5531C29.4748 26.0572 28.896 26.4571 28.2591 26.7299C27.6221 27.0028 26.9394 27.1431 26.25 27.1431Z" fill="#9747FF"/>
</g>
<defs>
<clipPath id="clip0_934_3322">
<rect width="42" height="38" fill="white"/>
</clipPath>
</defs>
</svg>
