<svg width="283" height="165" viewBox="0 0 283 165" fill="none" xmlns="http://www.w3.org/2000/svg">
<g clip-path="url(#clip0_934_3046)">
<path d="M110.179 53.6537C108.506 56.1896 107.378 58.976 106.776 61.8523L102.174 62.2824V71.1467L106.776 71.5769C107.374 74.4494 108.502 77.2358 110.175 79.7754L107.235 83.3062L113.537 89.5748L117.086 86.65C119.636 88.3144 122.437 89.4364 125.328 90.0311L125.761 94.6092H134.672L135.104 90.0311C137.992 89.4327 140.793 88.3144 143.346 86.6462L146.896 89.5711L153.197 83.3025L150.257 79.7717C151.93 77.2358 153.058 74.4494 153.656 71.5731L158.258 71.143V62.2787L153.656 61.8485C153.054 58.9761 151.93 56.1896 150.253 53.65L153.194 50.1192L146.892 43.8506L143.342 46.7754C140.793 45.111 137.992 43.989 135.1 43.3905L134.668 38.8125H125.757L125.324 43.3905C122.437 43.989 119.636 45.1073 117.083 46.7717L113.533 43.8468L107.231 50.1155L110.172 53.6462L110.179 53.6537ZM138.755 58.228C143.466 62.9145 143.466 70.5146 138.755 75.2011C134.044 79.8876 126.404 79.8876 121.692 75.2011C116.981 70.5146 116.981 62.9145 121.692 58.228C126.404 53.5415 134.044 53.5415 138.755 58.228Z" fill="#E0E0E0"/>
<path d="M58.0062 65.8355L41.8287 69.0015C41.1135 69.1414 40.6478 69.8316 40.7885 70.543L45.0229 91.9531C45.1636 92.6645 45.8574 93.1277 46.5726 92.9878L62.7501 89.8218C63.4653 89.6819 63.931 88.9917 63.7903 88.2803L59.5559 66.8702C59.4152 66.1588 58.7213 65.6955 58.0062 65.8355Z" fill="#E6E6E6"/>
<path d="M45.6945 73.6701L56.209 71.6124C56.5705 71.5416 56.92 71.7782 56.9904 72.1341L57.0478 72.4241C57.1189 72.7837 56.8811 73.1314 56.5232 73.2014L46.0088 75.2591C45.6472 75.3299 45.2977 75.0933 45.2273 74.7373L45.17 74.4474C45.0988 74.0878 45.3366 73.7401 45.6945 73.6701Z" fill="#F0F0F0"/>
<path d="M46.5005 77.7472L57.015 75.6895C57.3765 75.6188 57.7261 75.8553 57.7965 76.2113L57.8538 76.5012C57.9249 76.8609 57.6871 77.2085 57.3293 77.2786L46.8148 79.3363C46.4533 79.407 46.1037 79.1705 46.0333 78.8145L45.976 78.5246C45.9049 78.1649 46.1427 77.8172 46.5005 77.7472Z" fill="#F0F0F0"/>
<path d="M47.3059 81.8204L57.8203 79.7628C58.1819 79.692 58.5314 79.9285 58.6018 80.2845L58.6592 80.5745C58.7303 80.9341 58.4925 81.2818 58.1346 81.3518L47.6202 83.4095C47.2586 83.4803 46.9091 83.2437 46.8387 82.8877L46.7814 82.5978C46.7102 82.2382 46.948 81.8905 47.3059 81.8204Z" fill="#F0F0F0"/>
<path d="M48.1154 85.8956L53.0369 84.9325C53.3984 84.8617 53.7479 85.0983 53.8183 85.4543L53.8757 85.7442C53.9468 86.1038 53.709 86.4515 53.3512 86.5216L48.4296 87.4847C48.0681 87.5555 47.7186 87.3189 47.6482 86.9629L47.5908 86.673C47.5197 86.3134 47.7575 85.9657 48.1154 85.8956Z" fill="#F0F0F0"/>
<path d="M80.4723 94.9318L70.2314 93.7152C69.5076 93.6293 68.8508 94.1432 68.7644 94.8631L67.1041 108.693C67.0176 109.413 67.5343 110.067 68.258 110.153L78.4989 111.369C79.2227 111.455 79.8794 110.941 79.9659 110.221L81.6262 96.391C81.7126 95.6711 81.196 95.0178 80.4723 94.9318Z" fill="#E6E6E6"/>
<path d="M78.2944 99.4074L71.2895 98.577C70.985 98.5396 70.7706 98.2666 70.8082 97.9674C70.8458 97.6644 71.1203 97.4512 71.4211 97.4886L78.426 98.319C78.7306 98.3564 78.9449 98.6294 78.9073 98.9286C78.8697 99.2316 78.5952 99.4448 78.2944 99.4111V99.4074Z" fill="#F0F0F0"/>
<path d="M77.9598 102.201L70.9549 101.371C70.6503 101.334 70.436 101.061 70.4736 100.761C70.5112 100.458 70.7857 100.245 71.0865 100.283L78.0914 101.113C78.3959 101.15 78.6102 101.423 78.5726 101.723C78.535 102.026 78.2606 102.239 77.9598 102.201Z" fill="#F0F0F0"/>
<path d="M77.6251 104.995L70.6203 104.165C70.3157 104.128 70.1014 103.854 70.139 103.555C70.1766 103.252 70.4511 103.039 70.7519 103.077L77.7567 103.907C78.0613 103.944 78.2756 104.217 78.238 104.517C78.2004 104.819 77.9259 105.033 77.6251 104.995Z" fill="#F0F0F0"/>
<path d="M73.4553 107.33L70.2819 106.952C69.9773 106.915 69.763 106.642 69.8006 106.342C69.8382 106.039 70.1127 105.826 70.4135 105.864L73.5869 106.241C73.8915 106.279 74.1058 106.552 74.0682 106.851C74.0306 107.154 73.7561 107.367 73.4553 107.33Z" fill="#F0F0F0"/>
<path d="M255.049 49.8083L242.942 45.2382C242.26 44.981 241.498 45.322 241.239 45.9999L235.07 62.1731C234.811 62.851 235.154 63.6091 235.835 63.8663L247.943 68.4364C248.624 68.6936 249.386 68.3526 249.645 67.6747L255.814 51.5015C256.073 50.8236 255.73 50.0655 255.049 49.8083Z" fill="#E6E6E6"/>
<path d="M243.375 50.0437L251.524 53.1196C251.809 53.2271 251.953 53.5454 251.845 53.8287L251.764 54.0385C251.656 54.3218 251.336 54.465 251.052 54.3575L242.903 51.2816C242.618 51.1741 242.474 50.8557 242.582 50.5725L242.662 50.3627C242.77 50.0794 243.09 49.9362 243.375 50.0437Z" fill="#F0F0F0"/>
<path d="M242.167 53.2078L250.316 56.2837C250.601 56.3911 250.745 56.7095 250.637 56.9928L250.557 57.2026C250.449 57.4858 250.128 57.629 249.844 57.5216L241.695 54.4457C241.41 54.3382 241.266 54.0198 241.374 53.7366L241.454 53.5267C241.562 53.2435 241.882 53.1003 242.167 53.2078Z" fill="#F0F0F0"/>
<path d="M249.112 59.4487L240.963 56.3728C240.678 56.2651 240.358 56.4079 240.25 56.6918L240.17 56.9016C240.062 57.1855 240.205 57.503 240.491 57.6107L248.64 60.6866C248.925 60.7943 249.244 60.6515 249.352 60.3676L249.432 60.1578C249.541 59.8739 249.397 59.5564 249.112 59.4487Z" fill="#F0F0F0"/>
<path d="M243.555 60.9746L239.752 59.5388C239.466 59.4311 239.147 59.5739 239.039 59.8578L238.959 60.0676C238.85 60.3515 238.994 60.669 239.279 60.7767L243.083 62.2125C243.368 62.3202 243.688 62.1774 243.796 61.8935L243.876 61.6837C243.984 61.3998 243.841 61.0823 243.555 60.9746Z" fill="#F0F0F0"/>
<path d="M150.054 9.41406H146.238C145.912 9.41406 145.647 9.67697 145.647 10.0013V14.7065C145.647 15.0308 145.912 15.2937 146.238 15.2937H150.054C150.38 15.2937 150.644 15.0308 150.644 14.7065V10.0013C150.644 9.67697 150.38 9.41406 150.054 9.41406Z" fill="#E0E0E0"/>
<path d="M157.57 4.83984H153.754C153.428 4.83984 153.164 5.10275 153.164 5.42706V14.7066C153.164 15.0309 153.428 15.2938 153.754 15.2938H157.57C157.896 15.2938 158.161 15.0309 158.161 14.7066V5.42706C158.161 5.10275 157.896 4.83984 157.57 4.83984Z" fill="#E0E0E0"/>
<path d="M165.658 0.321289H161.842C161.516 0.321289 161.251 0.584194 161.251 0.908504V14.8371C161.251 15.1614 161.516 15.4243 161.842 15.4243H165.658C165.984 15.4243 166.248 15.1614 166.248 14.8371V0.908504C166.248 0.584194 165.984 0.321289 165.658 0.321289Z" fill="#E0E0E0"/>
<path d="M253.823 102.856H185.861C184.646 102.856 183.657 101.872 183.657 100.664V2.19177C183.657 0.983679 184.646 0 185.861 0H253.823C255.037 0 256.026 0.983679 256.026 2.19177V100.661C256.026 101.869 255.037 102.852 253.823 102.852V102.856ZM185.864 0.0935056C184.702 0.0935056 183.755 1.03604 183.755 2.19177V100.661C183.755 101.816 184.702 102.759 185.864 102.759H253.826C254.988 102.759 255.936 101.816 255.936 100.661V2.19177C255.936 1.03604 254.988 0.0935056 253.826 0.0935056H185.864Z" fill="#E0E0E0"/>
<path d="M175.457 102.856H107.495C106.28 102.856 105.291 101.872 105.291 100.664V2.19177C105.291 0.983679 106.28 0 107.495 0H175.457C176.671 0 177.66 0.983679 177.66 2.19177V100.661C177.66 101.869 176.671 102.852 175.457 102.852V102.856ZM107.495 0.0935056C106.333 0.0935056 105.385 1.03604 105.385 2.19177V100.661C105.385 101.816 106.333 102.759 107.495 102.759H175.457C176.618 102.759 177.566 101.816 177.566 100.661V2.19177C177.566 1.03604 176.618 0.0935056 175.457 0.0935056H107.495Z" fill="#E0E0E0"/>
<path d="M97.1358 102.856H29.1775C27.9631 102.856 26.9742 101.872 26.9742 100.664V2.19177C26.9742 0.983679 27.9631 0 29.1775 0H97.1395C98.354 0 99.3429 0.983679 99.3429 2.19177V100.661C99.3429 101.869 98.354 102.852 97.1395 102.852L97.1358 102.856ZM29.1775 0.0935056C28.0157 0.0935056 27.0682 1.03604 27.0682 2.19177V100.661C27.0682 101.816 28.0157 102.759 29.1775 102.759H97.1395C98.3014 102.759 99.2489 101.816 99.2489 100.661V2.19177C99.2489 1.03604 98.3014 0.0935056 97.1395 0.0935056H29.1775Z" fill="#E0E0E0"/>
<path d="M282.5 125.697H0.5V125.742H282.5V125.697Z" fill="#E0E0E0"/>
<path d="M267.219 136.684H246.265V136.841H267.219V136.684Z" fill="#EBEBEB"/>
<path d="M192.136 138.393H186.635V138.55H192.136V138.393Z" fill="#EBEBEB"/>
<path d="M43.1046 131.899H15.7806V132.057H43.1046V131.899Z" fill="#EBEBEB"/>
<path d="M52.7489 131.899H48.7408V132.057H52.7489V131.899Z" fill="#EBEBEB"/>
<path d="M125.031 134.555H65.7698V134.712H125.031V134.555Z" fill="#EBEBEB"/>
<path d="M237.147 156.513C237.147 157.781 194.324 158.806 141.5 158.806C88.6758 158.806 45.8531 157.778 45.8531 156.513C45.8531 155.249 88.6758 154.221 141.5 154.221C194.324 154.221 237.147 155.249 237.147 156.513Z" fill="#F5F5F5"/>
<path d="M68.3868 31.6914H28.8354C27.9861 31.6914 27.2975 32.3763 27.2975 33.2212V55.3259C27.2975 56.1707 27.9861 56.8556 28.8354 56.8556H68.3868C69.2362 56.8556 69.9247 56.1707 69.9247 55.3259V33.2212C69.9247 32.3763 69.2362 31.6914 68.3868 31.6914Z" fill="#9747FF"/>
<path opacity="0.8" d="M68.3868 31.6914H28.8354C27.9861 31.6914 27.2975 32.3763 27.2975 33.2212V55.3259C27.2975 56.1707 27.9861 56.8556 28.8354 56.8556H68.3868C69.2362 56.8556 69.9247 56.1707 69.9247 55.3259V33.2212C69.9247 32.3763 69.2362 31.6914 68.3868 31.6914Z" fill="white"/>
<path d="M33.7046 45.6684C33.8888 45.5038 38.8784 40.6041 38.8784 40.6041L43.8002 43.0128L48.6092 37.3838L53.5311 44.4379L58.3288 41.3222" stroke="#263238" stroke-width="0.5" stroke-miterlimit="10"/>
<path d="M35.25 47.875H32.9413V52.958H35.25V47.875Z" fill="#9747FF"/>
<path d="M39.9988 44.5166H37.6902V52.962H39.9988V44.5166Z" fill="#9747FF"/>
<path d="M44.8379 45.3652H42.5293V52.9616H44.8379V45.3652Z" fill="#9747FF"/>
<path d="M49.7673 40.6045H47.4587V52.9622H49.7673V40.6045Z" fill="#9747FF"/>
<path d="M54.7456 47.1572H52.4369V52.9621H54.7456V47.1572Z" fill="#9747FF"/>
<path d="M35.3327 45.0927C35.3327 45.7734 34.7762 46.3269 34.0919 46.3269C33.4076 46.3269 32.8511 45.7734 32.8511 45.0927C32.8511 44.4119 33.4076 43.8584 34.0919 43.8584C34.7762 43.8584 35.3327 44.4119 35.3327 45.0927Z" fill="#9747FF"/>
<path d="M40.0815 40.6044C40.0815 41.2851 39.5251 41.8387 38.8407 41.8387C38.1564 41.8387 37.5999 41.2851 37.5999 40.6044C37.5999 39.9237 38.1564 39.3701 38.8407 39.3701C39.5251 39.3701 40.0815 39.9237 40.0815 40.6044Z" fill="#9747FF"/>
<path d="M45.041 42.6278C45.041 43.3086 44.4845 43.8621 43.8002 43.8621C43.1159 43.8621 42.5594 43.3086 42.5594 42.6278C42.5594 41.9471 43.1159 41.3936 43.8002 41.3936C44.4845 41.3936 45.041 41.9471 45.041 42.6278Z" fill="#9747FF"/>
<path d="M49.85 37.3837C49.85 38.0644 49.2936 38.618 48.6092 38.618C47.9249 38.618 47.3684 38.0644 47.3684 37.3837C47.3684 36.703 47.9249 36.1494 48.6092 36.1494C49.2936 36.1494 49.85 36.703 49.85 37.3837Z" fill="#9747FF"/>
<path d="M54.7719 44.4384C54.7719 45.1191 54.2154 45.6726 53.5311 45.6726C52.8468 45.6726 52.2903 45.1191 52.2903 44.4384C52.2903 43.7577 52.8468 43.2041 53.5311 43.2041C54.2154 43.2041 54.7719 43.7577 54.7719 44.4384Z" fill="#9747FF"/>
<path d="M59.6749 44.2432H57.3663V52.9579H59.6749V44.2432Z" fill="#9747FF"/>
<path opacity="0.3" d="M39.9988 44.5166H37.6902V52.962H39.9988V44.5166Z" fill="black"/>
<path opacity="0.3" d="M49.7673 40.6045H47.4587V52.9622H49.7673V40.6045Z" fill="black"/>
<path opacity="0.3" d="M59.6749 44.2432H57.3663V52.9579H59.6749V44.2432Z" fill="black"/>
<path d="M64.781 47.1572H62.4724V52.9621H64.781V47.1572Z" fill="#9747FF"/>
<path d="M58.3288 41.3223L63.6229 44.2434" stroke="#263238" stroke-width="0.5" stroke-miterlimit="10"/>
<path d="M59.8441 41.3222C59.8441 42.0029 59.2876 42.5564 58.6033 42.5564C57.919 42.5564 57.3625 42.0029 57.3625 41.3222C57.3625 40.6414 57.919 40.0879 58.6033 40.0879C59.2876 40.0879 59.8441 40.6414 59.8441 41.3222Z" fill="#9747FF"/>
<path d="M63.6229 45.4783C64.3082 45.4783 64.8637 44.9257 64.8637 44.244C64.8637 43.5624 64.3082 43.0098 63.6229 43.0098C62.9376 43.0098 62.3821 43.5624 62.3821 44.244C62.3821 44.9257 62.9376 45.4783 63.6229 45.4783Z" fill="#9747FF"/>
<path d="M245.528 142.013C257.383 142.013 266.994 132.452 266.994 120.66C266.994 108.867 257.383 99.3066 245.528 99.3066C233.673 99.3066 224.062 108.867 224.062 120.66C224.062 132.452 233.673 142.013 245.528 142.013Z" fill="white" stroke="#263238" stroke-miterlimit="10"/>
<path d="M256.304 116.763H235.06V131.686H256.304V116.763Z" fill="#9747FF"/>
<path opacity="0.3" d="M245.122 116.763H235.06V131.686H245.122V116.763Z" fill="black"/>
<path d="M235.06 116.763L231.601 122.541H241.591L245.122 116.763H235.06Z" fill="#9747FF"/>
<path d="M245.122 116.763L248.837 122.541H259.455L256.304 116.763H245.122Z" fill="#9747FF"/>
<path opacity="0.3" d="M245.122 116.763L248.837 122.541H259.455L256.304 116.763H245.122Z" fill="black"/>
<path d="M241.911 113.15C241.05 111.945 240.189 110.745 239.328 109.54C239.222 109.395 238.978 109.533 239.083 109.683C239.944 110.887 240.805 112.088 241.666 113.292C241.772 113.438 242.016 113.299 241.911 113.15Z" fill="#263238"/>
<path d="M245.449 113.048C245.415 111.088 245.381 109.129 245.347 107.165C245.347 106.985 245.062 106.985 245.065 107.165C245.099 109.125 245.133 111.085 245.167 113.048C245.167 113.228 245.453 113.228 245.449 113.048Z" fill="#263238"/>
<path d="M248.991 113.168C249.623 112.049 250.254 110.927 250.89 109.809C250.98 109.652 250.736 109.51 250.645 109.667L248.746 113.026C248.656 113.183 248.901 113.325 248.991 113.168Z" fill="#263238"/>
<path d="M251.262 108.863C251.262 108.863 251.247 108.848 251.239 108.841C251.228 108.826 251.213 108.819 251.194 108.811C251.179 108.804 251.16 108.8 251.142 108.8C251.123 108.8 251.104 108.8 251.089 108.811C251.07 108.819 251.055 108.826 251.044 108.841C251.036 108.852 251.029 108.86 251.021 108.871C251.01 108.893 251.002 108.916 251.002 108.942C251.002 108.953 251.002 108.968 251.006 108.979C251.014 109.002 251.025 109.024 251.044 109.043L251.066 109.065C251.066 109.065 251.093 109.088 251.112 109.095C251.127 109.103 251.145 109.106 251.164 109.106C251.183 109.106 251.202 109.106 251.217 109.095C251.236 109.088 251.251 109.08 251.262 109.065C251.269 109.054 251.277 109.047 251.284 109.035C251.296 109.013 251.303 108.991 251.303 108.964C251.303 108.953 251.303 108.938 251.3 108.927C251.292 108.905 251.281 108.882 251.262 108.863Z" fill="#263238"/>
<path d="M204.585 54.2481L208.8 73.9965C208.992 74.8941 208.059 75.6198 207.229 75.2121L192.504 68.0047C191.861 67.6905 191.685 66.8601 192.143 66.3103L202.653 53.7694C203.243 53.0625 204.393 53.3467 204.585 54.2444V54.2481Z" fill="#9747FF"/>
<path opacity="0.3" d="M204.585 54.2481L208.8 73.9965C208.992 74.8941 208.059 75.6198 207.229 75.2121L192.504 68.0047C191.861 67.6905 191.685 66.8601 192.143 66.3103L202.653 53.7694C203.243 53.0625 204.393 53.3467 204.585 54.2444V54.2481Z" fill="black"/>
<path d="M205.503 70.6678L203.867 59.3835C210.883 58.3774 216.937 54.0013 220.054 47.6804C225.25 37.1404 220.862 24.3601 210.267 19.1873C199.671 14.0183 186.823 18.3832 181.623 28.9231C179.374 33.4862 178.837 38.7038 180.111 43.6147L169.012 46.4685C167.053 38.9208 167.876 30.9092 171.332 23.9038C179.314 7.7198 199.043 1.00984 215.313 8.95034C231.582 16.8908 238.324 36.5158 230.345 52.6997C225.559 62.4056 216.271 69.1231 205.503 70.664V70.6678Z" fill="#9747FF"/>
<g opacity="0.3">
<path d="M205.503 70.6678L203.867 59.3835C210.883 58.3774 216.937 54.0013 220.054 47.6804C225.25 37.1404 220.862 24.3601 210.267 19.1873C199.671 14.0183 186.823 18.3832 181.623 28.9231C179.374 33.4862 178.837 38.7038 180.111 43.6147L169.012 46.4685C167.053 38.9208 167.876 30.9092 171.332 23.9038C179.314 7.7198 199.043 1.00984 215.313 8.95034C231.582 16.8908 238.324 36.5158 230.345 52.6997C225.559 62.4056 216.271 69.1231 205.503 70.664V70.6678Z" fill="black"/>
</g>
<path d="M205.855 49.2052C212.919 47.234 217.039 39.9398 215.058 32.913C213.076 25.8862 205.743 21.7879 198.68 23.759C191.616 25.7302 187.496 33.0244 189.477 40.0512C191.459 47.078 198.792 51.1764 205.855 49.2052Z" fill="#9747FF"/>
<path opacity="0.3" d="M205.855 49.2052C212.919 47.234 217.039 39.9398 215.058 32.913C213.076 25.8862 205.743 21.7879 198.68 23.759C191.616 25.7302 187.496 33.0244 189.477 40.0512C191.459 47.078 198.792 51.1764 205.855 49.2052Z" fill="black"/>
<path d="M209.839 46.1018C215.579 41.5577 216.53 33.2445 211.962 27.5338C207.394 21.8231 199.037 20.8775 193.296 25.4216C187.555 29.9657 186.604 38.2788 191.172 43.9895C195.741 49.7002 204.098 50.6459 209.839 46.1018Z" fill="#9747FF"/>
<path d="M211.044 41.4114C214.175 36.2098 212.474 29.4683 207.245 26.3539C202.016 23.2395 195.239 24.9316 192.108 30.1333C188.977 35.335 190.678 42.0765 195.907 45.1908C201.137 48.3052 207.914 46.6131 211.044 41.4114Z" fill="white"/>
<path d="M196.268 43.5516L197.735 41.3898C197.776 41.4197 197.821 41.4459 197.866 41.4758L196.452 43.6713C196.392 43.6339 196.328 43.5928 196.268 43.5516ZM193.343 40.4024C193.305 40.3388 193.271 40.2752 193.238 40.2116L195.55 38.9848C195.573 39.0297 195.599 39.0746 195.625 39.1195L193.347 40.4061L193.343 40.4024ZM200.513 45.1113L200.803 42.5193L200.964 42.5343L200.724 45.13C200.652 45.1225 200.585 45.115 200.513 45.1076V45.1113ZM192.113 36.0712C192.113 36.0001 192.11 35.9253 192.11 35.8542L194.73 35.8281V35.9852L192.113 36.0712ZM204.995 44.5241L204.04 42.0967L204.187 42.0368L205.232 44.4268L205.168 44.453C205.127 44.4717 205.059 44.4979 204.991 44.5241H204.995ZM193.05 31.6689C193.08 31.6016 193.113 31.538 193.147 31.4744L195.482 32.6601C195.46 32.705 195.437 32.7536 195.415 32.7985L193.053 31.6689H193.05ZM206.736 40.2041C206.77 40.1667 206.8 40.1293 206.83 40.0919L208.853 41.7488C208.804 41.8049 208.755 41.8648 208.706 41.9209L206.732 40.2041H206.736ZM197.494 30.2963L195.937 28.198L196.106 28.0746L197.625 30.199L197.494 30.2963ZM208.217 37.3092L208.251 37.1558L210.816 37.7019C210.801 37.773 210.785 37.8403 210.767 37.9114L208.217 37.3129V37.3092ZM200.513 29.0396L200.107 26.4625C200.175 26.4513 200.246 26.4401 200.318 26.4326L200.675 29.0134L200.513 29.0358V29.0396ZM208.18 34.0552C208.169 34.0066 208.153 33.958 208.138 33.9093L210.658 33.1949C210.676 33.266 210.699 33.3371 210.714 33.4081L208.176 34.0589L208.18 34.0552ZM203.769 29.3238L204.615 26.8553C204.687 26.8777 204.758 26.9039 204.826 26.9301L203.908 29.3724C203.863 29.3537 203.814 29.3388 203.766 29.3238H203.769ZM206.627 31.1939L206.522 31.078L208.424 29.2827C208.473 29.335 208.522 29.3874 208.571 29.4435L206.627 31.1939Z" fill="black"/>
<path d="M198.787 31.6797L201.423 36.1867L205.683 32.0612" stroke="black" stroke-linecap="round" stroke-linejoin="round"/>
<path d="M202.19 36.3921C201.889 36.7325 201.37 36.7661 201.028 36.4669C200.686 36.1677 200.652 35.6516 200.953 35.3112C201.254 34.9708 201.773 34.9372 202.115 35.2364C202.457 35.5356 202.491 36.0518 202.19 36.3921Z" fill="black"/>
<path opacity="0.3" d="M194.2 28.6953C198.573 24.4726 205.563 24.5735 209.808 28.9272C210.849 29.9969 211.628 31.2237 212.147 32.5253C211.654 30.8908 210.778 29.3461 209.503 28.037C205.258 23.6871 198.268 23.5824 193.896 27.8051C190.598 30.9918 189.729 35.7269 191.324 39.7289C190.181 35.9289 191.143 31.6463 194.2 28.6915V28.6953Z" fill="black"/>
<path d="M205.845 135.288V115.098C205.845 114.178 206.909 113.666 207.635 114.234L220.535 124.329C221.099 124.771 221.099 125.62 220.535 126.061L207.635 136.156C206.909 136.724 205.845 136.208 205.845 135.292V135.288Z" fill="#9747FF"/>
<path d="M207.939 119.19H136.24V131.193H207.939V119.19Z" fill="#9747FF"/>
<path opacity="0.3" d="M220.422 124.33L207.522 114.235C206.796 113.666 205.732 114.182 205.732 115.099V119.191H133.187V131.193H205.732V135.285C205.732 136.205 206.796 136.717 207.522 136.149L220.422 126.054C220.986 125.612 220.986 124.763 220.422 124.322V124.33Z" fill="black"/>
<path d="M133.172 118.913H53.7905V131.215H133.172C164.492 131.215 157.672 118.913 133.172 118.913Z" fill="#9747FF"/>
<path opacity="0.3" d="M135.567 119.264C135.811 119.264 130.528 122.593 126.956 122.563L126.618 131.544H124.257L119.741 119.541L135.567 119.261V119.264Z" fill="black"/>
<path d="M131.209 57.1252C132.867 59.7284 133.476 61.303 133.732 63.8613C134.033 66.8498 134.021 69.5016 133.386 70.302C132.551 71.3493 123.061 72.7369 117.707 72.7668C117.511 72.7668 117.274 71.0874 117.274 71.0874C117.274 71.0874 116.594 72.7705 116.342 72.7705C114.883 72.7705 113.943 72.7631 113.943 72.7631C113.943 72.7631 115.037 70.2309 116.101 61.2394C116.62 56.8447 120.948 54.9035 123.531 54.4547C127.836 53.7103 131.209 57.1289 131.209 57.1289V57.1252Z" fill="#263238"/>
<path d="M118.895 66.1313C117.383 63.79 115.695 57.3717 121.429 55.1014C128.584 52.2701 132.059 56.7322 132.897 61.2765C133.736 65.8209 131.307 69.3966 126.483 69.2694C121.662 69.146 119.94 67.7471 118.895 66.1276V66.1313Z" fill="#263238"/>
<path d="M130.863 74.7638C130.863 74.7638 129.254 75.9944 127.178 77.771C126.746 78.1412 126.272 78.4629 125.768 78.7285C124.411 79.4466 123.17 79.858 122.835 79.2035C122.76 79.0613 122.704 78.9043 122.662 78.7434C122.377 77.6513 122.493 76.1178 123.381 75.4184C124.381 74.6254 124.862 73.9485 124.681 72.8788C124.587 72.2728 124.366 71.6445 124.106 71.0348L124.892 70.1185L129.005 65.9893C128.904 68.7458 128.693 73.2677 130.859 74.7638H130.863Z" fill="#EBB373"/>
<path opacity="0.2" d="M124.715 73.1143C125.847 72.4448 127.088 71.2891 126.937 69.9651C126.87 69.4078 126.749 68.8804 126.618 68.54L124.321 71.5659C124.509 72.0521 124.576 72.3775 124.715 73.1143Z" fill="black"/>
<path d="M130.171 61.5574C129.784 65.7614 129.709 67.5455 127.528 69.7485C124.245 73.066 119.199 71.9477 118.331 67.7811C117.549 64.0297 118.312 57.7835 122.463 56.0181C126.55 54.2789 130.558 57.3534 130.171 61.5574Z" fill="#EBB373"/>
<path d="M124.873 63.0838C124.851 63.5064 124.587 63.8543 124.29 63.8617C123.99 63.8692 123.768 63.5289 123.79 63.1062C123.813 62.6836 124.076 62.3357 124.373 62.3282C124.674 62.3208 124.896 62.6611 124.873 63.0838Z" fill="#263238"/>
<path d="M120.478 63.0052C120.455 63.4091 120.196 63.742 119.903 63.7495C119.609 63.757 119.391 63.4316 119.414 63.0276C119.436 62.6237 119.696 62.2908 119.989 62.2833C120.282 62.2758 120.5 62.6012 120.478 63.0052Z" fill="#263238"/>
<path d="M125.471 61.5312C125.415 61.5424 125.355 61.5312 125.306 61.4975C124.554 60.9664 123.775 61.2507 123.768 61.2544C123.651 61.2956 123.527 61.2469 123.493 61.1385C123.46 61.03 123.523 60.9103 123.64 60.8654C123.681 60.8505 124.659 60.4914 125.588 61.1534C125.682 61.2208 125.693 61.3517 125.614 61.4452C125.576 61.49 125.524 61.52 125.471 61.5312Z" fill="#263238"/>
<path d="M118.985 60.963C118.94 60.9405 118.902 60.9031 118.884 60.8545C118.846 60.7498 118.91 60.6376 119.023 60.6002C120.143 60.2224 120.914 60.7648 120.948 60.7872C121.038 60.8545 121.053 60.9779 120.978 61.064C120.903 61.15 120.771 61.1687 120.677 61.1051C120.647 61.0827 120.042 60.6712 119.151 60.9742C119.094 60.9929 119.034 60.9892 118.985 60.9667V60.963Z" fill="#263238"/>
<path d="M126.64 57.8209C125.294 59.2272 125.964 64.5309 129.739 65.2265C134.089 64.2092 130.652 53.6281 126.64 57.8209Z" fill="#263238"/>
<path d="M121.595 66.9318C121.94 67.4592 122.354 68.4803 122.354 68.4803C122.456 68.4578 122.553 68.4391 122.651 68.413C123.997 68.0988 124.516 67.5116 124.685 66.9543C124.776 66.6513 124.757 66.3521 124.712 66.1165C124.663 65.8434 124.565 65.6602 124.565 65.6602C123.952 66.2511 122.719 66.6401 122.053 66.8196C121.775 66.8982 121.595 66.9318 121.595 66.9318Z" fill="#263238"/>
<path d="M122.049 66.8196L122.286 67.2685C123.554 66.9692 124.403 66.5915 124.712 66.1165C124.663 65.8434 124.565 65.6602 124.565 65.6602C123.952 66.2511 122.719 66.6401 122.053 66.8196H122.049Z" fill="white"/>
<path d="M122.647 68.4128C123.993 68.0986 124.512 67.5114 124.682 66.9541C124.227 67.0775 123.693 67.2795 123.256 67.5974C122.922 67.8405 122.745 68.1323 122.647 68.4128Z" fill="#DC5753"/>
<path d="M121.662 62.709C121.662 62.709 120.865 64.6053 120.034 65.5329C120.576 66.0527 121.538 65.7797 121.538 65.7797L121.658 62.709H121.662Z" fill="#E4873E"/>
<path d="M123.531 62.126L124.501 62.3541C124.061 62.8441 123.531 62.126 123.531 62.126Z" fill="#263238"/>
<path d="M119.196 62.085L120.166 62.3131C119.726 62.8031 119.196 62.085 119.196 62.085Z" fill="#263238"/>
<path d="M122.493 55.1198C120.824 55.6845 119.053 58.557 118.756 59.6604C121.128 60.0456 127.528 57.8352 127.528 57.8352C127.528 57.8352 131.795 59.0096 129.633 56.8552C127.471 54.7009 122.493 55.1198 122.493 55.1198Z" fill="#263238"/>
<path d="M131.453 64.9868C130.953 65.8508 130.141 66.3894 129.4 66.5764C128.28 66.8569 127.705 65.0653 128.084 63.9507C128.426 62.9484 129.528 62.2826 130.615 62.5033C131.686 62.7202 132.021 64.0031 131.453 64.9868Z" fill="#EBB373"/>
<path d="M116.707 60.4277C116.47 62.2791 116.225 64.1455 115.601 65.9034C114.973 67.6613 113.672 71.2893 112.112 72.3254" stroke="#263238" stroke-width="0.5" stroke-miterlimit="10"/>
<path d="M129.848 67.2496C130.284 67.2496 130.637 66.8979 130.637 66.4642C130.637 66.0304 130.284 65.6787 129.848 65.6787C129.412 65.6787 129.058 66.0304 129.058 66.4642C129.058 66.8979 129.412 67.2496 129.848 67.2496Z" fill="#9747FF"/>
<path opacity="0.1" d="M130.566 63.7857C130.194 63.681 129.773 63.7558 129.46 63.984C129.148 64.2121 128.949 64.5862 128.934 64.9714" stroke="black" stroke-width="0.5" stroke-linecap="round" stroke-linejoin="round"/>
<path d="M97.6095 101.836C97.8201 101.256 99.3241 99.3147 100.121 98.5929C100.922 97.871 103.753 96.2852 103.753 96.2852L106.145 98.5368C106.145 98.5368 105.919 99.8272 104.96 100.302C104.408 100.575 103.832 100.796 103.832 100.796C103.832 100.796 103.84 101.301 103.708 101.832C103.562 102.419 103.257 103.111 102.779 102.969C102.302 102.823 102.516 101.226 102.55 100.998C102.516 101.23 102.246 102.853 101.58 102.745C100.941 102.64 101.26 100.957 101.26 100.957C101.26 100.957 101.031 101.72 100.911 102.112C100.79 102.501 100.305 102.745 100.05 102.213C99.7527 101.596 99.9407 100.71 99.9407 100.71C99.9407 100.71 99.4707 101.14 98.6811 102.131C98.1133 102.846 97.4328 102.329 97.6133 101.839L97.6095 101.836Z" fill="#EBB373"/>
<path opacity="0.1" d="M102.494 101.297C102.554 100.994 102.618 100.691 102.734 100.407C102.851 100.123 103.028 99.8534 103.28 99.6738" stroke="black" stroke-width="0.5" stroke-linecap="round" stroke-linejoin="round"/>
<path opacity="0.1" d="M101.17 101.189C101.23 100.886 101.294 100.583 101.411 100.299C101.527 100.014 101.704 99.745 101.956 99.5654" stroke="black" stroke-width="0.5" stroke-linecap="round" stroke-linejoin="round"/>
<path opacity="0.1" d="M99.9369 100.758C99.9971 100.455 100.061 100.152 100.178 99.8679C100.294 99.5836 100.471 99.3143 100.723 99.1348" stroke="black" stroke-width="0.5" stroke-linecap="round" stroke-linejoin="round"/>
<path d="M116.308 80.999C116.308 81.2646 115.556 90.8059 115.556 90.8059C115.022 91.8008 104.039 95.5934 102.633 96.981L105.193 99.6029C105.193 99.6029 118.263 96.981 120.373 95.455C122.174 94.1534 122.023 91.8681 122.023 88.7488C122.023 85.6294 123.117 81.2721 123.117 81.2721L116.308 80.999Z" fill="#EBB373"/>
<path d="M121.282 75.3623C116.101 76.245 115.391 83.8751 115.391 83.8751L114.605 89.9342L111.664 92.0661L114.413 97.9046C114.413 97.9046 120.279 95.6829 122.862 94.1644C125.441 92.6459 125.509 81.0063 125.509 81.0063L121.286 75.3623H121.282Z" fill="#9747FF"/>
<path opacity="0.2" d="M120.35 95.0882C120.448 95.1331 118.18 96.3898 118.18 96.3898C118.154 96.4048 117.361 93.0573 117.334 93.076C116.086 87.4657 116.928 82.9961 116.928 82.9961C117.876 84.9522 120.109 93.45 120.35 95.092V95.0882Z" fill="black"/>
<path d="M139.71 101.053C138.875 99.9576 136.939 97.3357 136.695 94.5754C136.695 94.5679 136.695 94.5605 136.695 94.553C136.68 94.3772 136.672 94.1977 136.672 94.0219C136.627 92.8474 136.635 91.4598 136.713 89.7917C136.725 89.5299 136.74 89.2568 136.755 88.98C136.804 88.1048 136.871 87.1623 136.954 86.1375C137.112 84.2973 137.338 82.199 137.638 79.8165C137.706 79.2629 138.229 78.4064 138.308 77.8267C138.657 75.2272 136.277 73.3496 133.705 73.4544C133.021 73.4805 132.292 73.5254 131.555 73.6002C128.671 73.8695 126.302 74.1164 123.794 74.7111C122.963 74.9056 122.102 75.1375 121.282 75.3731C118.331 76.2184 116.97 79.9773 116.932 83.0032C116.895 85.8233 118.884 91.5795 120.245 96.6363C120.444 99.535 118.853 101.117 119.331 102.127C119.809 103.137 133.905 100.391 139.71 103.836C139.71 103.836 140.601 102.239 139.71 101.068V101.053Z" fill="#9747FF"/>
<path opacity="0.3" d="M139.71 101.053C138.875 99.9576 136.939 97.3357 136.695 94.5754C136.695 94.5679 136.695 94.5605 136.695 94.553C136.68 94.3772 136.672 94.1977 136.672 94.0219C136.627 92.8474 136.635 91.4598 136.713 89.7917C136.725 89.5299 136.74 89.2568 136.755 88.98C136.804 88.1048 136.871 87.1623 136.954 86.1375C137.112 84.2973 137.338 82.199 137.638 79.8165C137.706 79.2629 138.229 78.4064 138.308 77.8267C138.657 75.2272 136.277 73.3496 133.705 73.4544C133.021 73.4805 132.292 73.5254 131.555 73.6002C128.671 73.8695 126.302 74.1164 123.794 74.7111C122.963 74.9056 122.102 75.1375 121.282 75.3731C118.331 76.2184 116.97 79.9773 116.932 83.0032C116.895 85.8233 118.884 91.5795 120.245 96.6363C120.444 99.535 118.853 101.117 119.331 102.127C119.809 103.137 133.905 100.391 139.71 103.836C139.71 103.836 140.601 102.239 139.71 101.068V101.053Z" fill="white"/>
<path opacity="0.2" d="M137.466 97.3922C137.466 97.3922 132.491 98.4806 130.179 98.5816C127.862 98.6863 122.858 100.257 122.858 100.257L121.076 101.357L120.448 99.8944L123.444 97.1977L136.604 94.5459C136.766 95.6418 137.372 97.1753 137.462 97.3959L137.466 97.3922Z" fill="black"/>
<path opacity="0.2" d="M131.769 81.0957L131.141 89.5561L128.321 92.3014L130.295 93.8312L132.98 92.2191L134.367 87.4616L131.769 81.0957Z" fill="black"/>
<path d="M110.503 158.309L117.101 155.414L119.188 153.095L119.835 153.966L120.624 153.626C120.993 150.712 119.568 149.351 118.823 148.73C118.771 148.681 118.692 148.629 118.605 148.558C118.575 148.535 118.545 148.509 118.515 148.494C118.504 148.487 118.493 148.476 118.481 148.472C118.451 148.449 118.417 148.423 118.38 148.397C118.372 148.39 118.368 148.39 118.357 148.386V148.378C118.357 148.378 118.323 148.356 118.297 148.345L114.672 149.938C114.672 149.938 114.612 150.125 114.499 150.432C114.138 151.445 113.244 153.757 112.251 154.991C112.21 155.043 112.168 155.096 112.127 155.144C112.007 155.287 111.882 155.41 111.758 155.511C108.984 157.729 110.503 158.312 110.503 158.312V158.309Z" fill="#263238"/>
<path d="M112.116 155.122C113.146 155.522 114.605 154.509 115.714 153.181C116.338 152.433 116.936 151.236 117.462 150.267C117.804 149.643 118.12 149.112 118.395 148.857C118.549 148.723 118.692 148.663 118.816 148.723C118.816 148.723 118.808 148.715 118.808 148.711C118.756 148.663 118.677 148.61 118.59 148.539C118.568 148.521 118.538 148.498 118.5 148.476C118.489 148.468 118.478 148.457 118.466 148.453C118.436 148.431 118.402 148.405 118.365 148.379C118.357 148.371 118.353 148.371 118.342 148.367V148.36C118.342 148.36 118.308 148.337 118.282 148.326C117.902 148.042 117.481 147.754 117.481 147.754L114.071 148.603L114.338 149.901C113.958 151.24 113.157 153.787 112.24 154.973C112.198 155.025 112.157 155.077 112.116 155.126V155.122Z" fill="#EBB373"/>
<path d="M106.566 129.876C108.671 135.075 111.935 141.699 114.349 150.006C114.398 150.155 114.439 150.309 114.481 150.458C114.53 150.619 114.575 150.776 114.624 150.937L117.113 150.331L117.222 149.901C117.222 149.901 118.083 149.235 117.936 149.086C117.842 148.988 117.906 148.805 117.887 148.648C117.218 142.851 114.631 121.588 112.07 117.17C112.07 117.17 114.973 117.709 117.177 117.339C118.763 117.073 120.688 106.148 120.688 106.148C120.688 106.148 116.643 104.992 112.492 104.992H112.435C112.435 104.992 104.276 107.393 102.2 109.211C100.249 110.92 99.9595 113.722 101.039 117.051C102.031 120.103 103.964 123.439 106.57 129.88L106.566 129.876Z" fill="#EBB373"/>
<path opacity="0.1" d="M104.235 111.837C104.716 109.948 108.213 108.1 111.826 107.109C112.413 106.354 110.912 105.46 110.912 105.46L118.023 104.82L119.263 105.71L121.384 106.152L119.493 114.601L111.725 115.955L116.639 138.636L117.218 143.116C117.218 143.116 108.897 125.347 107.156 121.569C105.415 117.791 103.396 115.113 104.235 111.841V111.837Z" fill="black"/>
<path d="M120.688 106.152C120.688 106.152 109.593 108.49 107.427 110.192C105.581 111.643 105.532 113.535 106.13 115.323C107.784 120.264 113.717 128.504 120.508 152.153L124.4 150.938C124.027 150.938 123.05 138.591 122.76 128.672C122.625 123.993 120.211 119.961 119.267 118.33C119.267 118.33 123.234 118.861 125.434 118.495C128.261 118.024 130.051 108.636 120.688 106.148V106.152Z" fill="#EBB373"/>
<path opacity="0.2" d="M119.493 118.775C119.493 118.775 118.019 116.348 116.184 115.323C116.184 115.323 118.444 115.469 119.854 118.401L119.263 118.33L119.493 118.775Z" fill="black"/>
<path d="M125.716 156.032L124.903 156.208L124.23 155.093C124.148 154.959 123.963 154.933 123.847 155.037L121.542 157.162L115.248 158.534C115.248 158.534 113.845 157.061 116.974 156.122C117.124 156.077 117.252 155.961 117.395 155.849C118.944 154.667 120.801 151.413 120.801 151.413L124.531 150.598C124.531 150.598 124.704 150.755 124.956 151.065C125.543 151.791 126.625 153.35 125.719 156.032H125.716Z" fill="#263238"/>
<path d="M124.952 151.065V151.076C124.339 150.638 122.629 153.526 121.166 154.7C119.861 155.747 118.286 156.428 117.391 155.848C118.94 154.667 120.876 150.56 120.876 150.56L123.877 149.905C123.877 149.905 124.697 150.754 124.948 151.065H124.952Z" fill="#EBB373"/>
<path d="M102.501 108.183C103.907 107.506 106.242 106.563 109.235 106.241C114.15 105.718 118.09 107.162 118.861 105.71C119.395 104.7 117.752 103.5 118.323 102.483C118.887 101.476 120.827 102.049 125.817 102.12C129.216 102.168 129.818 101.921 132.596 102.165C134.454 102.325 135.977 102.591 137.011 102.8C137.311 102.871 137.747 102.98 138.266 103.145C139.229 103.447 139.71 103.597 139.827 103.822C140.15 104.439 139.12 105.097 139.124 106.559C139.124 107.034 139.233 107.36 139.315 107.64C139.74 109.114 140.222 112.188 139.842 114.668C139.627 116.048 139.285 118.285 137.59 119.418C136.954 119.841 136.428 119.912 132.788 119.927C128.795 119.942 126.798 119.953 125.851 119.878C122.61 119.628 121.861 119.242 121.384 119.796C120.493 120.825 122.365 123.013 123.512 127.187C123.828 128.335 123.82 128.664 124.343 133.998C125.02 140.898 125.794 148.689 123.884 149.901C123.444 150.182 123.347 150.021 119.989 150.032C114.552 150.051 113.729 150.47 112.567 149.785C110.736 148.704 110.615 146.374 110.006 143.419C109.371 140.334 108.096 136.066 105.269 131.069C103.453 127.471 102.234 124.348 101.43 122.029C99.7677 117.241 99.7414 115.543 99.8918 114.26C100.226 111.474 101.557 109.387 102.501 108.179V108.183Z" fill="#263238"/>
<path d="M123.542 135.557C123.693 139.709 123.843 143.861 123.993 148.012C122.636 148.345 120.662 148.79 118.252 149.183C114.379 149.815 113.755 149.606 113.338 149.393C111.897 148.656 111.627 147.205 109.709 142.305C108.856 140.121 108.119 138.389 107.664 137.338C105.938 133.179 104.216 129.02 102.49 124.86C101.858 123.248 98.181 113.587 102.129 109.365C103.05 108.377 104.024 108.078 110.19 107.035C122.437 104.955 123.606 105.284 124.629 105.793C129.979 108.448 132.604 116.643 130.758 118.876C129.291 120.653 124.163 119.68 123.787 119.605C121.779 119.209 120.76 118.517 120.192 119.071C119.384 119.867 120.508 122.253 121.376 124.737C122.237 127.206 123.208 130.804 123.542 135.561V135.557Z" fill="#263238"/>
<path d="M113.526 107.749L124.463 103.609C124.708 103.515 124.648 103.13 124.388 103.126L106.833 102.917C106.791 102.917 106.75 102.928 106.712 102.951L99.9632 107.301C99.764 107.431 99.8467 107.764 100.08 107.764H113.447C113.473 107.764 113.499 107.761 113.522 107.749H113.526Z" fill="#263238"/>
<path opacity="0.7" d="M113.526 107.749L124.463 103.609C124.708 103.515 124.648 103.13 124.388 103.126L106.833 102.917C106.791 102.917 106.75 102.928 106.712 102.951L99.9632 107.301C99.764 107.431 99.8467 107.764 100.08 107.764H113.447C113.473 107.764 113.499 107.761 113.522 107.749H113.526Z" fill="white"/>
<path opacity="0.7" d="M113.563 106.515L120.617 103.931L112.352 103.759L113.563 106.515Z" fill="white"/>
<path opacity="0.3" d="M124.463 103.609L113.526 107.749C113.499 107.757 113.477 107.764 113.45 107.764H113.281L113.074 107.166L124.392 103.13C124.651 103.13 124.708 103.523 124.467 103.612L124.463 103.609Z" fill="black"/>
<path d="M99.2451 107.764H113.488C113.732 107.764 113.932 107.603 113.928 107.405C113.928 107.368 113.92 107.33 113.905 107.297L107.57 92.848C107.408 92.4366 106.934 92.1523 106.393 92.1523H92.1425C91.9018 92.1523 91.7063 92.3094 91.7063 92.5002C91.7063 92.5413 91.7138 92.5787 91.7326 92.6199L98.0682 107.068C98.2299 107.48 98.7074 107.76 99.2451 107.764Z" fill="#263238"/>
<path opacity="0.7" d="M92.1425 92.1523H106.393C106.934 92.1523 107.412 92.4366 107.57 92.848L113.905 107.297C113.92 107.33 113.928 107.368 113.928 107.405C113.928 107.599 113.732 107.76 113.488 107.764H99.2451C98.7037 107.76 98.2299 107.48 98.0682 107.068L91.7326 92.6199C91.7138 92.5825 91.7063 92.5413 91.7063 92.5002C91.7063 92.3094 91.9018 92.1523 92.1425 92.1523Z" fill="white"/>
<path d="M100.967 100.28C101.276 100.972 101.9 101.451 102.362 101.354C102.828 101.256 102.952 100.624 102.652 99.9286C102.355 99.2329 101.723 98.7691 101.257 98.8664C100.79 98.9636 100.651 99.5695 100.963 100.28H100.967Z" fill="white"/>
<path opacity="0.3" d="M106.306 92.1523H106.393C106.934 92.1523 107.412 92.4366 107.57 92.848L113.905 107.297C113.92 107.33 113.928 107.368 113.928 107.405C113.928 107.599 113.732 107.76 113.488 107.764H113.033L106.31 92.1523H106.306Z" fill="black"/>
<path d="M132.044 80.2998C132.044 80.5654 132.901 90.0169 132.901 90.0169C132.367 91.0118 121.384 94.8044 119.978 96.192L122.538 98.8139C122.538 98.8139 135.608 96.192 137.717 94.666C139.518 93.3644 139.368 91.0791 139.368 87.9598C139.368 84.8404 138.684 80.2998 138.684 80.2998H132.047H132.044Z" fill="#EBB373"/>
<path d="M133.153 74.4649C130.453 75.587 132.514 89.9569 132.514 89.9569L129.859 91.0753L131.491 97.1943C131.491 97.1943 134.762 96.5771 138.029 95.9151C141.485 95.2157 141.993 87.2789 140.263 80.8532C138.533 74.4275 136.311 73.1521 133.153 74.4649Z" fill="#9747FF"/>
<path d="M115.391 103.07C115.451 102.457 116.428 100.209 117.026 99.3116C117.624 98.4139 119.978 96.1885 119.978 96.1885L122.854 97.7893C122.854 97.7893 122.956 99.0946 122.14 99.7903C121.67 100.191 121.166 100.546 121.166 100.546C121.166 100.546 121.297 101.032 121.301 101.578C121.301 102.184 121.181 102.928 120.681 102.906C120.181 102.883 119.997 101.283 119.974 101.051C119.997 101.286 120.136 102.925 119.466 102.981C118.82 103.037 118.714 101.324 118.714 101.324C118.714 101.324 118.681 102.12 118.662 102.528C118.643 102.936 118.229 103.291 117.85 102.839C117.41 102.315 117.372 101.406 117.372 101.406C117.372 101.406 117.022 101.937 116.503 103.093C116.127 103.923 115.342 103.59 115.394 103.07H115.391Z" fill="#EBB373"/>
<path opacity="0.1" d="M119.993 101.354C119.978 101.047 119.963 100.737 120.004 100.43C120.045 100.124 120.151 99.8206 120.35 99.585" stroke="black" stroke-width="0.5" stroke-linecap="round" stroke-linejoin="round"/>
<path opacity="0.1" d="M118.684 101.571C118.669 101.264 118.654 100.954 118.696 100.647C118.737 100.34 118.842 100.037 119.041 99.8018" stroke="black" stroke-width="0.5" stroke-linecap="round" stroke-linejoin="round"/>
<path opacity="0.1" d="M117.38 101.459C117.365 101.152 117.349 100.841 117.391 100.535C117.432 100.228 117.537 99.9251 117.737 99.6895" stroke="black" stroke-width="0.5" stroke-linecap="round" stroke-linejoin="round"/>
<path opacity="0.7" d="M114.86 112.315C114.105 113.31 113.123 114.713 112.153 116.486C110.882 118.801 110.164 120.761 109.976 121.326C108.089 127.007 112.131 135.437 112.665 136.522C111.811 134.514 110.958 132.501 110.104 130.493C109.416 129.023 107.378 124.168 109.209 118.779C109.811 117.006 110.683 115.614 111.48 114.593C112.608 113.834 113.736 113.075 114.86 112.315Z" fill="black"/>
<path d="M40.7282 142.013C52.5835 142.013 62.1941 132.452 62.1941 120.66C62.1941 108.867 52.5835 99.3066 40.7282 99.3066C28.873 99.3066 19.2624 108.867 19.2624 120.66C19.2624 132.452 28.873 142.013 40.7282 142.013Z" fill="white" stroke="#263238" stroke-miterlimit="10"/>
<path d="M44.7965 134.308C44.7965 135.703 42.8451 136.821 40.4763 136.784C38.1075 136.747 36.2012 135.606 36.22 134.211C36.2388 132.816 38.1714 131.697 40.5365 131.738C42.9015 131.78 44.8153 132.917 44.7965 134.304V134.308Z" fill="#263238"/>
<path d="M46.6502 129.707C46.8833 129.486 47.0225 129.187 47.0413 128.869C47.0413 127.504 44.1498 126.356 40.544 126.322C36.9381 126.288 34.0053 127.358 33.9865 128.723C34.0016 129.041 34.1332 129.34 34.3625 129.561C34.2949 129.692 34.2573 129.834 34.2497 129.98C34.2573 130.298 34.3964 130.601 34.6333 130.818C34.5581 130.952 34.5167 131.106 34.5129 131.263C34.5242 131.585 34.6671 131.888 34.9077 132.101C34.8213 132.235 34.7761 132.392 34.7724 132.553C34.7912 132.871 34.9453 133.167 35.1935 133.365C35.1033 133.5 35.0544 133.66 35.0506 133.821C35.0506 134.955 37.4533 135.916 40.4537 135.942C43.4505 135.968 45.8907 135.104 45.902 133.945C45.902 133.78 45.8531 133.623 45.7666 133.485C46.0148 133.286 46.1652 132.995 46.1877 132.68C46.1877 132.523 46.1426 132.366 46.0674 132.228C46.3118 132.022 46.4622 131.73 46.4885 131.416C46.4885 131.259 46.4472 131.106 46.3757 130.967C46.6201 130.762 46.7705 130.466 46.7969 130.152C46.7818 129.995 46.7329 129.845 46.654 129.711L46.6502 129.707Z" fill="#263238"/>
<path opacity="0.3" d="M46.6502 129.707C46.8833 129.486 47.0225 129.187 47.0413 128.869C47.0413 127.504 44.1498 126.356 40.544 126.322C36.9381 126.288 34.0053 127.358 33.9865 128.723C34.0016 129.041 34.1332 129.34 34.3625 129.561C34.2949 129.692 34.2573 129.834 34.2497 129.98C34.2573 130.298 34.3964 130.601 34.6333 130.818C34.5581 130.952 34.5167 131.106 34.5129 131.263C34.5242 131.585 34.6671 131.888 34.9077 132.101C34.8213 132.235 34.7761 132.392 34.7724 132.553C34.7912 132.871 34.9453 133.167 35.1935 133.365C35.1033 133.5 35.0544 133.66 35.0506 133.821C35.0506 134.955 37.4533 135.916 40.4537 135.942C43.4505 135.968 45.8907 135.104 45.902 133.945C45.902 133.78 45.8531 133.623 45.7666 133.485C46.0148 133.286 46.1652 132.995 46.1877 132.68C46.1877 132.523 46.1426 132.366 46.0674 132.228C46.3118 132.022 46.4622 131.73 46.4885 131.416C46.4885 131.259 46.4472 131.106 46.3757 130.967C46.6201 130.762 46.7705 130.466 46.7969 130.152C46.7818 129.995 46.7329 129.845 46.654 129.711L46.6502 129.707Z" fill="white"/>
<path d="M52.0571 117.645C52.1323 111.302 47.0225 106.095 40.6417 106.02C34.2648 105.946 29.0309 111.029 28.9557 117.376C28.9143 120.82 30.4296 124.097 33.0804 126.311C33.5692 126.711 33.8249 127.328 33.7609 127.953C33.7609 127.983 33.7609 128.013 33.7609 128.047C33.7609 129.434 36.7088 130.594 40.3635 130.635C44.0182 130.676 47.0037 129.584 47.0225 128.192V128.103C46.9661 127.463 47.2368 126.838 47.7444 126.438C50.4328 124.295 52.012 121.067 52.0571 117.641V117.645Z" fill="#9747FF"/>
<path opacity="0.7" d="M52.0571 117.645C52.1323 111.302 47.0225 106.095 40.6417 106.02C34.2648 105.946 29.0309 111.029 28.9557 117.376C28.9143 120.82 30.4296 124.097 33.0804 126.311C33.5692 126.711 33.8249 127.328 33.7609 127.953C33.7609 127.983 33.7609 128.013 33.7609 128.047C33.7609 129.434 36.7088 130.594 40.3635 130.635C44.0182 130.676 47.0037 129.584 47.0225 128.192V128.103C46.9661 127.463 47.2368 126.838 47.7444 126.438C50.4328 124.295 52.012 121.067 52.0571 117.641V117.645Z" fill="white"/>
<path opacity="0.2" d="M46.6239 110.972C46.6239 113.209 43.9919 115.027 40.7282 115.027C37.4646 115.027 34.8326 113.209 34.8326 110.972C34.8326 108.736 37.4646 106.914 40.7282 106.914C43.9919 106.914 46.6239 108.732 46.6239 110.972Z" fill="white"/>
<path d="M31.708 121.879C30.7041 120.166 30.3017 118.105 30.595 116.141C30.8845 114.178 31.8659 112.323 33.3285 110.969" stroke="white" stroke-linecap="round" stroke-linejoin="round"/>
<path d="M35.1709 133.392C38.506 134.787 42.3563 134.835 45.7215 133.519C42.4052 134.948 38.4496 134.899 35.1709 133.392Z" fill="#263238"/>
<path d="M35.0957 132.161C38.4309 133.556 42.2811 133.605 45.6463 132.288C42.33 133.717 38.3745 133.668 35.0957 132.161Z" fill="#263238"/>
<path d="M35.0168 130.927C38.3519 132.322 42.2021 132.37 45.5673 131.054C42.251 132.483 38.2955 132.434 35.0168 130.927Z" fill="#263238"/>
<path d="M38.0097 128.2C38.8971 125.2 39.0513 121.927 38.4534 118.838C38.3557 118.337 38.13 117.738 37.6788 117.727C37.2765 117.716 37.0096 118.21 36.9231 118.658C36.6148 120.237 37.4382 121.841 38.491 122.933C39.0625 123.524 39.7506 124.037 40.5214 124.078C41.296 124.115 42.0329 123.659 42.5932 123.053C43.6648 121.894 44.1987 120.072 43.8114 118.449C43.646 117.764 43.1572 117.024 42.5405 117.155C42.1683 117.233 41.8976 117.622 41.8036 118.038C41.7096 118.453 41.7547 118.89 41.8111 119.313C42.2021 122.369 42.9541 125.365 44.0332 128.196" stroke="#263238" stroke-miterlimit="10"/>
<path d="M159.371 137.632C159.371 137.632 196.456 128.988 198.223 136.675C200.743 147.645 173.983 155.02 159.732 154.572C145.478 154.119 159.375 137.636 159.375 137.636L159.371 137.632Z" fill="#263238"/>
<path opacity="0.2" d="M159.371 137.632C159.371 137.632 196.456 128.988 198.223 136.675C200.743 147.645 173.983 155.02 159.732 154.572C145.478 154.119 159.375 137.636 159.375 137.636L159.371 137.632Z" fill="black"/>
<path opacity="0.7" d="M186.052 139.045L168.636 150.057L170.96 153.344C170.96 153.344 169.734 155.151 167.406 149.604L178.183 142.52C178.183 142.52 174.81 142.183 174.896 141.66C175.039 140.8 182.45 139.161 185.827 138.421C186 138.357 186.195 138.447 186.255 138.623C186.319 138.795 186.229 138.989 186.052 139.049V139.045Z" fill="black"/>
<path opacity="0.7" d="M168.004 148.816L171.024 153.685C167.297 154.332 163.515 154.628 159.728 154.572C158.484 154.564 157.251 154.344 156.089 153.917L155.028 151.987L157.315 147.413L168.004 148.819V148.816Z" fill="black"/>
<path d="M173.768 146.878L166.023 151.766L167.41 155.507L176.506 151.441L173.768 146.878Z" fill="#B97964"/>
<path d="M161.759 153.02L162.518 155.709C162.518 155.709 163.09 155.828 163.267 156.393C163.368 156.711 163.131 157.586 163.131 157.586L165.165 164.999C165.165 164.999 165.677 164.861 165.876 164.719C166.117 164.547 166.312 164.367 166.47 164.188C167.019 163.556 167.079 162.639 167.102 161.962C167.136 160.825 167.794 157.504 167.794 157.504C167.794 157.504 168.046 156.64 168.963 155.877C169.474 155.451 169.711 154.916 169.666 154.583C169.568 153.906 169.08 153.652 168.444 153.726L167.703 153.816C167.173 153.423 167.012 152.761 167.346 152.122C167.346 152.122 167.782 150.506 167.102 150.779C166.715 150.932 165.004 151.692 163.635 152.253C163.316 152.384 163.015 152.507 162.748 152.616C162.161 152.855 161.755 153.023 161.755 153.023L161.759 153.02Z" fill="#263238"/>
<path d="M167.512 159.274C167.534 159.232 167.523 159.18 167.485 159.146C167.324 159.001 167.128 158.896 166.906 158.847C166.79 158.821 166.733 159.012 166.854 159.034C167.053 159.075 167.226 159.169 167.365 159.296C167.41 159.337 167.482 159.33 167.512 159.274Z" fill="#9747FF"/>
<path d="M167.662 158.618C167.685 158.577 167.673 158.525 167.636 158.491C167.474 158.345 167.279 158.241 167.057 158.192C166.94 158.166 166.884 158.356 167.004 158.379C167.203 158.42 167.376 158.51 167.515 158.641C167.561 158.682 167.632 158.674 167.658 158.618H167.662Z" fill="#9747FF"/>
<path d="M167.79 157.949C167.812 157.908 167.801 157.856 167.764 157.822C167.602 157.676 167.406 157.572 167.185 157.523C167.068 157.497 167.012 157.688 167.132 157.71C167.331 157.751 167.504 157.841 167.643 157.972C167.688 158.013 167.76 158.005 167.79 157.949Z" fill="#9747FF"/>
<path opacity="0.2" d="M162.752 152.611C162.165 152.851 161.759 153.019 161.759 153.019L162.518 155.708C162.518 155.708 163.09 155.828 163.267 156.393C163.368 156.711 163.131 157.586 163.131 157.586L165.165 164.999C165.165 164.999 165.677 164.861 165.876 164.719C165.989 164.64 166.087 164.558 166.177 164.475L162.894 152.548C162.846 152.567 162.793 152.589 162.748 152.608L162.752 152.611Z" fill="white"/>
<path d="M167.685 157.904C167.937 157.81 168.192 157.717 168.455 157.672C168.719 157.623 169.001 157.623 169.253 157.717C169.369 157.758 169.493 157.836 169.516 157.956C169.542 158.083 169.452 158.207 169.343 158.285C169.136 158.431 168.865 158.469 168.617 158.42C168.369 158.371 167.888 158.05 167.685 157.904Z" stroke="#9747FF" stroke-width="0.25" stroke-miterlimit="10"/>
<path d="M167.673 157.874C167.884 157.709 168.094 157.541 168.275 157.339C168.452 157.137 168.598 156.902 168.651 156.64C168.677 156.516 168.674 156.374 168.583 156.288C168.486 156.198 168.331 156.213 168.211 156.266C167.978 156.363 167.809 156.576 167.718 156.812C167.628 157.047 167.658 157.623 167.677 157.874" stroke="#9747FF" stroke-width="0.25" stroke-miterlimit="10"/>
<path d="M174.693 114.163C174.693 114.163 176.047 126.158 176.408 126.801C177.634 128.978 185.74 132.707 185.74 132.707L189.876 131.847L192.839 134.308L190.888 135.83L188.594 134.97C187.342 135.19 186.075 135.303 184.804 135.299C182.668 135.299 172.37 132.703 170.651 129.846C168.933 126.988 168.143 113.763 168.143 113.763L174.693 114.163Z" fill="#B97964"/>
<path d="M167.967 118.876C167.967 118.876 164.789 108.343 168.749 105.418C172.708 102.494 175.855 116.976 175.855 116.976L167.967 118.876Z" fill="#9747FF"/>
<path opacity="0.5" d="M167.967 118.876C167.967 118.876 164.789 108.343 168.749 105.418C172.708 102.494 175.855 116.976 175.855 116.976L167.967 118.876Z" fill="white"/>
<path d="M170.475 138.141L170.444 124.179L170.144 105.063L161.849 103.275L154.634 102.957L146.422 106.694L146.23 111.384C146.23 111.384 147.17 132.924 147.117 133.571C147.054 134.367 144.722 139.364 144.722 139.364C155.096 141.717 170.64 138.852 170.475 138.138V138.141Z" fill="#9747FF"/>
<path opacity="0.5" d="M170.475 138.141L170.444 124.179L170.144 105.063L161.849 103.275L154.634 102.957L146.422 106.694L146.23 111.384C146.23 111.384 147.17 132.924 147.117 133.571C147.054 134.367 144.722 139.364 144.722 139.364C155.096 141.717 170.64 138.852 170.475 138.138V138.141Z" fill="white"/>
<path d="M169.708 91.7096C170.162 91.6647 170.554 91.257 170.572 90.8045C170.591 90.3519 170.238 89.9068 169.79 89.8245L167.666 89.6113C167.767 90.969 167.869 92.3267 167.97 93.6844C168.38 93.7892 168.824 93.8116 169.226 93.6732C169.629 93.5348 169.982 93.2244 170.102 92.8204C170.223 92.4165 170.072 91.9265 169.708 91.7096Z" fill="#263238"/>
<path d="M161.586 99.5381L157.018 93.8193C157.018 93.8193 157.018 93.8231 157.018 93.838C157.018 94.3804 156.999 94.9975 156.954 95.6558C156.954 95.6595 156.465 95.4239 156.461 95.4276C156.266 98.3974 155.085 103.465 155.138 103.907L159.939 106.278H160.902L160.981 103.477C160.499 102.265 160.954 100.855 161.586 99.5381Z" fill="#B97964"/>
<path opacity="0.2" d="M160.902 101.469L158.014 99.1982C157.942 100.354 158.548 102.172 160.868 103.114C160.732 102.419 160.778 101.925 160.905 101.469H160.902Z" fill="black"/>
<path d="M157.991 90.9875C157.048 94.8362 156.69 96.6839 158.01 99.1973C159.999 102.979 164.853 103.012 166.94 99.5115C168.82 96.3622 170.05 90.5985 166.786 87.9804C163.567 85.4034 158.935 87.1388 157.991 90.9875Z" fill="#B97964"/>
<path d="M158.807 85.7628C159.977 83.8441 163.041 83.5299 164.177 85.0484C164.346 85.2766 162.515 85.329 162.725 85.3177L161.654 88.3473C161.443 88.2276 160.92 88.3548 160.473 88.9794C160.473 88.9794 159.781 93.1498 157.612 94.3167C155.48 91.3881 155.72 85.7666 158.811 85.7628H158.807Z" fill="#263238"/>
<path d="M155.51 93.6696C155.51 94.7355 156.006 95.6968 156.645 96.3027C157.604 97.2115 158.717 96.5084 158.98 95.2853C159.217 94.1857 159.007 92.3867 157.788 91.9378C156.589 91.4965 155.51 92.4502 155.51 93.6658V93.6696Z" fill="#B97964"/>
<path d="M163.229 94.2119C163.109 94.5972 163.218 94.9749 163.473 95.0497C163.729 95.1245 164.034 94.874 164.154 94.4887C164.274 94.1035 164.165 93.7257 163.91 93.6509C163.654 93.5761 163.349 93.8267 163.229 94.2119Z" fill="#263238"/>
<path d="M167.038 95.4424C166.918 95.8276 167.027 96.2054 167.282 96.2802C167.538 96.355 167.843 96.1044 167.963 95.7192C168.083 95.3339 167.974 94.9562 167.718 94.8814C167.463 94.8066 167.158 95.0572 167.038 95.4424Z" fill="#263238"/>
<path d="M165.699 94.4102C165.699 94.4102 166.181 96.1718 166.402 97.2153C166.455 97.4659 166.267 97.709 166.011 97.7165C165.451 97.7315 164.925 97.421 164.925 97.421L165.699 94.4102Z" fill="#A24E3F"/>
<path d="M162.823 91.8931C162.876 91.9343 162.947 91.9492 163.015 91.923C163.812 91.6238 164.387 92.024 164.391 92.0278C164.477 92.0876 164.598 92.0689 164.658 91.9866C164.722 91.9043 164.699 91.7847 164.616 91.7248C164.586 91.7024 163.868 91.2012 162.879 91.5715C162.782 91.6089 162.729 91.7173 162.767 91.8146C162.778 91.8445 162.797 91.8707 162.823 91.8931Z" fill="#263238"/>
<path d="M169.061 93.6842C169.098 93.6804 169.132 93.6617 169.159 93.6393C169.238 93.5682 169.245 93.4485 169.174 93.37C168.478 92.5883 167.613 92.7192 167.572 92.7192C167.467 92.7341 167.395 92.8314 167.41 92.9361C167.425 93.0408 167.519 93.1082 167.624 93.0932C167.662 93.0857 168.328 92.9922 168.888 93.6206C168.933 93.6692 168.997 93.6916 169.057 93.6804L169.061 93.6842Z" fill="#263238"/>
<path d="M162.909 98.2072C163.041 98.3157 163.184 98.4092 163.334 98.4952C163.383 98.5214 163.443 98.5064 163.477 98.4653C163.5 98.4129 163.477 98.3531 163.428 98.3232C162.654 97.908 162.12 97.1487 162 96.281C161.992 96.2286 161.947 96.1875 161.89 96.1875C161.842 96.1875 161.8 96.2212 161.796 96.2735C161.796 96.281 161.796 96.2885 161.796 96.296C161.887 97.0552 162.289 97.7472 162.906 98.2072H162.909Z" fill="#263238"/>
<path d="M171.625 88.8413C171.366 88.0708 170.444 87.7492 169.632 87.6931C170.144 87.6818 170.542 87.1694 170.546 86.6608C170.546 86.1521 170.23 85.6883 169.832 85.3741C169.113 84.8131 168.091 84.6672 167.245 85.0076C167.406 84.929 167.463 84.7196 167.41 84.5475C167.358 84.3792 167.226 84.2446 167.083 84.1399C166.222 83.4853 164.887 83.5526 164.098 84.2857C163.819 83.3544 162.736 82.7447 161.793 82.9916C160.871 83.231 159.134 83.4142 158.867 85.7594C158.085 85.2058 156.875 85.3255 156.258 86.0661C155.589 86.8665 155.762 88.2204 156.611 88.8301C156.19 88.6543 155.668 88.9273 155.495 89.3462C155.322 89.7652 155.457 90.2701 155.75 90.6179C156.044 90.9658 156.472 91.1752 156.912 91.3024C157.326 91.4183 157.773 91.467 158.183 91.3398C158.593 91.2126 158.961 90.8835 159.04 90.4646C159.108 90.9059 159.574 91.2313 160.022 91.1864C160.469 91.1416 160.845 90.7563 160.917 90.315C160.988 89.8736 160.778 89.4098 160.42 89.1405C160.928 89.6305 161.909 89.436 162.191 88.7927C162.567 89.5108 163.105 90.1878 163.849 90.5095C164.598 90.8311 165.583 90.6965 166.06 90.0382C166.305 90.3187 166.549 90.6067 166.865 90.8049C167.181 91.0032 167.576 91.1079 167.929 90.9957C168.282 90.8835 168.564 90.5095 168.489 90.1467C169.076 90.6329 169.903 90.8872 170.625 90.6404C171.347 90.3935 171.869 89.5632 171.625 88.8413Z" fill="#263238"/>
<path d="M158.725 106.054C158.725 106.054 160.74 107.838 161.77 105.53L162.308 105.945C162.308 105.945 162.255 107.658 161.278 108.234C161.514 109.184 165.602 123.035 166.335 130.014L165.218 132.845L162.251 130.515C162.251 130.515 160.811 118.543 160.319 108.369C159.131 107.969 158.191 107.082 157.754 105.949L158.732 106.054H158.725Z" fill="#9747FF"/>
<path opacity="0.2" d="M161.323 106.286L163.067 107.636L163.349 103.582L162.797 103.466L162.334 106.196L161.507 105.717L161.323 106.286Z" fill="black"/>
<path opacity="0.2" d="M152.912 103.743C152.882 103.757 157.021 108.777 157.021 108.777L158.428 107.711L159.394 106.896L159.646 106.589L154.167 102.804C154.167 102.804 153.434 103.548 153.359 103.548C153.284 103.548 152.915 103.739 152.915 103.739L152.912 103.743Z" fill="black"/>
<path d="M153.209 103.656L155.209 101.88L160.687 106.982L159.255 106.477L157.168 108.07L153.209 103.656Z" fill="#9747FF"/>
<path d="M160.687 106.982C160.567 106.75 160.804 102.209 160.804 102.209L163.064 103.44C162.962 103.417 162.894 107.27 162.83 107.27C162.767 107.27 161.545 105.953 161.545 105.953L160.684 106.982H160.687Z" fill="#9747FF"/>
<path opacity="0.2" d="M170.328 118.306L169.903 109.304L171.926 117.921L170.328 118.306Z" fill="black"/>
<path opacity="0.2" d="M152.772 119.62C153.028 119.571 154.322 119.149 154.322 119.149L151.445 111.193L155.393 119.994L153.021 120.933L152.772 119.62Z" fill="black"/>
<path opacity="0.5" d="M153.209 103.656L155.209 101.88L160.687 106.982L159.255 106.477L157.168 108.07L153.209 103.656Z" fill="white"/>
<path opacity="0.5" d="M160.687 106.982C160.567 106.75 160.804 102.209 160.804 102.209L163.064 103.44C162.962 103.417 162.894 107.27 162.83 107.27C162.767 107.27 161.545 105.953 161.545 105.953L160.684 106.982H160.687Z" fill="white"/>
<path opacity="0.3" d="M163.793 114.425L164.714 118.917L167.391 119.882L169.2 118.311L168.869 114.069L163.793 114.425Z" fill="white"/>
<path d="M161.011 106.589L160.165 106.795C160.165 106.795 160.131 106.847 160.153 106.813C160.165 106.795 159.691 108.41 159.691 108.41C159.826 108.53 160.285 109.316 160.338 109.301C160.39 109.289 161.514 109.185 161.514 109.185L161.924 107.999C161.924 107.999 161.011 106.578 161.014 106.589H161.011Z" fill="#9747FF"/>
<path opacity="0.2" d="M161.011 106.589L160.165 106.795C160.165 106.795 160.131 106.847 160.153 106.813C160.165 106.795 159.691 108.41 159.691 108.41C159.826 108.53 160.285 109.316 160.338 109.301C160.39 109.289 161.514 109.185 161.514 109.185L161.924 107.999C161.924 107.999 161.011 106.578 161.014 106.589H161.011Z" fill="black"/>
<path d="M151.66 113.021C151.66 113.021 153.671 126.337 154.833 127.582C156.796 129.684 166.523 135.268 166.523 135.268L171.377 133.574C171.715 133.462 172.095 133.525 172.37 133.735L175.69 136.256L175.374 136.521C175.238 136.637 175.039 136.66 174.878 136.581L174.362 136.327L174.938 136.888L174.753 137.041C174.573 137.194 174.321 137.247 174.088 137.187L172.603 136.79L173.971 137.696C173.667 137.954 173.238 138.04 172.851 137.931L170.678 137.314C169.196 137.651 167.688 137.868 166.169 137.957C163.613 138.114 151.539 133.918 149.287 130.843C147.035 127.773 144.715 115.011 144.715 115.011L151.652 113.018L151.66 113.021Z" fill="#B97964"/>
<path d="M145.234 121.879C145.234 121.879 142.226 109.809 146.185 106.884C150.144 103.959 154.066 119.227 154.066 119.227L145.237 121.875L145.234 121.879Z" fill="#9747FF"/>
<path opacity="0.5" d="M145.234 121.879C145.234 121.879 142.226 109.809 146.185 106.884C150.144 103.959 154.066 119.227 154.066 119.227L145.237 121.875L145.234 121.879Z" fill="white"/>
<path d="M177.637 137.222H162.248C162.248 137.222 162.248 137.222 162.248 137.225C162.251 137.809 162.909 138.28 163.714 138.28H176.16C176.16 138.28 176.175 138.28 176.182 138.28H188.786C189.587 138.276 190.23 137.801 190.222 137.222H177.637Z" fill="#263238"/>
<path d="M189.011 138.22H174.953C174.708 138.22 174.517 138.059 174.517 137.865C174.517 137.827 174.524 137.794 174.539 137.756L180.796 123.491C180.954 123.083 181.424 122.806 181.958 122.803H196.028C196.264 122.803 196.46 122.956 196.46 123.147C196.46 123.188 196.452 123.225 196.434 123.263L190.177 137.528C190.015 137.936 189.549 138.212 189.015 138.216L189.011 138.22Z" fill="#263238"/>
<path opacity="0.7" d="M196.028 122.807H181.958C181.424 122.807 180.954 123.087 180.796 123.495L174.776 137.221H162.248C162.248 137.221 162.248 137.221 162.248 137.225C162.251 137.809 162.909 138.28 163.714 138.28H176.16C176.16 138.28 176.175 138.28 176.182 138.28H188.786C189.038 138.28 189.275 138.224 189.481 138.142C189.808 138.033 190.072 137.816 190.181 137.532L196.437 123.267C196.452 123.229 196.464 123.188 196.464 123.151C196.464 122.96 196.272 122.807 196.031 122.807H196.028Z" fill="white"/>
<path d="M187.575 130.399C187.27 131.084 186.654 131.555 186.195 131.458C185.736 131.36 185.612 130.74 185.909 130.051C186.206 129.363 186.827 128.907 187.286 129C187.744 129.098 187.883 129.696 187.575 130.399Z" fill="white"/>
<g opacity="0.3">
<path d="M180.796 123.495L174.776 137.221H175.426L181.958 122.807C181.424 122.807 180.954 123.087 180.796 123.495Z" fill="black"/>
</g>
<path d="M181.521 153.042L190.575 154.493L192.031 150.775L182.51 147.82L181.521 153.042Z" fill="#B97964"/>
<path d="M194.602 156.366L195.824 153.853C195.824 153.853 195.479 153.385 195.719 152.847C195.855 152.544 196.618 152.043 196.618 152.043L200.032 145.149C200.032 145.149 199.558 144.914 199.314 144.891C199.017 144.861 198.754 144.865 198.513 144.899C197.678 145.011 197.024 145.654 196.558 146.148C195.776 146.978 193.068 149.032 193.068 149.032C193.068 149.032 192.305 149.514 191.109 149.481C190.444 149.462 189.906 149.705 189.722 149.986C189.342 150.558 189.538 151.07 190.068 151.433L190.681 151.856C190.816 152.499 190.497 153.101 189.82 153.359C189.82 153.359 188.417 154.279 189.105 154.526C189.5 154.665 191.286 155.226 192.685 155.708C193.012 155.82 193.32 155.929 193.591 156.022C194.193 156.228 194.602 156.374 194.602 156.374V156.366Z" fill="#263238"/>
<path d="M194.467 147.888C194.422 147.906 194.396 147.951 194.403 148C194.426 148.213 194.505 148.422 194.64 148.606C194.712 148.703 194.877 148.594 194.806 148.501C194.685 148.34 194.614 148.157 194.595 147.97C194.587 147.906 194.527 147.869 194.471 147.891L194.467 147.888Z" fill="#9747FF"/>
<path d="M193.914 148.28C193.869 148.299 193.843 148.344 193.85 148.392C193.873 148.606 193.952 148.815 194.087 148.998C194.159 149.096 194.324 148.987 194.253 148.894C194.132 148.733 194.061 148.549 194.042 148.362C194.035 148.299 193.975 148.261 193.918 148.284L193.914 148.28Z" fill="#9747FF"/>
<path d="M193.377 148.695C193.332 148.714 193.305 148.759 193.313 148.807C193.335 149.021 193.414 149.23 193.55 149.413C193.621 149.511 193.787 149.402 193.715 149.309C193.595 149.148 193.523 148.964 193.505 148.777C193.497 148.714 193.437 148.676 193.38 148.699L193.377 148.695Z" fill="#9747FF"/>
<path opacity="0.2" d="M195.723 152.843C195.858 152.54 196.622 152.039 196.622 152.039L200.036 145.146C200.036 145.146 199.562 144.91 199.318 144.888C199.182 144.873 199.054 144.869 198.93 144.869L193.437 155.963C193.486 155.981 193.542 156 193.587 156.015C194.189 156.224 194.599 156.367 194.599 156.367L195.821 153.853C195.821 153.853 195.475 153.386 195.715 152.847L195.723 152.843Z" fill="white"/>
<path d="M193.426 148.8C193.174 148.702 192.922 148.605 192.692 148.467C192.463 148.328 192.252 148.145 192.125 147.909C192.064 147.801 192.023 147.663 192.087 147.554C192.151 147.442 192.305 147.408 192.437 147.423C192.689 147.449 192.914 147.603 193.068 147.801C193.223 147.999 193.369 148.557 193.426 148.803" stroke="#9747FF" stroke-width="0.25" stroke-miterlimit="10"/>
<path d="M193.411 148.83C193.144 148.815 192.873 148.8 192.606 148.83C192.339 148.863 192.072 148.946 191.858 149.107C191.756 149.181 191.666 149.29 191.677 149.413C191.688 149.544 191.816 149.634 191.94 149.675C192.181 149.754 192.452 149.709 192.674 149.593C192.895 149.477 193.26 149.028 193.414 148.826" stroke="#9747FF" stroke-width="0.25" stroke-miterlimit="10"/>
<path d="M147.49 148.935C145.538 145.842 141.12 137.456 150.08 135.822C159.04 134.187 188.974 148.337 188.974 148.337L187.079 154.018L159.217 149.649C159.217 149.649 163.03 154.71 158.405 154.482C151.678 153.82 150.065 152.219 147.49 148.935Z" fill="#263238"/>
<path opacity="0.7" d="M159.875 149.803L152.231 147.409C152.231 147.409 158.642 151.31 160.996 151.774L159.875 149.799V149.803Z" fill="black"/>
</g>
<defs>
<clipPath id="clip0_934_3046">
<rect width="282" height="165" fill="white" transform="translate(0.5)"/>
</clipPath>
</defs>
</svg>
